<svg width="100" height="100" viewBox="0 0 100 100" fill="none" xmlns="http://www.w3.org/2000/svg">
<circle cx="50" cy="50" r="42" fill="#F4F4F4" fill-opacity="0.5"/>
<circle cx="50" cy="50" r="33" fill="#F4F4F4"/>
<path d="M75.375 28.25H24.625V71.75H75.375V28.25Z" fill="white"/>
<path d="M24.625 27H75.375C76.0886 27 76.7626 27.2686 77.2511 27.7307C77.7378 28.191 78 28.803 78 29.4286V70.5714C78 71.197 77.7378 71.809 77.2511 72.2693C76.7626 72.7314 76.0886 73 75.375 73H24.625C23.9114 73 23.2374 72.7314 22.7489 72.2693C22.2622 71.809 22 71.197 22 70.5714V29.4286C22 28.803 22.2622 28.191 22.7489 27.7307C23.2374 27.2686 23.9114 27 24.625 27Z" fill="white" stroke="#C0CDDC" stroke-width="2"/>
<rect x="23" y="69" width="54" height="3" fill="#C0CDDC" fill-opacity="0.3"/>
<path d="M73 32H27V68H73V32Z" fill="#ECF0F5"/>
<path d="M64 44C66.7614 44 69 41.7614 69 39C69 36.2386 66.7614 34 64 34C61.2386 34 59 36.2386 59 39C59 41.7614 61.2386 44 64 44Z" fill="#C0CDDC"/>
<path d="M73 68V55.6376C72.0854 55.2207 71.0751 55.0023 70.0499 55C64.4644 55 53.9228 62.5095 47 68H73Z" fill="#DAE3ED"/>
<path d="M65 68C58.5533 59.86 46.3761 46 38.0669 46C34.4854 46 30.0443 50.4733 27 54.14V68H65Z" fill="#C0CDDC"/>
</svg>
