<svg width="100" height="100" viewBox="0 0 100 100" fill="none" xmlns="http://www.w3.org/2000/svg">
<g clip-path="url(#clip0_22845_16597)">
<circle cx="50" cy="50" r="42" fill="#F4F4F4" fill-opacity="0.1"/>
<circle cx="50" cy="50" r="33" fill="#F4F4F4" fill-opacity="0.2"/>
<mask id="mask0_22845_16597" style="mask-type:alpha" maskUnits="userSpaceOnUse" x="28" y="27" width="45" height="45">
<path d="M35.6508 64.3492C43.8518 72.5503 57.1482 72.5503 65.3492 64.3492C73.5503 56.1482 73.5503 42.8518 65.3492 34.6508C57.1482 26.4497 43.8518 26.4497 35.6508 34.6508C27.4497 42.8518 27.4497 56.1482 35.6508 64.3492Z" fill="white" stroke="#C0CDDC" stroke-width="3"/>
</mask>
<g mask="url(#mask0_22845_16597)">
<path d="M50 26.0635C50 26.0635 39.7766 15.3254 39.4468 15H20.7149C19.8574 15 19 15.846 19 16.7571V54.3079C19 55.154 19.8574 56 20.7149 56H48.0213C48.8787 56 50 54.8937 50 54.0476V26.0635Z" fill="#AAAAAA"/>
<path d="M19 53.8889H50.2V55.4445H19V53.8889Z" fill="#939393"/>
<path d="M50 25.4434C50 25.4434 39.7766 15.3254 39.4468 15H20.7149C19.8574 15 19 15.846 19 16.7571V54.3079C19 55.154 19.8574 56 20.7149 56H48.0213C48.8787 56 50 54.8937 50 54.0476V25.4434Z" stroke="#5C5C5C" stroke-width="2" stroke-miterlimit="10"/>
<path d="M40 47.5H29" stroke="#5C5C5C"/>
<path d="M44 44.5H30" stroke="#5C5C5C"/>
<path d="M44 41.5H30" stroke="#5C5C5C"/>
<path d="M44 38.5H33" stroke="#5C5C5C"/>
<path d="M44 35.5H33" stroke="#5C5C5C"/>
<path d="M44 32.5H33" stroke="#5C5C5C"/>
</g>
<path d="M35.6512 64.3492C43.8523 72.5503 57.1487 72.5503 65.3497 64.3492C73.5507 56.1482 73.5507 42.8518 65.3497 34.6508C57.1487 26.4497 43.8523 26.4497 35.6512 34.6508C27.4502 42.8518 27.4502 56.1482 35.6512 64.3492Z" fill="white" fill-opacity="0.3" stroke="#5C5C5C" stroke-width="3"/>
<path d="M36.3584 63.6421C44.1688 71.4526 56.8321 71.4526 64.6426 63.6421C72.4531 55.8316 72.4531 43.1684 64.6426 35.3579C56.8321 27.5474 44.1688 27.5474 36.3584 35.3579C28.5479 43.1684 28.5479 55.8316 36.3584 63.6421Z" stroke="#838383"/>
<rect y="1.41421" width="6.59445" height="25.9685" rx="3.29722" transform="matrix(-0.707107 0.707107 0.707107 0.707107 71.5015 66.6704)" fill="#AAAAAA" stroke="#5C5C5C" stroke-width="2"/>
<path d="M88.0889 87.9163L70.678 70.5055L69 72.1835L86.4108 89.5943L88.0889 87.9163Z" fill="#939393"/>
<rect width="3" height="6.65092" transform="matrix(-0.707107 0.707107 0.707107 0.707107 66.6655 64.3762)" fill="#5C5C5C"/>
<mask id="mask1_22845_16597" style="mask-type:alpha" maskUnits="userSpaceOnUse" x="-2" y="8" width="69" height="58">
<path d="M2.56089 19.0607C0.814453 20.8071 -0.196091 24.3326 0.0196991 29.0461C0.231636 33.6753 1.61988 39.1214 4.24334 44.3247C9.08059 53.9188 17.9901 62.4822 31.1838 63.7489C24.2362 54.3549 25.0182 41.0409 33.5297 32.5294C42.0392 24.0199 55.3491 23.2363 64.7427 30.1787C64.0108 23.0035 60.9357 18.2057 56.6203 15.0616C51.5724 11.3837 44.6358 9.83093 37.227 9.71604C29.8415 9.60151 22.1553 10.9195 15.7757 12.8107C12.589 13.7554 9.75266 14.836 7.46177 15.9368C5.14343 17.0508 3.48268 18.1389 2.56089 19.0607Z" fill="white" stroke="#C0CDDC" stroke-width="3"/>
</mask>
<g mask="url(#mask1_22845_16597)">
<path d="M50.5 27C50.5 27 39.8298 15.3333 39.5 15H21.2149C20.3574 15 19.5 15.8667 19.5 16.8V54.2667C19.5 55.1333 20.3574 56 21.2149 56H48.5213C49.3787 56 50.5 54.8667 50.5 54V27Z" fill="#AAAAAA" stroke="#5C5C5C" stroke-miterlimit="16" stroke-linecap="round" stroke-dasharray="2 2"/>
<path d="M39 15V27H50" stroke="#5C5C5C" stroke-miterlimit="16" stroke-linecap="round" stroke-dasharray="2 4"/>
</g>
</g>
<defs>
<clipPath id="clip0_22845_16597">
<rect width="100" height="100" fill="white"/>
</clipPath>
</defs>
</svg>
