<svg width="100" height="100" viewBox="0 0 100 100" fill="none" xmlns="http://www.w3.org/2000/svg">
<g clip-path="url(#clip0_22844_16263)">
<circle cx="50" cy="50" r="42" fill="#F4F4F4" fill-opacity="0.5"/>
<circle cx="50" cy="50" r="33" fill="#F4F4F4"/>
<mask id="mask0_22844_16263" style="mask-type:alpha" maskUnits="userSpaceOnUse" x="28" y="27" width="45" height="45">
<path d="M35.6508 64.3492C43.8518 72.5503 57.1482 72.5503 65.3492 64.3492C73.5503 56.1482 73.5503 42.8518 65.3492 34.6508C57.1482 26.4497 43.8518 26.4497 35.6508 34.6508C27.4497 42.8518 27.4497 56.1482 35.6508 64.3492Z" fill="white" stroke="#C0CDDC" stroke-width="3"/>
</mask>
<g mask="url(#mask0_22844_16263)">
<path d="M50 26.0635C50 26.0635 39.7766 15.3254 39.4468 15H20.7149C19.8574 15 19 15.846 19 16.7571V54.3079C19 55.154 19.8574 56 20.7149 56H48.0213C48.8787 56 50 54.8937 50 54.0476V26.0635Z" fill="white"/>
<path d="M19 53.8889H50.2C50.2 54.748 49.5036 55.4445 48.6444 55.4445H20.5556C19.6964 55.4445 19 54.748 19 53.8889Z" fill="#C0CDDC" fill-opacity="0.3"/>
<path d="M50 25.4434C50 25.4434 39.7766 15.3254 39.4468 15H20.7149C19.8574 15 19 15.846 19 16.7571V54.3079C19 55.154 19.8574 56 20.7149 56H48.0213C48.8787 56 50 54.8937 50 54.0476V25.4434Z" stroke="#C0CDDC" stroke-width="2" stroke-miterlimit="10"/>
<path d="M40 47.5H29" stroke="#C0CDDC"/>
<path d="M44 44.5H30" stroke="#C0CDDC"/>
<path d="M44 41.5H30" stroke="#C0CDDC"/>
<path d="M44 38.5H33" stroke="#C0CDDC"/>
<path d="M44 35.5H33" stroke="#C0CDDC"/>
<path d="M44 32.5H33" stroke="#C0CDDC"/>
</g>
<path d="M35.6508 64.3492C43.8518 72.5503 57.1482 72.5503 65.3492 64.3492C73.5503 56.1482 73.5503 42.8518 65.3492 34.6508C57.1482 26.4497 43.8518 26.4497 35.6508 34.6508C27.4497 42.8518 27.4497 56.1482 35.6508 64.3492Z" fill="white" fill-opacity="0.3" stroke="#C0CDDC" stroke-width="3"/>
<path d="M36.3579 63.6421C44.1684 71.4526 56.8316 71.4526 64.6421 63.6421C72.4526 55.8316 72.4526 43.1684 64.6421 35.3579C56.8316 27.5474 44.1684 27.5474 36.3579 35.3579C28.5474 43.1684 28.5474 55.8316 36.3579 63.6421Z" stroke="#ECF0F5" stroke-opacity="0.5"/>
<rect y="1.41421" width="6.59445" height="25.9685" rx="3.29722" transform="matrix(-0.707107 0.707107 0.707107 0.707107 71.5012 66.6704)" fill="white" stroke="#C0CDDC" stroke-width="2"/>
<path d="M88.0886 87.9163L70.6778 70.5055L68.9997 72.1835L86.4106 89.5943L88.0886 87.9163Z" fill="#C0CDDC" fill-opacity="0.3"/>
<rect width="3" height="6.65092" transform="matrix(-0.707107 0.707107 0.707107 0.707107 66.6653 64.3762)" fill="#C0CDDC"/>
<mask id="mask1_22844_16263" style="mask-type:alpha" maskUnits="userSpaceOnUse" x="-2" y="8" width="69" height="58">
<path d="M2.56065 19.0607C0.814209 20.8071 -0.196335 24.3326 0.019455 29.0461C0.231392 33.6753 1.61964 39.1214 4.2431 44.3247C9.08034 53.9188 17.9899 62.4822 31.1835 63.7489C24.236 54.3549 25.018 41.0409 33.5294 32.5294C42.039 24.0199 55.3489 23.2363 64.7424 30.1787C64.0105 23.0035 60.9355 18.2057 56.6201 15.0616C51.5721 11.3837 44.6356 9.83093 37.2267 9.71604C29.8413 9.60151 22.1551 10.9195 15.7754 12.8107C12.5888 13.7554 9.75242 14.836 7.46152 15.9368C5.14319 17.0508 3.48244 18.1389 2.56065 19.0607Z" fill="white" stroke="#C0CDDC" stroke-width="3"/>
</mask>
<g mask="url(#mask1_22844_16263)">
<path d="M50.5 27C50.5 27 39.8298 15.3333 39.5 15H21.2149C20.3574 15 19.5 15.8667 19.5 16.8V54.2667C19.5 55.1333 20.3574 56 21.2149 56H48.5213C49.3787 56 50.5 54.8667 50.5 54V27Z" stroke="#C0CDDC" stroke-miterlimit="16" stroke-linecap="round" stroke-dasharray="2 4"/>
<path d="M39 15V27H50" stroke="#C0CDDC" stroke-miterlimit="16" stroke-linecap="round" stroke-dasharray="2 4"/>
</g>
</g>
<defs>
<clipPath id="clip0_22844_16263">
<rect width="100" height="100" fill="white"/>
</clipPath>
</defs>
</svg>
