<svg id="Layer_1" data-name="Layer 1" xmlns="http://www.w3.org/2000/svg" viewBox="0 0 32 32"><title>Approve_сhanged</title><path d="M16,31.27a0.68,0.68,0,0,0,.11.37,0.82,0.82,0,0,0,.69.36H31.2a0.82,0.82,0,0,0,.69-0.36,0.67,0.67,0,0,0,0-.73L24.7,19.37a0.84,0.84,0,0,0-1.39,0L16.1,30.91a0.68,0.68,0,0,0-.1.36h0Z" fill="#e0ad5c"/><polygon points="19 23.67 19 11 8 11 8 31 13.5 26 16.08 28.35 19 23.67" fill="#407fb9"/><polygon points="25 23 24.5 28 23.5 28 23 23 25 23" fill="#42484c"/><rect x="23" y="29" width="2" height="2" fill="#42484c"/><circle cx="13.5" cy="10.5" r="10.5" fill="#d65633"/><path d="M13.5,2.7a7.8,7.8,0,1,1-7.8,7.8,7.81,7.81,0,0,1,7.8-7.8m0-.7A8.5,8.5,0,1,0,22,10.5,8.5,8.5,0,0,0,13.5,2h0Z" fill="#fff"/></svg>