<svg id="Layer_1" data-name="Layer 1" xmlns="http://www.w3.org/2000/svg" viewBox="0 0 32 32"><title>External_invalid_32</title><circle cx="25" cy="25" r="7" fill="#d65633"/><rect x="21" y="24" width="8" height="2" fill="#fff"/><path d="M17,25a8,8,0,0,1,2-5.28V17H8V31l5.5-5L19,31V30.28A8,8,0,0,1,17,25Z" fill="#407fb9"/><path d="M13.5,0A10.5,10.5,0,1,0,24,10.5,10.5,10.5,0,0,0,13.5,0Zm0,14.21a3.71,3.71,0,1,1,3.71-3.71,3.71,3.71,0,0,1-3.71,3.71h0Z" fill="#0088cf"/><path d="M8.55,1.24A10.48,10.48,0,0,0,7.39,2,8.63,8.63,0,1,1,7.39,19a10.48,10.48,0,0,0,1.17.72c5.12,0.63,9.41-4,9.63-8.43a9.38,9.38,0,0,0-7.35-10.1A6.63,6.63,0,0,0,8.55,1.24Z" fill="#fff"/></svg>