<svg id="Layer_1" data-name="Layer 1" xmlns="http://www.w3.org/2000/svg" viewBox="0 0 32 32"><title>External_32</title><polygon points="21 31 15.5 26 10 31 10 17 21 17 21 31" fill="#407fb9"/><path d="M15.5,0A10.5,10.5,0,1,0,26,10.5,10.5,10.5,0,0,0,15.5,0Zm0,14.21a3.71,3.71,0,1,1,3.71-3.71,3.71,3.71,0,0,1-3.71,3.71h0Z" fill="#0088cf"/><path d="M10.55,1.24A10.48,10.48,0,0,0,9.39,2,8.63,8.63,0,1,1,9.39,19a10.48,10.48,0,0,0,1.17.72c5.12,0.63,9.41-4,9.63-8.43a9.38,9.38,0,0,0-7.35-10.1A6.63,6.63,0,0,0,10.55,1.24Z" fill="#fff"/></svg>