<svg id="Layer_1" data-name="Layer 1" xmlns="http://www.w3.org/2000/svg" viewBox="0 0 16 16"><title>ExternalSigned_16</title><path d="M13,6a4,4,0,0,0-3,6.62V16h6V7.38A4,4,0,0,0,13,6Z" fill="#fff"/><polygon points="15 16 13 14 11 16 11 12 15 12 15 16" fill="#407fb9"/><path d="M13,7a3,3,0,1,0,3,3A3,3,0,0,0,13,7Zm0,4.06A1.06,1.06,0,1,1,14.06,10,1.06,1.06,0,0,1,13,11.06h0Z" fill="#0088cf"/><path d="M11.59,7.35a3,3,0,0,0-.33.21,2.47,2.47,0,1,1,0,4.88,3,3,0,0,0,.33.21,2.58,2.58,0,0,0,2.75-2.41,2.68,2.68,0,0,0-2.1-2.89A1.89,1.89,0,0,0,11.59,7.35Z" fill="#fff"/></svg>