<svg id="Layer_1" data-name="Layer 1" xmlns="http://www.w3.org/2000/svg" viewBox="0 0 32 32"><title>not_agree_invalid</title><circle cx="25" cy="25" r="7" fill="#d65633"/><rect x="21" y="24" width="8" height="2" fill="#fff"/><path d="M17,25a8,8,0,0,1,2-5.28V11H8V31l5.5-5L19,31V30.28A8,8,0,0,1,17,25Z" fill="#407fb9"/><circle cx="13.5" cy="10.5" r="10.5" fill="#956939"/><path d="M13.5,2.7a7.8,7.8,0,1,1-7.8,7.8,7.81,7.81,0,0,1,7.8-7.8m0-.7A8.5,8.5,0,1,0,22,10.5,8.5,8.5,0,0,0,13.5,2h0Z" fill="#fff"/></svg>