<svg width="16" height="16" viewBox="0 0 16 16" fill="none" xmlns="http://www.w3.org/2000/svg">
    <path d="M15 3H3v12h12V3z" fill="#fff"/>
    <path d="M3.5 7a.47.47 0 01-.5-.44V.44A.47.47 0 013.5 0a.47.47 0 01.5.44v6.12a.47.47 0 01-.5.44z" fill="#D59633"/>
    <path d="M6.56 4H.44A.47.47 0 010 3.48.47.47 0 01.44 3h6.12a.47.47 0 01.44.5.47.47 0 01-.44.5z" fill="#D59633"/>
    <path d="M1.5 6a.5.5 0 01-.35-.85l4-4a.502.502 0 11.71.71l-4 4A.5.5 0 011.5 6z" fill="#D59633"/>
    <path d="M5.49 6a.51.51 0 00.508-.505.5.5 0 00-.148-.355l-4-4a.502.502 0 00-.71.71l4 4a.49.49 0 00.35.15z" fill="#D59633"/>
    <path d="M3.5 4a.5.5 0 100-1 .5.5 0 000 1z" fill="#fff"/>
    <path d="M15 2H8v1h7v12H3V8H2v7a1 1 0 001 1h12a1 1 0 001-1V3a1 1 0 00-1-1z" fill="#798288"/>
    <path d="M4.5 9.5l3-2.5 2 1.5L14 5" stroke="#407FB9"/>
    <path d="M4.5 12.5l2-.5L9 13l4.5-4.5" stroke="#D65633"/>
</svg>
