<svg width="16" height="16" viewBox="0 0 16 16" fill="none" xmlns="http://www.w3.org/2000/svg">
<path d="M11.9 7.3C11.9 6.4 9.9 3.1 8 3V10H10C11.5 10 12.5 11.8 12.5 11.8C12.5 11.8 11.8 8.7 11.9 7.3Z" fill="white"/>
<path d="M16 12H9C9 12 9.5 11.1 9.6 10C11.2 10 12.2 8.5 12.2 8.5L15.4 9.8C15.7 10.1 16 10.4 16 10.8V12Z" fill="#6FA6D4"/>
<path d="M9.9 0.399902C7.5 0.499902 7.4 2.7999 7.4 2.7999C7.4 2.8999 7.4 2.9999 7.4 3.0999C7.4 6.1999 9.9 7.1999 10 8.1999C10.9 8.2999 11.3 7.6999 11.3 7.6999C11.3 7.6999 12.5 7.1999 12.5 2.7999C12.6 1.8999 11.9 0.399902 9.9 0.399902Z" fill="white"/>
<path d="M12.7 1.9C12.4 0.9 11.5 0 10 0C9.2 0 8.6 0.2 8.2 0.5C7.4 1 7.3 1.8 7.2 2.5C7.2 2.7 7.2 3 7.2 3.1C7.5 3.1 7.8 3.3 8 3.4C8 3.2 8 2.9 8 2.7C8.3 2.5 8.7 2.4 9.1 2.4C9.7 2.4 11 2.6 12 2.3C12 2.4 12 2.5 12 2.5C12.2 5.5 11.8 7.1 10 7.1C10 7.29335 10 7.9 10 7.9C12.1 7.9 12.8 6.8 12.8 2.5C12.8 2.4 12.7 1.9 12.7 1.9Z" fill="#8D9599"/>
<path d="M4.1 11.2002C4.2 12.5002 3.8 14.9002 3.5 15.7002C6.2 16.2002 8.5 15.8002 8.5 15.8002C8.5 15.8002 7.8 12.7002 7.9 11.3002C8 10.4002 7.9 9.30024 5.9 9.20024C4 9.10024 4.1 11.2002 4.1 11.2002Z" fill="white"/>
<path d="M6 9.8002C6.6 9.8002 7.1 9.9002 7.3 10.2002C7.6 10.5002 7.4 10.9002 7.4 11.2002C7.3 12.3002 7.7 14.2002 7.9 15.2002C7.4 15.3002 6.7 15.3002 5.8 15.3002C5.1 15.3002 4.6 15.4002 4 15.3002C4.3 14.2002 4.5 12.4002 4.5 11.3002C4.5 11.3002 4.5 11.3002 4.5 11.2002C4.5 11.2002 4.3 10.6002 4.6 10.2002C4.9 10.0002 5.3 9.8002 5.9 9.8002C5.9 9.8002 5.9 9.8002 6 9.8002ZM6 9.2002H5.9C3.5 9.3002 3.9 10.6002 3.9 10.6002C4 11.9002 3.5 14.9002 3.2 15.7002C4 15.9002 5 15.9002 5.8 15.9002C7.5 15.9002 8.8 15.7002 8.8 15.7002C8.8 15.7002 8 12.6002 8.2 10.6002C8.2 9.7002 7.9 9.2002 6 9.2002Z" fill="#8D9599"/>
<path d="M3.4 6.80026C3.5 8.50027 3.4 10.1003 4.4 11.5003C6 12.8003 7.3 11.6003 7.3 11.6003C7.3 11.6003 8.5 11.1003 8.5 6.70026C8.5 5.80026 7.9 4.30026 5.8 4.40026C3.5 4.50026 3.4 6.80026 3.4 6.80026Z" fill="white"/>
<path d="M8.7 5.90009C8.4 4.90009 7.5 3.90009 6 4.00009C5.2 4.00009 4.6 4.20009 4.2 4.60009C3.4 5.10009 3.3 5.90009 3.2 6.60009C3.2 8.80009 3.1 12.0001 6 12.0001C8.1 12.0001 8.8 10.9001 8.8 6.60009C8.8 6.40009 8.7 5.90009 8.7 5.90009ZM6 11.2001C3.7 11.2001 4 8.20009 4 6.70009C4.3 6.50009 4.7 6.40009 5.1 6.40009C5.7 6.40009 7 6.60009 8 6.30009C8 6.40009 8 6.50009 8 6.50009C8.2 9.50009 7.8 11.1001 6 11.2001Z" fill="#8D9599"/>
<path d="M12 16H0V14.8C0 14.4 0.2 14.1 0.6 13.8L3.7 12.6C3.7 12.6 4.4 14.1 6 14.1C7.6 14.1 8.2 12.5 8.2 12.5L11.4 13.8C11.7 14.1 12 14.4 12 14.8V16Z" fill="#6FA6D4"/>
<path d="M16 10V13H13V16H10V14H7V10H7.5H10V7H14V10H16Z" fill="white"/>
<path d="M16 11H13V8H11V11H8V13H11V16H13V13H16V11Z" fill="#75AD15"/>
</svg>
