<svg width="16" height="16" viewBox="0 0 16 16" fill="none" xmlns="http://www.w3.org/2000/svg">
    <path d="M15 2H1V13H15V2Z" fill="white"/>
    <path d="M9 3H2V12H9V3Z" fill="#DFAC62"/>
    <path d="M14 3H10V7H14V3Z" fill="#5C992B"/>
    <path d="M14 8H10V12H14V8Z" fill="#407FB9"/>
    <path d="M15 2V13H1V2H15ZM15 1H1C0.734784 1 0.48043 1.10536 0.292893 1.29289C0.105357 1.48043 0 1.73478 0 2L0 13C0 13.2652 0.105357 13.5196 0.292893 13.7071C0.48043 13.8946 0.734784 14 1 14H15C15.2652 14 15.5196 13.8946 15.7071 13.7071C15.8946 13.5196 16 13.2652 16 13V2C16 1.73478 15.8946 1.48043 15.7071 1.29289C15.5196 1.10536 15.2652 1 15 1Z" fill="#798288"/>
</svg>
