<svg width="16" height="16" viewBox="0 0 16 16" fill="none" xmlns="http://www.w3.org/2000/svg">
    <g clip-path="url(#clip0)">
        <path d="M12.7644 13C11.4968 14.8137 9.39318 16 7.01251 16C3.13957 16 -6.10352e-05 12.8604 -6.10352e-05 8.98745C-6.10352e-05 5.14452 3.09111 2.02357 6.92262 1.97544L6.92262 0L9.92262 2.5L6.92262 5V2.97554C3.64341 3.02359 0.999939 5.69681 0.999939 8.98745C0.999939 12.3081 3.69186 15 7.01251 15C8.79122 15 10.3895 14.2276 11.4904 13H12.7644Z" fill="white"/>
        <path fill-rule="evenodd" clip-rule="evenodd" d="M8.85164 7.53555L12.3872 11.0711L15.9227 7.53555L12.3872 4.00001L8.85164 7.53555ZM12.3872 9.65687L10.2659 7.53555L12.3872 5.41423L14.5085 7.53555L12.3872 9.65687Z" fill="white"/>
    </g>
    <defs>
        <clipPath id="clip0">
            <path d="M0 16L16 16L16 0L0 0L0 16Z" fill="white"/>
        </clipPath>
    </defs>
</svg>