<svg width="16" height="16" viewBox="0 0 16 16" fill="none" xmlns="http://www.w3.org/2000/svg">
    <g clip-path="url(#clip0)">
        <path fill-rule="evenodd" clip-rule="evenodd" d="M3.15833 13C4.42595 14.8137 6.52954 16 8.91021 16C12.7831 16 15.9228 12.8604 15.9228 8.98745C15.9228 5.1445 12.8316 2.02355 9.00004 1.97545L9.00004 2.06612e-05L6.00004 2.50002L9.00004 5.00002V2.97554C12.2793 3.02357 14.9228 5.6968 14.9228 8.98745C14.9228 12.3081 12.2309 15 8.91021 15C7.1315 15 5.53319 14.2276 4.43236 13L3.15833 13ZM3.53552 5.41421L5.65684 7.53553L3.53552 9.65685L1.4142 7.53553L3.53552 5.41421ZM3.53552 4L4.24263 4.70711L6.36395 6.82843L7.07106 7.53553L6.36395 8.24264L4.24263 10.364L3.53552 11.0711L2.82842 10.364L0.707095 8.24264L-1.13845e-05 7.53553L0.707095 6.82843L2.82842 4.70711L3.53552 4Z" fill="white"/>
    </g>
    <defs>
        <clipPath id="clip0">
            <path d="M0 0H16V16H0V0Z" fill="white"/>
        </clipPath>
    </defs>
</svg>