<?xml version="1.0" encoding="utf-8"?>
<svg id="Layer_1" data-name="Layer 1" viewBox="0 0 16 16" xmlns="http://www.w3.org/2000/svg">
  <title>sort_l_16</title>
  <rect x="12" width="1" height="14" y="2" style="fill: rgb(9, 99, 137);"/>
  <polygon points="12.538 0 9.038 4 16.038 4 12.538 0" style="fill: rgb(9, 99, 137);"/>
  <path d="M 1.2 15 L 5.581 15 L 5.581 16 L 0 16 L 0 15 L 4.472 10 L 0.365 10 L 0.365 9 L 5.672 9 L 5.672 10 Z" style="fill: rgb(141, 149, 153);"/>
  <path d="M 6.854 8 L 5.854 8 L 5.038 5.757 L 1.773 5.757 L 1.004 8 L 0 8 L 2.954 0 L 3.889 0 Z M 4.743 4.914 L 3.534 1.506 C 3.48 1.331 3.441 1.152 3.416 0.971 L 3.395 0.971 C 3.369 1.153 3.328 1.332 3.271 1.506 L 2.073 4.914 Z" style="fill: rgb(214, 86, 51);"/>
</svg>