<svg width="16" height="16" viewBox="0 0 16 16" fill="none" xmlns="http://www.w3.org/2000/svg">
<path d="M14.99 8.5H1.01C0.728324 8.5 0.5 8.72835 0.5 9.01V13.99C0.5 14.2717 0.728347 14.5 1.01 14.5H14.99C15.2717 14.5 15.5 14.2717 15.5 13.99V9.01C15.5 8.72832 15.2716 8.5 14.99 8.5Z" fill="white" stroke="#798288"/>
<path d="M14.99 0.5H1.01C0.728324 0.5 0.5 0.728346 0.5 1.01V5.99C0.5 6.27168 0.728347 6.5 1.01 6.5H14.99C15.2717 6.5 15.5 6.27167 15.5 5.99V1.01C15.5 0.728316 15.2716 0.5 14.99 0.5Z" fill="white" stroke="#798288"/>
<circle cx="3.5" cy="3.5" r="1.5" fill="#407FB9"/>
<circle cx="3.5" cy="11.5" r="1.5" fill="#D7853C"/>
<rect x="6" y="3" width="8" height="1" fill="#798288"/>
<rect x="6" y="11" width="8" height="1" fill="#798288"/>
</svg>