<svg width="16" height="16" viewBox="0 0 16 16" fill="none" xmlns="http://www.w3.org/2000/svg">
  <g id="calendar">
    <path id="Vector" opacity="0.05" d="M14.5333 3H1.46667C1.20893 3 1 3.22386 1 3.5V13.5C1 13.7761 1.20893 14 1.46667 14H14.5333C14.7911 14 15 13.7761 15 13.5V3.5C15 3.22386 14.7911 3 14.5333 3Z" fill="#94a1b6"/>
    <path id="Vector_2" d="M14 3V14H2V3H14ZM14 2H2C1.73478 2 1.48043 2.10536 1.29289 2.29289C1.10536 2.48043 1 2.73478 1 3V14C1 14.2652 1.10536 14.5196 1.29289 14.7071C1.48043 14.8946 1.73478 15 2 15H14C14.2652 15 14.5196 14.8946 14.7071 14.7071C14.8946 14.5196 15 14.2652 15 14V3C15 2.73478 14.8946 2.48043 14.7071 2.29289C14.5196 2.10536 14.2652 2 14 2Z" fill="#94a1b6"/>
    <path id="Vector_3" d="M14 1V2H2V1H14ZM14 0H2C1.73478 0 1.48043 0.105357 1.29289 0.292893C1.10536 0.48043 1 0.734784 1 1V3H15V1C15 0.734784 14.8946 0.48043 14.7071 0.292893C14.5196 0.105357 14.2652 0 14 0Z" fill="#94a1b6"/>
    <path id="1" d="M9 12H8V6.54552C7.75926 6.74207 7.44259 6.93863 7.05 7.13519C6.66111 7.33175 6.31111 7.47917 6 7.57745V6.75C6.55926 6.52491 7.04815 6.25226 7.46667 5.93207C7.88519 5.61187 8.18148 5.30118 8.35556 5H9V12Z" fill="#94a1b6"/>
  </g>
</svg>
