<svg id="Layer_1" data-name="Layer 1" xmlns="http://www.w3.org/2000/svg" viewBox="0 0 16 16"><title>del_16-01</title><path d="M13,3V4H2V3H13m0-1H2A1,1,0,0,0,1,3V4A1,1,0,0,0,2,5H13a1,1,0,0,0,1-1V3a1,1,0,0,0-1-1Z" fill="#9da2a5"/><path d="M9,2H9M9,1H6A1,1,0,0,0,5,2V3h5V2A1,1,0,0,0,9,1Z" fill="#9da2a5"/><path d="M11,16H4a1.5017,1.5017,0,0,1-1.5-1.5L2,6A.5.5,0,0,1,3,6l.5,8.5A.5006.5006,0,0,0,4,15h7a.5006.5006,0,0,0,.5-.5L12,6a.5.5,0,0,1,1,0l-.5,8.5A1.5017,1.5017,0,0,1,11,16Z" fill="#9da2a5"/><rect x="7" y="7" width="1" height="7" rx="0.5" ry="0.5" fill="#9da2a5"/><rect x="5" y="7" width="1" height="7" rx="0.5" ry="0.5" fill="#9da2a5"/><rect x="9" y="7" width="1" height="7" rx="0.5" ry="0.5" fill="#9da2a5"/></svg>