<svg xmlns="http://www.w3.org/2000/svg" width="16" height="16" viewBox="0 0 16 16" fill="#13406d">
    <g id="checkbox-checked">
        <path fill-rule="evenodd" clip-rule="evenodd" d="M2 1C1.44772 1 1 1.44772 1 2V14C1 14.5523 1.44772 15 2 15H14C14.5523 15 15 14.5523 15 14V2C15 1.44772 14.5523 1 14 1H2ZM6.48619 11.791C6.65902 11.9283 6.8751 12.0022 7.09731 12V11.9869H7.20359C7.33055 11.9738 7.45355 11.9358 7.56535 11.8753C7.67715 11.8147 7.77549 11.7327 7.85457 11.6342L13.4211 4.51531C13.5761 4.31784 13.645 4.06791 13.6127 3.8205C13.5803 3.57309 13.4492 3.34846 13.2484 3.19603C13.0476 3.0436 12.7934 2.97585 12.5417 3.0077C12.2901 3.03954 12.0616 3.16837 11.9066 3.36584L6.89803 9.72713L4.62048 7.26185C4.52539 7.1717 4.41234 7.1019 4.28845 7.05683C4.16457 7.01176 4.03253 6.99241 3.90066 7C3.76879 7.00759 3.63995 7.04195 3.52225 7.10091C3.40456 7.15988 3.30056 7.24217 3.21681 7.34261C3.13306 7.44305 3.07138 7.55946 3.03565 7.68449C2.99992 7.80953 2.99092 7.94048 3.00921 8.06911C3.0275 8.19773 3.0727 8.32124 3.14194 8.43185C3.21118 8.54245 3.30297 8.63776 3.41152 8.71176L6.48619 11.791Z" stroke="none"></path>
    </g>
</svg>
