<svg id="Слой_1" data-name="Слой 1" xmlns="http://www.w3.org/2000/svg" viewBox="0 0 16 16"><title>Clear-column-filter_16</title><path d="M15.86,15.15l-2.65-2.71,2.64-2.58a.5.5,0,1,0-.7-.72L12.5,11.73,9.85,9.14a.5.5,0,1,0-.7.72l2.64,2.58L9.14,15.15a.5.5,0,0,0,0,.71A.52.52,0,0,0,9.5,16a.51.51,0,0,0,.36-.15l2.64-2.71,2.64,2.71a.51.51,0,0,0,.36.15.52.52,0,0,0,.35-.14A.5.5,0,0,0,15.86,15.15Z" fill="#d65633"/><polygon points="1 1 1 3 6 8 6 15 8 15 8 14 7 14 7 8 7 7.59 6.71 7.29 2 2.59 2 2 14 2 14 2.59 9.29 7.29 9 7.59 9 8 10 8 15 3 15 1 1 1" fill="#9da2a5"/></svg>