<svg viewBox="0 0 16 16" fill="#798288" stroke="#798288" xmlns="http://www.w3.org/2000/svg">
  <g id="close">
    <path d="M13.3286 14C13.142 13.9846 12.9684 13.8974 12.8442 13.7566L2.18691 3.04507C2.12215 2.90879 2.10102 2.75568 2.12643 2.60683C2.15184 2.45798 2.22254 2.3207 2.32879 2.21391C2.43505 2.10712 2.57163 2.03606 2.71973 2.01052C2.86783 1.98498 3.02016 2.00622 3.15576 2.0713L13.8131 12.7828C13.904 12.8842 13.9648 13.0091 13.9887 13.1435C14.0125 13.2779 13.9985 13.4163 13.948 13.543C13.8976 13.6698 13.8128 13.7798 13.7033 13.8605C13.5939 13.9413 13.4641 13.9896 13.3286 14Z" stroke="none"/>
    <path d="M2.67135 14C2.53593 13.9896 2.40613 13.9413 2.29665 13.8605C2.18717 13.7798 2.10241 13.6698 2.05197 13.543C2.00153 13.4163 1.98744 13.2779 2.0113 13.1435C2.03515 13.0091 2.09599 12.8842 2.18692 12.7828L12.8442 2.0713C12.9798 2.00622 13.1322 1.98498 13.2803 2.01052C13.4284 2.03606 13.5649 2.10712 13.6712 2.21391C13.7774 2.3207 13.8481 2.45798 13.8736 2.60683C13.899 2.75568 13.8778 2.90879 13.8131 3.04507L3.15577 13.7566C3.03154 13.8974 2.858 13.9846 2.67135 14Z" stroke="none"/>
  </g>
</svg>
