<svg width="16" height="16" viewBox="0 0 16 16" fill="none" xmlns="http://www.w3.org/2000/svg">
<g id="createversionfromfile_16">
<g id="old">
<path id="Vector" d="M7 0H1C0.447715 0 0 0.447715 0 1V7C0 7.55228 0.447715 8 1 8H7C7.55228 8 8 7.55228 8 7V1C8 0.447715 7.55228 0 7 0Z" fill="#D65633"/>
<path id="Vector_2" d="M7 9H2C1.44772 9 1 9.44772 1 10V15C1 15.5523 1.44772 16 2 16H7C7.55228 16 8 15.5523 8 15V10C8 9.44772 7.55228 9 7 9Z" fill="#407FB9"/>
<path id="Vector_3" d="M14 2H10C9.44772 2 9 2.44772 9 3V7C9 7.55228 9.44772 8 10 8H14C14.5523 8 15 7.55228 15 7V3C15 2.44772 14.5523 2 14 2Z" fill="#6FB205"/>
<path id="Vector_4" d="M14 9H10C9.44772 9 9 9.44772 9 10V14C9 14.5523 9.44772 15 10 15H14C14.5523 15 15 14.5523 15 14V10C15 9.44772 14.5523 9 14 9Z" fill="#DFAA1A"/>
</g>
</g>
</svg>
