<svg viewBox="0 0 13 16" fill="none" xmlns="http://www.w3.org/2000/svg">
<path fill-rule="evenodd" clip-rule="evenodd" d="M12 1H1C0.4 1 0 1.4 0 2V3C0 3.6 0.4 4 1 4V14C1 15.1046 1.89543 16 3 16H10C11.1046 16 12 15.1046 12 14L12 4C12.6 4 13 3.6 13 3V2C13 1.4 12.6 1 12 1Z" fill="white"/>
<path fill-rule="evenodd" clip-rule="evenodd" d="M5 0C4.4 0 4 0.4 4 1H1C0.4 1 0 1.4 0 2V3C0 3.6 0.4 4 1 4V14C1 15.1046 1.89543 16 3 16H10C11.1046 16 12 15.1046 12 14L12 4C12.6 4 13 3.6 13 3V2C13 1.4 12.6 1 12 1H9C9 0.4 8.6 0 8 0H5ZM1 2H12V3H11H2H1V2ZM11 4H2V14C2 14.5523 2.44772 15 3 15H10C10.5523 15 11 14.5523 11 14V4ZM4 6H5V13H4V6ZM6 6H7V13H6V6ZM9 6H8V13H9V6Z" fill="#798288"/>
</svg>