<svg id="Layer_1" data-name="Layer 1" xmlns="http://www.w3.org/2000/svg" viewBox="0 0 16 16"><title>delete_16</title><polygon points="9 13 2 13 2 0 11 0 11 11 9 13" fill="#fff"/><path d="M6,13H2V1h9V8l1-1V1a1,1,0,0,0-1-1H2A1,1,0,0,0,1,1V13a1,1,0,0,0,1,1H5Z" fill="#798288"/><path d="M15.15,16a.847.847,0,0,1-.6011-.249L6.249,7.45A.85.85,0,0,1,7.4512,6.249l8.3,8.3008A.85.85,0,0,1,15.15,16Z" fill="#576672"/><path d="M6.85,16a.85.85,0,0,1-.6011-1.45l8.3-8.3008A.85.85,0,0,1,15.751,7.45l-8.3,8.3008A.847.847,0,0,1,6.85,16Z" fill="#576672"/></svg>