<svg width="16" height="16" viewBox="0 0 16 16" fill="#6FA6D4" xmlns="http://www.w3.org/2000/svg">
  <g id="5e11bf6d-c141-407c-a5a2-76cdb664e005">
    <path fill-rule="evenodd" clip-rule="evenodd" d="M12 7L12 13L7.5 13L3 13L3 4L7.5 4L9 4L9 3L7.5 3L3 3C2.44772 3 2 3.44772 2 4L2 13C2 13.5523 2.44772 14 3 14L7.5 14L12 14C12.5523 14 13 13.5523 13 13L13 7L12 7Z" stroke="none"/>
    <path fill-rule="evenodd" clip-rule="evenodd" d="M15.9971 0.751111L15.9971 0.00108862L15.2471 0.00108818L10.9979 0.0010855L10.9979 1.50113L13.4363 1.50113L8.00086 6.9368L9.06154 7.99744L14.4971 2.56163L14.4971 5.00048L15.9971 5.00048L15.9971 0.751111Z" stroke="none"/>
  </g>
</svg>