<svg width="16" height="16" viewBox="0 0 16 16" fill="none" xmlns="http://www.w3.org/2000/svg">
    <path fill-rule="evenodd" clip-rule="evenodd" d="M14.3056 0.296739L15.7197 1.67644C15.9007 1.86316 16.0014 2.11391 16.0002 2.37461C15.9989 2.6353 15.8957 2.88504 15.7128 3.06995L14.9165 3.87017C14.8907 3.80874 14.8507 3.75436 14.7998 3.71151L12.1707 1.04868L12.1089 1.00729L12.8778 0.310539C13.0613 0.126458 13.3054 0.0160632 13.5642 0.000101953C13.8166 -0.00348153 14.0613 0.0875124 14.2507 0.255349L14.3056 0.296739ZM11.2281 2.03773L13.8572 4.71436C13.9112 4.76504 13.9775 4.8007 14.0494 4.81784L7.53522 11.3102L4 12.0001L4.68645 8.44736L11.1869 1.97564C11.1987 1.99756 11.2125 2.01835 11.2281 2.03773Z" fill="#DFAA1A"/>
    <path fill-rule="evenodd" clip-rule="evenodd" d="M8 3H1V15H13V8H14V15C14 15.5523 13.5523 16 13 16H1C0.447716 16 0 15.5523 0 15V3C0 2.44772 0.447716 2 1 2H8V3Z" fill="#798288"/>
</svg>
