<svg width="16" height="16" viewBox="0 0 16 16" fill="none" xmlns="http://www.w3.org/2000/svg">
<g clip-path="url(#clip0_25315_2377)">
<path d="M10.3352 0.309529C10.7064 -0.0793051 11.3185 -0.105153 11.7211 0.251008L13.221 1.5778C13.6462 1.95394 13.6734 2.60818 13.2808 3.01827L3.27504 13.4716L0 14.1131L0.5 10.6131L10.3352 0.309529Z" fill="white"/>
<path fill-rule="evenodd" clip-rule="evenodd" d="M12.5584 2.3268L11.0586 1.00001L1.44463 11.0717L1.18899 12.8612L2.7718 12.5512L5.102 10.1168C5.16693 10.5047 5.26259 10.888 5.38825 11.2639L3.27504 13.4716L0 14.1131L0.5 10.6131L10.3352 0.309529C10.7064 -0.0793051 11.3185 -0.105153 11.7211 0.251008L13.221 1.5778C13.6462 1.95394 13.6734 2.60818 13.2808 3.01827L13.0607 3.2482C12.9496 3.20436 12.8355 3.166 12.719 3.13339C12.456 3.05973 12.1842 3.01636 11.9104 3.00382L12.5584 2.3268Z" fill="#D7853C"/>
<path d="M10 3L9 2" stroke="#D7853C"/>
<path d="M9.84004 9.73999C9.82963 10.8625 10.1959 10.9187 9.8943 12C11.38 12.3704 12.5 12.5 13.63 13.06C13.3422 11.9784 13.1745 10.8684 13.13 9.74999C13.13 9.08999 12.92 8.16999 11.38 8.21999C11.1719 8.18623 10.9588 8.20205 10.7579 8.26617C10.5571 8.33029 10.3742 8.44089 10.2241 8.589C10.0741 8.73711 9.96108 8.91854 9.89434 9.11853C9.82761 9.31853 9.809 9.53145 9.84004 9.73999Z" fill="white"/>
<path fill-rule="evenodd" clip-rule="evenodd" d="M12.08 9.76998C12.09 9.54998 11.94 8.67998 11.48 8.67998L11.49 8.64998H11.4C11.1371 8.64998 11.0456 9.00675 10.9718 9.29409C10.9221 9.48782 10.8805 9.64998 10.8 9.64998C10.7936 10.2927 10.5731 10.8729 10.3493 11.4621C10.2774 11.6513 10.2051 11.8414 10.1395 12.0349L10 12V12.5V12.7758C9.81854 12.7112 9.63848 12.6426 9.45996 12.57C9.78807 11.3335 9.95281 10.0593 9.94996 8.77998C9.94996 8.77998 9.59996 8.17998 11.39 8.17998H11.49V8.16998C12.94 8.16998 13.08 8.58998 13.08 9.22998C13.0568 10.4646 13.2125 11.6959 13.5419 12.8855L12.4811 12.6203C12.2624 11.6841 12.1282 10.7302 12.08 9.76998Z" fill="#8D9599"/>
<path fill-rule="evenodd" clip-rule="evenodd" d="M13.9497 14H16V12.5C15.9787 12.3544 15.9256 12.2152 15.8443 12.0925C15.7631 11.9698 15.6558 11.8665 15.53 11.79L13.12 10.91C13.12 10.91 12.9042 11.959 12.3552 12.5707L12.8462 12.7548C13.2664 12.9124 13.6116 13.2231 13.8123 13.6246C13.8723 13.7445 13.9183 13.8705 13.9497 14ZM10 14V13L9.5 11.5L10.0581 11.7093C9.88235 11.3229 9.8 11 9.8 11L7.47 11.79C7.3355 11.8557 7.22101 11.9562 7.13837 12.081C7.05574 12.2059 7.00797 12.3505 7 12.5V14H10Z" fill="#5C992B"/>
<path d="M9.04606 6.22697C8.87052 7.68196 9.19986 9.15264 9.98052 10.3999C10.337 10.7538 10.8133 10.966 11.3185 10.9963C11.8237 11.0265 12.3225 10.8726 12.7199 10.5638C12.7199 10.5638 13.7824 9.93347 14 6.21437C13.9993 5.8978 13.9299 5.58504 13.7964 5.29708C13.6629 5.00912 13.4683 4.75264 13.2258 4.54486C12.9833 4.33707 12.6985 4.1828 12.3904 4.0924C12.0824 4.002 11.7583 3.97756 11.4398 4.02073C11.1347 4.00721 10.8299 4.05393 10.5433 4.15811C10.2568 4.2623 9.99426 4.42187 9.77123 4.62742C9.5482 4.83298 9.36916 5.08038 9.24462 5.35507C9.12009 5.62977 9.05257 5.92621 9.04606 6.22697Z" fill="white"/>
<path d="M6.84 11.74C6.82959 12.8625 6.67156 13.9787 6.37 15.06C7.78276 15.2627 9.21723 15.2627 10.63 15.06C10.3421 13.9784 10.1744 12.8684 10.13 11.75C10.13 11.09 9.92 10.17 8.38 10.22C8.17188 10.1862 7.95873 10.202 7.75788 10.2662C7.55703 10.3303 7.37414 10.4409 7.22408 10.589C7.07402 10.7371 6.96103 10.9185 6.8943 11.1185C6.82756 11.3185 6.80895 11.5315 6.84 11.74Z" fill="white"/>
<path d="M8.47996 10.68C8.93996 10.68 9.08996 11.55 9.07996 11.77C9.12952 12.7575 9.27012 13.7383 9.49996 14.7C9.09996 14.7 9.16996 15.49 8.49996 15.49C7.99996 15.49 7.83996 14.7 7.40996 14.65C7.65903 13.6691 7.78995 12.6619 7.79996 11.65C7.99996 11.65 7.95996 10.65 8.39996 10.65H8.48996L8.47996 10.68ZM8.48996 10.18H8.38996C6.59996 10.18 6.94996 10.78 6.94996 10.78C6.95281 12.0593 6.78807 13.3335 6.45996 14.57C7.07997 14.8222 7.71854 15.0261 8.36996 15.18C9.10954 15.1806 9.84818 15.1271 10.58 15.02C10.2245 13.7888 10.056 12.5112 10.08 11.23C10.08 10.59 9.93996 10.17 8.48996 10.17V10.18Z" fill="#8D9599"/>
<path d="M6.58005 8.44997C6.44292 9.60407 6.7002 10.7706 7.31005 11.76C7.58855 12.0406 7.96059 12.209 8.35526 12.233C8.74993 12.257 9.13962 12.1349 9.45005 11.89C9.45005 11.89 10.28 11.39 10.45 8.43997C10.4495 8.18887 10.3953 7.94079 10.291 7.71238C10.1867 7.48397 10.0347 7.28053 9.84525 7.11571C9.65581 6.9509 9.4333 6.82853 9.19265 6.75682C8.95201 6.68512 8.6988 6.66573 8.45005 6.69997C8.21167 6.68925 7.97355 6.72631 7.7497 6.80895C7.52585 6.89159 7.32078 7.01816 7.14655 7.18121C6.97232 7.34425 6.83245 7.54049 6.73516 7.75838C6.63788 7.97627 6.58514 8.21141 6.58005 8.44997Z" fill="white"/>
<path fill-rule="evenodd" clip-rule="evenodd" d="M11.5 4H11.59C13.34 4 14 5.13 14 5.94C14 8.57085 13.599 10.9474 11.5681 10.9991C11.6474 10.7017 11.7204 10.37 11.7838 10.0002C13.1161 9.87271 13.0762 7.27522 13 6C12.4128 6.08076 11.8181 6.09005 11.2292 6.02785C11.1315 5.92495 11.0257 5.82799 10.9124 5.73777C10.5673 5.46301 10.1605 5.25698 9.71906 5.13339C9.58696 5.0964 9.45267 5.06705 9.31702 5.0454C9.66505 4.52957 10.3332 4.06975 11.5 4Z" fill="#8D9599"/>
<path d="M8.59 6H8.5C6.66 6.11 6.06 7.19 6 7.93C6 8 6 8.06 6 8.12C6 10.45 6.41 13 8.5 13C10.59 13 11 10.6 11 7.94C11 7.13 10.34 6 8.59 6ZM8.59 12C8.25 12 6.94 12.12 7.01 8.6C7.11103 8.42462 7.25477 8.27763 7.42787 8.17273C7.60096 8.06782 7.79777 8.0084 8 8C8.66354 8.09125 9.33646 8.09125 10 8C10.08 9.34 10.12 12.14 8.57 12H8.59Z" fill="#8D9599"/>
<path d="M13 16H4L4 14.59C4.00797 14.4405 4.05574 14.2959 4.13837 14.171C4.22101 14.0462 4.3355 13.9457 4.47 13.88L6.8 13.09C6.8 13.09 7.31 15.09 8.5 15.09C9.69 15.09 10.12 13 10.12 13L12.53 13.88C12.6558 13.9565 12.7631 14.0597 12.8443 14.1825C12.9256 14.3052 12.9787 14.4444 13 14.59V16Z" fill="#407FB9"/>
</g>
<defs>
<clipPath id="clip0_25315_2377">
<rect width="16" height="16" fill="white"/>
</clipPath>
</defs>
</svg>
