<svg width="16" height="16" viewBox="0 0 16 16" fill="none" xmlns="http://www.w3.org/2000/svg">
<path d="M14.7407 9.78156L13.3624 8.73414C13.3986 8.49566 13.4179 8.25506 13.4202 8.01403C13.4179 7.77299 13.3986 7.53239 13.3624 7.29392L14.7407 6.24649C14.8439 6.1879 14.919 6.0921 14.9497 5.97998C14.9804 5.86786 14.9642 5.74852 14.9046 5.64796L13.5744 3.33801C13.514 3.23789 13.4153 3.16499 13.2997 3.13521C13.1842 3.10543 13.0612 3.12118 12.9575 3.17903L11.3189 3.83367C10.9277 3.53771 10.4963 3.2954 10.037 3.11356L9.80564 1.4676C9.8096 1.40756 9.80081 1.34738 9.77983 1.29077C9.75884 1.23416 9.7261 1.18233 9.68363 1.1385C9.64116 1.09466 9.58987 1.05975 9.53293 1.03593C9.47599 1.01211 9.41462 0.999878 9.35262 1H6.63447C6.57328 1.00114 6.51296 1.0143 6.45716 1.03868C6.40135 1.06307 6.35122 1.09817 6.30978 1.14187C6.26835 1.18557 6.23647 1.23696 6.21606 1.29295C6.19566 1.34893 6.18717 1.40834 6.19108 1.4676L5.95011 3.14162C5.49077 3.32346 5.0594 3.56577 4.66815 3.86172L3.02955 3.20708C2.92939 3.14672 2.80891 3.12663 2.69372 3.15108C2.57853 3.17553 2.47771 3.24259 2.41267 3.33801L1.05359 5.64796C1.02521 5.69943 1.00767 5.75587 1.00201 5.81399C0.996349 5.8721 1.00268 5.93073 1.02062 5.98645C1.03857 6.04217 1.06777 6.09386 1.10653 6.13851C1.14529 6.18315 1.19283 6.21986 1.24637 6.24649L2.62472 7.29392C2.59173 7.53261 2.57563 7.77321 2.57653 8.01403C2.57882 8.25506 2.59815 8.49566 2.63436 8.73414L1.24637 9.78156C1.14318 9.84016 1.06805 9.93596 1.03735 10.0481C1.00666 10.1602 1.02289 10.2795 1.08251 10.3801L2.41267 12.69C2.47306 12.7902 2.57179 12.8631 2.68735 12.8928C2.80291 12.9226 2.92591 12.9069 3.02955 12.849L4.66815 12.1944C5.0594 12.4903 5.49077 12.7327 5.95011 12.9145L6.19108 14.5605C6.19108 14.677 6.23881 14.7888 6.32377 14.8713C6.40873 14.9537 6.52396 15 6.64411 15H9.35262C9.47277 15 9.588 14.9537 9.67295 14.8713C9.75791 14.7888 9.80564 14.677 9.80564 14.5605L10.037 12.8584C10.4963 12.6765 10.9277 12.4342 11.3189 12.1383L12.9575 12.7929C13.0542 12.8561 13.1723 12.8806 13.2872 12.8615C13.4021 12.8423 13.505 12.7809 13.5744 12.69L14.9335 10.4082C14.9666 10.3555 14.988 10.2967 14.9962 10.2356C15.0044 10.1744 14.9993 10.1123 14.9811 10.0532C14.9629 9.99406 14.9321 9.93934 14.8907 9.89255C14.8493 9.84575 14.7982 9.80794 14.7407 9.78156ZM7.99354 10.352C7.51695 10.352 7.05106 10.2149 6.65478 9.95801C6.25851 9.70111 5.94965 9.33596 5.76727 8.90875C5.58488 8.48153 5.53716 8.01144 5.63014 7.55791C5.72312 7.10438 5.95262 6.68778 6.28962 6.36081C6.62663 6.03383 7.056 5.81116 7.52343 5.72094C7.99087 5.63073 8.47538 5.67703 8.9157 5.85399C9.35601 6.03095 9.73236 6.33062 9.99714 6.7151C10.2619 7.09958 10.4032 7.55161 10.4032 8.01403C10.4032 8.63411 10.1494 9.22879 9.69746 9.66725C9.24555 10.1057 8.63264 10.352 7.99354 10.352Z" fill="white" stroke="#96A3B8"/>
</svg>