<svg width="16" height="16" viewBox="0 0 16 16" fill="none" xmlns="http://www.w3.org/2000/svg">
<g clip-path="url(#clip0_25329_2506)">
<path d="M13.5 0.359985L15.54 2.66999L3.79 14.73L0.380005 15.42L1.27 11.88L12.77 0.579985L13.5 0.359985Z" fill="white"/>
<path fill-rule="evenodd" clip-rule="evenodd" d="M13.28 1H13.18C13.1357 1.00998 13.0945 1.03057 13.06 1.06L1.74 12.38L1.27 14.73L3.62 14.26L6 11.8547V13.3L4.12 15.18L0 16L0.82 11.88L12.36 0.36C12.5789 0.142041 12.8714 0.0136614 13.18 0C13.461 0.00630254 13.7305 0.112684 13.94 0.3V0.31L14 0.36L15.65 2.02C15.7573 2.12685 15.8425 2.25386 15.9006 2.39372C15.9587 2.53358 15.9887 2.68354 15.9887 2.835C15.9887 2.98646 15.9587 3.13642 15.9006 3.27628C15.8425 3.41614 15.7573 3.54315 15.65 3.65L13.3 6H11.793L14.89 2.87C15.028 2.75172 14.9911 2.71116 14.8943 2.60468L14.89 2.6L13.28 1Z" fill="#D7853C"/>
<path d="M14 4.47L11.53 2" stroke="#D7853C"/>
<rect x="10" y="13" width="3" height="3" rx="1" fill="#798288"/>
<rect x="7.5" y="7.5" width="8" height="6" rx="0.5" fill="white" stroke="#6FA6D4"/>
<rect x="9" y="15" width="5" height="1" rx="0.5" fill="#6FA6D4"/>
</g>
<defs>
<clipPath id="clip0_25329_2506">
<rect width="16" height="16" fill="white"/>
</clipPath>
</defs>
</svg>
