<svg width="100" height="100" viewBox="0 0 100 100" fill="none" xmlns="http://www.w3.org/2000/svg">
<circle cx="50" cy="50" r="42" fill="#E9F4FF" fill-opacity="0.5"/>
<circle cx="50" cy="50" r="33" fill="#E9F4FF" fill-opacity="0.5"/>
<rect x="69" y="13" width="5" height="18" fill="#407FB9"/>
<rect x="76" y="19" width="5" height="12" fill="#E0AD5C"/>
<rect x="83" y="6" width="5" height="25" fill="#5C992B"/>
<rect x="90" y="25" width="5" height="6" fill="#C0CDDC"/>
<rect x="17" y="15" width="44" height="41" rx="5" fill="white" stroke="#C0CDDC" stroke-width="2"/>
<mask id="mask0" mask-type="alpha" maskUnits="userSpaceOnUse" x="16" y="14" width="46" height="43">
<rect x="17" y="15" width="44" height="41" rx="5" fill="white" stroke="#C0CDDC" stroke-width="2"/>
</mask>
<g mask="url(#mask0)">
<rect x="39" y="35" width="46" height="45" rx="7" fill="#C0CDDC" fill-opacity="0.3"/>
</g>
<path d="M22.0002 35.5001C22.0002 34.6716 22.6718 34.0001 23.5002 34.0001H34.5002C35.3287 34.0001 36.0002 34.6716 36.0002 35.5001C36.0002 36.3285 35.3287 37.0001 34.5002 37.0001H23.5002C22.6718 37.0001 22.0002 36.3285 22.0002 35.5001Z" fill="#5C992B"/>
<path d="M22.0001 41.5001C22.0001 40.6716 22.6717 40.0001 23.5001 40.0001H30.5001C31.3285 40.0001 32.0001 40.6716 32.0001 41.5001C32.0001 42.3285 31.3285 43.0001 30.5001 43.0001H23.5001C22.6717 43.0001 22.0001 42.3285 22.0001 41.5001Z" fill="#5C992B"/>
<path d="M53.4087 43.7742C53.4087 42.9309 54.0923 42.2473 54.9356 42.2473C55.7788 42.2473 56.4625 42.9309 56.4625 43.7742C56.4625 44.6175 55.7788 45.3011 54.9356 45.3011C54.0923 45.3011 53.4087 44.6175 53.4087 43.7742Z" fill="url(#paint0_linear)"/>
<path d="M22.0002 47.5001C22.0002 46.6716 22.6718 46.0001 23.5002 46.0001H35.5002C36.3287 46.0001 37.0002 46.6716 37.0002 47.5001C37.0002 48.3285 36.3287 49.0001 35.5002 49.0001H23.5002C22.6718 49.0001 22.0002 48.3285 22.0002 47.5001Z" fill="#5C992B"/>
<path d="M54.1721 49.8817C54.1721 49.0385 54.8557 48.3549 55.699 48.3549C56.5423 48.3549 57.2259 49.0385 57.2259 49.8817C57.2259 50.725 56.5423 51.4086 55.699 51.4086C54.8557 51.4086 54.1721 50.725 54.1721 49.8817Z" fill="url(#paint1_linear)"/>
<path d="M22 29.5001C22 28.6716 22.6716 28.0001 23.5 28.0001H45.5C46.3284 28.0001 47 28.6716 47 29.5001C47 30.3285 46.3284 31.0001 45.5 31.0001H23.5C22.6716 31.0001 22 30.3285 22 29.5001Z" fill="#5C992B"/>
<path d="M53 29.5001C53 28.6716 53.6716 28.0001 54.5 28.0001C55.3284 28.0001 56 28.6716 56 29.5001C56 30.3285 55.3284 31.0001 54.5 31.0001C53.6716 31.0001 53 30.3285 53 29.5001Z" fill="#DAE3ED"/>
<path d="M22 23.5001C22 22.6716 22.6716 22.0001 23.5 22.0001H39.5C40.3284 22.0001 41 22.6716 41 23.5001C41 24.3285 40.3284 25.0001 39.5 25.0001H23.5C22.6716 25.0001 22 24.3285 22 23.5001Z" fill="#5C992B"/>
<path d="M53 23.5001C53 22.6716 53.6716 22.0001 54.5 22.0001C55.3284 22.0001 56 22.6716 56 23.5001C56 24.3285 55.3284 25.0001 54.5 25.0001C53.6716 25.0001 53 24.3285 53 23.5001Z" fill="#DAE3ED"/>
<rect x="42" y="38" width="44" height="42" rx="5" fill="white" stroke="#C0CDDC" stroke-width="2"/>
<path d="M56 45.5C56 44.6716 56.6716 44 57.5 44H79.5C80.3284 44 81 44.6716 81 45.5C81 46.3284 80.3284 47 79.5 47H57.5C56.6716 47 56 46.3284 56 45.5Z" fill="#E0AD5C"/>
<path d="M46 45.5C46 44.6716 46.6716 44 47.5 44H51.5C52.3284 44 53 44.6716 53 45.5C53 46.3284 52.3284 47 51.5 47H47.5C46.6716 47 46 46.3284 46 45.5Z" fill="#C0CDDC"/>
<path d="M55 54.5C55 53.6716 55.6716 53 56.5 53H77.5C78.3284 53 79 53.6716 79 54.5C79 55.3284 78.3284 56 77.5 56H56.5C55.6716 56 55 55.3284 55 54.5Z" fill="#E0AD5C"/>
<path d="M46 54.5C46 53.6716 46.6716 53 47.5 53H51.5C52.3284 53 53 53.6716 53 54.5C53 55.3284 52.3284 56 51.5 56H47.5C46.6716 56 46 55.3284 46 54.5Z" fill="#C0CDDC"/>
<path d="M55 62.5C55 61.6716 55.6716 61 56.5 61H73.5C74.3284 61 75 61.6716 75 62.5C75 63.3284 74.3284 64 73.5 64H56.5C55.6716 64 55 63.3284 55 62.5Z" fill="#E0AD5C"/>
<path d="M46 62.5C46 61.6716 46.6716 61 47.5 61H51.5C52.3284 61 53 61.6716 53 62.5C53 63.3284 52.3284 64 51.5 64H47.5C46.6716 64 46 63.3284 46 62.5Z" fill="#C0CDDC"/>
<path d="M55 71.5C55 70.6716 55.6716 70 56.5 70H64.5C65.3284 70 66 70.6716 66 71.5C66 72.3284 65.3284 73 64.5 73H56.5C55.6716 73 55 72.3284 55 71.5Z" fill="#E0AD5C"/>
<path d="M46 71.5C46 70.6716 46.6716 70 47.5 70H51.5C52.3284 70 53 70.6716 53 71.5C53 72.3284 52.3284 73 51.5 73H47.5C46.6716 73 46 72.3284 46 71.5Z" fill="#C0CDDC"/>
<path d="M17.4933 66.2549L11.4783 53.0172C7.08497 55.0095 4.20726 58.6071 3.23967 63.3423L17.4933 66.2549Z" fill="#407FB9"/>
<path d="M19.0973 64.9879L26.3213 52.3128C22.1184 49.9591 17.4757 49.7579 13.0823 51.7502L19.0973 64.9879Z" fill="#DAE3ED"/>
<path d="M19.524 68.2641L5.27036 65.3516C3.65772 73.2437 8.71936 80.9051 16.6115 82.5177C24.5036 84.1304 32.165 79.0687 33.7777 71.1766C35.0678 64.8629 32.2783 58.762 26.6904 55.6271L19.524 68.2641Z" fill="#CAE4FF"/>
<path d="M19.0974 64.9879L26.3214 52.3128C22.1185 49.9591 17.4758 49.7579 13.0824 51.7502L19.0974 64.9879Z" fill="#E0AD5C"/>
<defs>
<linearGradient id="paint0_linear" x1="56.4625" y1="43.7742" x2="54.411" y2="43.7742" gradientUnits="userSpaceOnUse">
<stop offset="0.0349304" stop-color="#EDEDED"/>
<stop offset="1" stop-color="#F4F4F4"/>
</linearGradient>
<linearGradient id="paint1_linear" x1="57.2259" y1="49.8817" x2="55.1744" y2="49.8817" gradientUnits="userSpaceOnUse">
<stop offset="0.0349304" stop-color="#EDEDED"/>
<stop offset="1" stop-color="#F4F4F4"/>
</linearGradient>
</defs>
</svg>
