<svg width="16" height="16" viewBox="0 0 16 16" fill="none" xmlns="http://www.w3.org/2000/svg">
<g clip-path="url(#clip0_20320_13959)">
<path d="M10.5 11C13.5376 11 16 8.53757 16 5.5C16 2.46243 13.5376 0 10.5 0C7.46243 0 5 2.46243 5 5.5C5 6.42935 5.2305 7.30486 5.63745 8.07249L6.24288 7.46706C6.26906 7.43775 6.29476 7.40965 6.31997 7.38274C6.06087 6.80837 5.91667 6.17103 5.91667 5.5C5.91667 2.96869 7.96869 0.916667 10.5 0.916667C13.0313 0.916667 15.0833 2.96869 15.0833 5.5C15.0833 8.03131 13.0313 10.0833 10.5 10.0833C9.82657 10.0833 9.18706 9.9381 8.61109 9.67723L7.92637 10.3619C8.69427 10.7693 9.57019 11 10.5 11Z" fill="#798288"/>
<path d="M5.22632 7.06659L0 12.2929V15.3C0 15.6866 0.313401 16 0.7 16H3.08579C3.48361 16 3.86514 15.842 4.14645 15.5607L8.93343 10.7737C8.58285 10.6697 8.24688 10.5317 7.92936 10.3635L3.43934 14.8536C3.34557 14.9473 3.21839 15 3.08579 15H1V12.7071L5.63647 8.07065C5.4683 7.75313 5.3303 7.41717 5.22632 7.06659Z" fill="#798288"/>
<path d="M13.5 4C13.5 4.82843 12.8284 5.5 12 5.5C11.1716 5.5 10.5 4.82843 10.5 4C10.5 3.17157 11.1716 2.5 12 2.5C12.8284 2.5 13.5 3.17157 13.5 4Z" fill="#798288"/>
<path d="M1.99999 13.35C1.93003 13.351 1.86137 13.331 1.80287 13.2927C1.74438 13.2543 1.69873 13.1992 1.67182 13.1346C1.64491 13.0701 1.63797 12.9989 1.65191 12.9303C1.66584 12.8618 1.7 12.799 1.74999 12.75L6.74999 7.74999C6.81496 7.68369 6.90362 7.64591 6.99645 7.64498C7.08928 7.64404 7.17868 7.68002 7.24499 7.74499C7.31129 7.80997 7.34907 7.89863 7.35 7.99146C7.35094 8.08429 7.31496 8.17369 7.24999 8.23999L2.24999 13.24C2.21782 13.2742 2.17911 13.3015 2.13616 13.3204C2.09321 13.3393 2.0469 13.3494 1.99999 13.35Z" fill="#798288"/>
</g>
<defs>
<clipPath id="clip0_20320_13959">
<rect width="16" height="16" fill="white"/>
</clipPath>
</defs>
</svg>
