<svg width="16" height="16" viewBox="0 0 16 16" fill="none" xmlns="http://www.w3.org/2000/svg">
<path d="M10.5 6.02718e-07C9.59665 -0.000422258 8.70711 0.221667 7.90997 0.646644C7.11283 1.07162 6.43264 1.6864 5.9295 2.43666C5.42636 3.18692 5.11577 4.04956 5.02516 4.94835C4.93455 5.84714 5.06673 6.75442 5.41 7.59L0 13V15.5C0 15.6326 0.0526784 15.7598 0.146447 15.8536C0.240215 15.9473 0.367392 16 0.5 16H3L8.41 10.59C9.16149 10.8976 9.97179 11.0351 10.7827 10.9924C11.5936 10.9497 12.385 10.728 13.1001 10.3432C13.8151 9.95844 14.4361 9.42007 14.9184 8.7668C15.4007 8.11354 15.7324 7.36157 15.8896 6.56491C16.0469 5.76825 16.0257 4.94666 15.8278 4.15914C15.6298 3.37161 15.2599 2.63769 14.7447 2.01008C14.2294 1.38247 13.5816 0.876732 12.8477 0.529192C12.1138 0.181651 11.312 0.000928696 10.5 6.02718e-07V6.02718e-07ZM12 5.5C11.7033 5.5 11.4133 5.41203 11.1666 5.2472C10.92 5.08238 10.7277 4.84811 10.6142 4.57403C10.5006 4.29994 10.4709 3.99834 10.5288 3.70737C10.5867 3.41639 10.7296 3.14912 10.9393 2.93934C11.1491 2.72956 11.4164 2.5867 11.7074 2.52882C11.9983 2.47095 12.2999 2.50065 12.574 2.61418C12.8481 2.72771 13.0824 2.91997 13.2472 3.16665C13.412 3.41332 13.5 3.70333 13.5 4C13.5 4.39783 13.342 4.77936 13.0607 5.06066C12.7794 5.34197 12.3978 5.5 12 5.5Z" fill="#D59633"/>
<path d="M1.99999 13.35C1.93003 13.351 1.86137 13.331 1.80287 13.2927C1.74438 13.2543 1.69873 13.1992 1.67182 13.1346C1.64491 13.0701 1.63797 12.9989 1.65191 12.9303C1.66584 12.8618 1.7 12.799 1.74999 12.75L6.74999 7.74999C6.81496 7.68369 6.90362 7.64591 6.99645 7.64498C7.08928 7.64404 7.17868 7.68002 7.24499 7.74499C7.31129 7.80997 7.34907 7.89863 7.35 7.99146C7.35094 8.08429 7.31496 8.17369 7.24999 8.23999L2.24999 13.24C2.21782 13.2742 2.17911 13.3015 2.13616 13.3204C2.09321 13.3393 2.0469 13.3494 1.99999 13.35V13.35Z" fill="white"/>
</svg>
