<svg width="16" height="16" viewBox="0 0 16 16" fill="none" xmlns="http://www.w3.org/2000/svg">
<g clip-path="url(#clip0_20462_15211)">
<path d="M13.2835 4.77665C13.4209 4.55011 13.5 4.28429 13.5 4C13.5 3.17157 12.8284 2.5 12 2.5C11.1716 2.5 10.5 3.17157 10.5 4C10.5 4.12918 10.5163 4.25454 10.547 4.37414C10.6443 4.32405 10.7308 4.27859 10.8023 4.24055C10.8701 4.20446 10.9241 4.17525 10.9606 4.15533L11.0018 4.13278L11.0117 4.12733L11.0138 4.12617L11.5 3.85571L11.9859 4.12599L11.9883 4.12733L11.9982 4.13278L12.0394 4.15533C12.0759 4.17525 12.1299 4.20446 12.1977 4.24055C12.3337 4.31288 12.5237 4.41201 12.7394 4.51887C12.9166 4.60667 13.1021 4.69511 13.2835 4.77665Z" fill="#798288"/>
<path d="M6 8.5L1.74999 12.75C1.7 12.799 1.66584 12.8618 1.65191 12.9303C1.63797 12.9989 1.64491 13.0701 1.67182 13.1346C1.69873 13.1992 1.74438 13.2543 1.80287 13.2927C1.86137 13.331 1.93003 13.351 1.99999 13.35C2.0469 13.3494 2.09321 13.3393 2.13616 13.3204C2.17911 13.3015 2.21782 13.2742 2.24999 13.24L6 9.48998V8.5Z" fill="#798288"/>
<path d="M6.24888 12.044L3.43934 14.8536C3.34557 14.9473 3.21839 15 3.08579 15H1V12.7071L5.63647 8.07065C5.4683 7.75313 5.3303 7.41717 5.22632 7.06659L0 12.2929V15.3C0 15.6866 0.313401 16 0.7 16H3.08579C3.48361 16 3.86514 15.842 4.14645 15.5607L6.66726 13.0399C6.4969 12.7145 6.35633 12.3814 6.24888 12.044Z" fill="#798288"/>
<path d="M15.9986 5.37297C15.931 2.39408 13.4951 0 10.5 0C7.46243 0 5 2.46243 5 5.5C5 6.42935 5.2305 7.30486 5.63745 8.07249L6.24288 7.46706C6.26906 7.43775 6.29476 7.40965 6.31997 7.38274C6.06087 6.80837 5.91667 6.17103 5.91667 5.5C5.91667 2.96869 7.96869 0.916667 10.5 0.916667C12.9576 0.916667 14.9635 2.85101 15.0782 5.28029C15.1595 5.29122 15.2403 5.30127 15.3194 5.31043C15.5312 5.33494 15.7177 5.35163 15.8508 5.36215C15.9132 5.36709 15.9635 5.37063 15.9986 5.37297Z" fill="#798288"/>
<path fill-rule="evenodd" clip-rule="evenodd" d="M7 6.375V10.5C7 12.5625 8.81325 14.9232 11.5007 16C14.1875 14.9229 16 12.5625 16 10.5V6.375C16 6.375 14.6287 6.29974 13.75 6.03125C12.8713 5.76276 11.5 5 11.5 5C11.5 5 10.1287 5.76276 9.25 6.03125C8.37132 6.29974 7 6.375 7 6.375ZM11.5 6.13297C11.3943 6.18763 11.2756 6.24802 11.1484 6.31101C10.6906 6.53782 10.0656 6.82768 9.54222 6.9876C9.04613 7.13918 8.45605 7.23119 8 7.28656V10.5C8 11.9506 9.28964 13.8818 11.5006 14.9108C13.7109 13.8816 15 11.9507 15 10.5V7.28656C14.5439 7.23119 13.9539 7.13918 13.4578 6.9876C12.9344 6.82768 12.3094 6.53782 11.8516 6.31101C11.7244 6.24802 11.6057 6.18763 11.5 6.13297Z" fill="#798288"/>
</g>
<defs>
<clipPath id="clip0_20462_15211">
<rect width="16" height="16" fill="white"/>
</clipPath>
</defs>
</svg>
