<svg width="16" height="16" viewBox="0 0 16 16" fill="none" xmlns="http://www.w3.org/2000/svg">
<g clip-path="url(#clip0_20462_15191)">
<path fill-rule="evenodd" clip-rule="evenodd" d="M7.90997 0.646645C8.70711 0.221668 9.59665 -0.000421657 10.5 6.01003e-07C11.312 0.000929297 12.1138 0.181652 12.8477 0.529192C13.5816 0.876733 14.2294 1.38247 14.7447 2.01008C15.2599 2.63769 15.6298 3.37161 15.8278 4.15914C15.9279 4.55744 15.9828 4.96445 15.9922 5.37255C15.9575 5.37021 15.9096 5.3668 15.8508 5.36215C15.7177 5.35163 15.5312 5.33494 15.3194 5.31043C14.8804 5.25964 14.3917 5.18167 14.0422 5.0749C13.8276 5.00931 13.5601 4.90095 13.2833 4.77656C13.4239 4.54425 13.5 4.27605 13.5 4C13.5 3.70333 13.412 3.41332 13.2472 3.16665C13.0824 2.91997 12.8481 2.72771 12.574 2.61418C12.2999 2.50065 11.9983 2.47095 11.7074 2.52882C11.4164 2.5867 11.1491 2.72956 10.9393 2.93934C10.7296 3.14912 10.5867 3.41639 10.5288 3.70737C10.4847 3.92902 10.4915 4.15684 10.5474 4.37397C10.4596 4.41917 10.363 4.46815 10.2606 4.51887C9.81309 4.74057 9.3131 4.96633 8.95778 5.0749C8.60834 5.18167 8.11955 5.25964 7.68055 5.31043C7.46879 5.33494 7.28226 5.35163 7.14917 5.36215C7.08281 5.3674 7.0302 5.37108 6.99493 5.3734L6.9556 5.37589L6.94661 5.37642L6.94506 5.37651L6 5.42838V10.5C6 11.192 6.15585 11.8883 6.44013 12.5599L3 16H0.5C0.367392 16 0.240215 15.9473 0.146447 15.8536C0.0526784 15.7598 0 15.6326 0 15.5V13L5.41 7.59C5.06673 6.75442 4.93455 5.84714 5.02516 4.94835C5.11577 4.04956 5.42636 3.18692 5.9295 2.43666C6.43264 1.6864 7.11283 1.07162 7.90997 0.646645Z" fill="#D59633"/>
<path fill-rule="evenodd" clip-rule="evenodd" d="M6 8.49997L1.74999 12.75C1.7 12.7989 1.66584 12.8618 1.65191 12.9303C1.63797 12.9989 1.64491 13.0701 1.67182 13.1346C1.69873 13.1992 1.74438 13.2543 1.80287 13.2926C1.86137 13.331 1.93003 13.351 1.99999 13.35C2.0469 13.3493 2.09321 13.3393 2.13616 13.3204C2.17911 13.3015 2.21782 13.2741 2.24999 13.24L6 9.48997V8.49997Z" fill="white"/>
<path d="M7 6.375C7 6.375 8.37132 6.29974 9.25 6.03125C10.1287 5.76276 11.5 5 11.5 5C11.5 5 12.8713 5.76276 13.75 6.03125C14.6287 6.29974 16 6.375 16 6.375V10.5C16 12.5625 14.1875 14.9229 11.5007 16C8.81325 14.9232 7 12.5625 7 10.5V6.375Z" fill="#798288"/>
<path fill-rule="evenodd" clip-rule="evenodd" d="M11.5 6.13297C11.6057 6.18762 11.7244 6.24801 11.8516 6.311C12.3094 6.53781 12.9344 6.82768 13.4578 6.98759C13.9539 7.13918 14.5439 7.23118 15 7.28656V10.5C15 11.9506 13.7104 13.8817 11.4994 14.9108C9.28911 13.8816 8 11.9507 8 10.5V7.28656C8.45605 7.23118 9.04613 7.13918 9.54222 6.98759C10.0656 6.82768 10.6906 6.53781 11.1484 6.311C11.2756 6.24801 11.3943 6.18762 11.5 6.13297Z" fill="#407FB9"/>
<path d="M15 10V10.5C15 11.9504 13.7106 13.8814 11.5 14.9105V10H8V7.28656C8.45605 7.23118 9.04613 7.13918 9.54222 6.98759C10.0656 6.82768 10.6906 6.53781 11.1484 6.311C11.2756 6.24801 11.3943 6.18762 11.5 6.13297L11.5 10H15Z" fill="#EFEFEF"/>
</g>
<defs>
<clipPath id="clip0_20462_15191">
<rect width="16" height="16" fill="white"/>
</clipPath>
</defs>
</svg>
