<svg id="Layer_1" data-name="Layer 1" xmlns="http://www.w3.org/2000/svg" viewBox="0 0 300 170"><title>Error_cloud</title><path d="M47.63,76.49V75.57a34.18,34.18,0,0,1-1.49-10C46.16,46,62.92,30,83.6,30a39,39,0,0,1,11.62,1.75c9.08-14,26.78-23.53,47.13-23.53,25.48,0,46.79,14.9,52.27,34.88,1.65-.11,3.31-0.18,5-0.18,29.73,0,54.21,19.72,57.38,45a37.36,37.36,0,0,1-1.85,73.28v0.28h-2a41.34,41.34,0,0,1-8.38,0H66q-2.27.22-4.6,0.21t-4.6-.21h-2v-0.25a43.81,43.81,0,0,1-7.22-84.8" fill="#fff"/><path d="M249,167.06c-1.52,0-3-.07-4.47-0.21H66.27a55.62,55.62,0,0,1-9.69,0H54.85a5.28,5.28,0,0,1-2.43-.59A49.13,49.13,0,0,1,41.58,73.15a39.3,39.3,0,0,1-.73-7.53C40.85,43.07,60,24.72,83.6,24.72a44.75,44.75,0,0,1,9.41,1c10.83-14.14,29.36-22.78,49.35-22.78,25.86,0,48.25,14.07,56.06,34.71h1.21c30.8,0,56.8,19.58,62.07,46.11a43,43,0,0,1,29.81,40.71,42.46,42.46,0,0,1-33.75,41.71,5.28,5.28,0,0,1-2.61.68h-1.7C252,167,250.52,167.06,249,167.06Zm6.16-5.81h0ZM66,156.23H244.79l0.56,0a35.39,35.39,0,0,0,7.27,0l0.56,0h0.26a5.43,5.43,0,0,1,.83-0.21,31.87,31.87,0,0,0,26.62-31.57,32.23,32.23,0,0,0-25-31.3,5.3,5.3,0,0,1-4.12-4.52c-2.88-23-25.28-40.39-52.11-40.39-1.39,0-2.91.06-4.66,0.17a5.34,5.34,0,0,1-5.46-3.89c-4.92-17.95-24.75-31-47.15-31-17.89,0-34.24,8.09-42.68,21.11a5.31,5.31,0,0,1-6,2.18,33.66,33.66,0,0,0-10-1.51c-17.72,0-32.13,13.58-32.13,30.28A29,29,0,0,0,52.72,74,5.29,5.29,0,0,1,53,75.66v0.8a5.31,5.31,0,0,1-3.63,5.07A38.5,38.5,0,0,0,55.65,156a5.53,5.53,0,0,1,.81.19h0.37l0.51,0a43.68,43.68,0,0,0,8.18,0Z" fill="#a9d4ea"/><circle cx="121.61" cy="80.05" r="7.29" fill="#a9d4ea"/><circle cx="171.37" cy="80.05" r="7.29" fill="#a9d4ea"/><path d="M174.91,124.18a3.29,3.29,0,0,1-2.95-1.81,29.23,29.23,0,0,0-52.19,0,3.3,3.3,0,0,1-5.89-3,35.83,35.83,0,0,1,64,0A3.3,3.3,0,0,1,174.91,124.18Z" fill="#a9d4ea"/></svg>