<svg width="16" height="16" viewBox="0 0 16 16" fill="none" xmlns="http://www.w3.org/2000/svg">
<g clip-path="url(#clip0_32298_40408)">
<path d="M13 15H3V1H11.5L13 2.5V15Z" fill="white"/>
<path fill-rule="evenodd" clip-rule="evenodd" d="M10 4H0V14H10V12H8V10.5L10 8V4ZM6.37998 12H7.57998L5.68998 9L7.53998 6H6.41998L5.28998 8C5.23665 8.10667 5.16332 8.24 5.06998 8.4C5.00998 8.26667 4.94665 8.13333 4.87998 8L3.79998 6H2.57998L4.41998 9L2.41998 12H3.61998L4.88998 9.8L4.99998 9.51C5.04276 9.61023 5.0929 9.70716 5.14998 9.8L6.37998 12Z" fill="#5C992B"/>
<path d="M11 11V16H14V11H16L12.5 7L9 11H11Z" fill="#407FB9"/>
<path fill-rule="evenodd" clip-rule="evenodd" d="M3 0H11.4L14 2.6V7H13V4H11C10.7348 4 10.4804 3.89464 10.2929 3.70711C10.1054 3.51957 10 3.26522 10 3V1H3V3H2V1C2 0.734784 2.10536 0.48043 2.29289 0.292893C2.48043 0.105357 2.73478 0 3 0ZM10 15H2C2 15.2652 2.10536 15.5196 2.29289 15.7071C2.48043 15.8946 2.73478 16 3 16H10V15ZM11 1V3H13L11 1Z" fill="#798288"/>
</g>
<defs>
<clipPath id="clip0_32298_40408">
<rect width="16" height="16" fill="white"/>
</clipPath>
</defs>
</svg>
