<svg width="16" height="16" viewBox="0 0 16 16" fill="none" xmlns="http://www.w3.org/2000/svg">
<path d="M13 15H3V1H11.5L13 2.5V15Z" fill="white"/>
<path fill-rule="evenodd" clip-rule="evenodd" d="M3.00001 0H11.4L14 2.6V15C14 15.2652 13.8947 15.5196 13.7071 15.7071C13.5196 15.8946 13.2652 16 13 16H3.00001C2.73479 16 2.48044 15.8946 2.2929 15.7071C2.10537 15.5196 2.00001 15.2652 2.00001 15H2V14H3V15H13V4H11C10.7348 4 10.4804 3.89464 10.2929 3.70711C10.1054 3.51957 10 3.26522 10 3V1H3.00001L3 8H2L2.00001 1C2.00001 0.734784 2.10537 0.48043 2.2929 0.292893C2.48044 0.105357 2.73479 0 3.00001 0ZM11 1V3H13L11 1Z" fill="#798288"/>
<path d="M3.39496 11.6497C3.36254 12.0686 3.19665 12.3984 2.8973 12.639C2.59984 12.8797 2.20705 13 1.71893 13C1.18504 13 0.764604 12.8324 0.457618 12.4973C0.152539 12.1604 0 11.6988 0 11.1123V10.8743C0 10.5 0.0705495 10.1702 0.211648 9.88503C0.352747 9.59982 0.553909 9.38146 0.815133 9.22995C1.07826 9.07665 1.38334 9 1.73037 9C2.21087 9 2.59794 9.12032 2.89158 9.36096C3.18521 9.6016 3.35491 9.93939 3.40068 10.3743H2.54264C2.52167 10.123 2.44635 9.94118 2.31669 9.82888C2.18894 9.71479 1.9935 9.65775 1.73037 9.65775C1.44436 9.65775 1.22985 9.75401 1.08684 9.94652C0.945745 10.1373 0.873288 10.434 0.869475 10.8369V11.131C0.869475 11.5517 0.937164 11.8592 1.07254 12.0535C1.20983 12.2478 1.42529 12.3449 1.71893 12.3449C1.98397 12.3449 2.18131 12.2888 2.31097 12.1765C2.44254 12.0624 2.51785 11.8868 2.53692 11.6497H3.39496Z" fill="black"/>
<path d="M6.11778 11.9251C6.11778 11.7736 6.06058 11.6578 5.94618 11.5775C5.83177 11.4955 5.62584 11.41 5.32839 11.3209C5.03094 11.2299 4.79546 11.1408 4.62194 11.0535C4.14907 10.8146 3.91264 10.4929 3.91264 10.0882C3.91264 9.8779 3.97556 9.69073 4.1014 9.52674C4.22916 9.36096 4.41125 9.23173 4.64769 9.13904C4.88603 9.04635 5.15297 9 5.44852 9C5.74597 9 6.01101 9.0508 6.24363 9.15241C6.47625 9.25223 6.65644 9.39394 6.78419 9.57754C6.91385 9.76114 6.97868 9.9697 6.97868 10.2032H6.12064C6.12064 10.025 6.06058 9.88681 5.94046 9.78877C5.82033 9.68895 5.65159 9.63904 5.43422 9.63904C5.22448 9.63904 5.06145 9.68093 4.94514 9.76471C4.82883 9.8467 4.77067 9.95544 4.77067 10.0909C4.77067 10.2175 4.83836 10.3235 4.97374 10.4091C5.11102 10.4947 5.31219 10.5749 5.57722 10.6497C6.06535 10.787 6.42096 10.9572 6.64405 11.1604C6.86713 11.3636 6.97868 11.6168 6.97868 11.9198C6.97868 12.2567 6.84235 12.5214 6.56968 12.7139C6.29702 12.9046 5.92997 13 5.46854 13C5.14821 13 4.85647 12.9456 4.59334 12.8369C4.33021 12.7264 4.12905 12.5758 3.98986 12.385C3.85257 12.1943 3.78393 11.9733 3.78393 11.7219H4.64483C4.64483 12.1515 4.9194 12.3663 5.46854 12.3663C5.67256 12.3663 5.83177 12.328 5.94618 12.2513C6.06058 12.1729 6.11778 12.0642 6.11778 11.9251Z" fill="black"/>
<path d="M9.10088 11.9813L10.0447 9.05348H11L9.54992 12.9465H8.65471L7.21035 9.05348H8.16277L9.10088 11.9813Z" fill="black"/>
</svg>
