<svg width="16" height="16" viewBox="0 0 16 16" fill="none" xmlns="http://www.w3.org/2000/svg">
<path d="M13 15H3V1H11.5L13 2.5V15Z" fill="white"/>
<path d="M11.4 0H3C2.73478 0 2.48043 0.105357 2.29289 0.292893C2.10536 0.48043 2 0.734784 2 1V3H3V1H10V3C10 3.26522 10.1054 3.51957 10.2929 3.70711C10.4804 3.89464 10.7348 4 11 4H13V15H2C2 15.2652 2.10536 15.5196 2.29289 15.7071C2.48043 15.8946 2.73478 16 3 16H13C13.2652 16 13.5196 15.8946 13.7071 15.7071C13.8946 15.5196 14 15.2652 14 15V2.6L11.4 0ZM11 3V1L13 3H11Z" fill="#798288"/>
<path d="M10 4H0V14H10V4Z" fill="#5C992B"/>
<path d="M7.58004 12H6.38004L5.15004 9.8C5.09296 9.70716 5.04283 9.61023 5.00004 9.51L4.89004 9.8L3.62004 12H2.42004L4.42004 9L2.58004 6H3.80004L4.88004 8C4.94671 8.13333 5.01004 8.26667 5.07004 8.4C5.16338 8.24 5.23671 8.10667 5.29004 8L6.42004 6H7.54004L5.69004 9L7.58004 12Z" fill="white"/>
</svg>
