<svg width="16" height="16" viewBox="0 0 16 16" fill="none" xmlns="http://www.w3.org/2000/svg">
<path d="M14 8L14.4472 8.22361L14.559 8L14.4472 7.77639L14 8ZM2 8L1.55279 7.77639L1.44098 8L1.55279 8.22361L2 8ZM8 12C11.9547 12 13.901 9.31602 14.4472 8.22361L13.5528 7.77639C13.099 8.68398 11.4299 11 8 11V12ZM1.55279 8.22361C2.09899 9.31602 4.04533 12 8 12V11C4.57006 11 2.90101 8.68398 2.44721 7.77639L1.55279 8.22361ZM8 5C11.4299 5 13.099 7.31602 13.5528 8.22361L14.4472 7.77639C13.901 6.68398 11.9547 4 8 4V5ZM2.44721 8.22361C2.90101 7.31602 4.57006 5 8 5V4C4.04533 4 2.09899 6.68398 1.55279 7.77639L2.44721 8.22361Z" fill="#798288"/>
<circle cx="8" cy="8" r="2" fill="#798288"/>
</svg>
