<svg width="10" height="10" viewBox="0 0 10 10" fill="none" xmlns="http://www.w3.org/2000/svg">
<g id="Favorites">
<g id="old">
<path id="Vector" d="M5 0L3.45 3.15L0 3.65L2.5 6.1L1.9 9.5L5 7.9L8.1 9.5L7.5 6.05L10 3.6L6.55 3.1L5 0Z" fill="#DFAA1A"/>
<path id="Vector (Stroke)" fill-rule="evenodd" clip-rule="evenodd" d="M4.11471 4.06411L2.14289 4.34988L3.57638 5.75471L3.2357 7.68527L5 6.77466L6.76989 7.68815L6.42475 5.70361L7.85712 4.29988L5.88931 4.0147L5.00717 2.2504L4.11471 4.06411ZM3.45 3.15L0 3.65L2.5 6.1L1.9 9.5L5 7.9L8.1 9.5L7.5 6.05L10 3.6L6.55 3.1L5 0L3.45 3.15Z" fill="#DFAA1A"/>
</g>
</g>
</svg>
