<svg width="20" height="20" viewBox="0 0 20 20" fill="none" xmlns="http://www.w3.org/2000/svg">
<path d="M10 0L6.9 6.3L0 7.3L5 12.2L3.8 19L10 15.8L16.2 19L15 12.1L20 7.2L13.1 6.2L10 0Z" fill="#DFAA1A"/>
<path fill-rule="evenodd" clip-rule="evenodd" d="M8.22941 8.12823L4.28577 8.69977L7.15277 11.5094L6.4714 15.3705L10 13.5493L13.5398 15.3763L12.8495 11.4072L15.7142 8.59977L11.7786 8.02939L10.0143 4.5008L8.22941 8.12823ZM6.9 6.3L0 7.3L5 12.2L3.8 19L10 15.8L16.2 19L15 12.1L20 7.2L13.1 6.2L10 0L6.9 6.3Z" fill="#DFAA1A"/>
</svg>
