<svg width="16" height="16" viewBox="0 0 16 16" fill="none" xmlns="http://www.w3.org/2000/svg">
<g clip-path="url(#clip0)">
<path d="M8 15.5C12.1421 15.5 15.5 12.1421 15.5 8C15.5 3.85786 12.1421 0.5 8 0.5C3.85786 0.5 0.5 3.85786 0.5 8C0.5 12.1421 3.85786 15.5 8 15.5Z" fill-opacity="0.0"/>
<path d="M7.38741 10.0519C7.32909 9.91151 7.28304 9.76508 7.24992 9.61464C7.23471 9.44112 7.23471 9.26633 7.24992 9.09281C7.24393 8.83622 7.30011 8.58265 7.41241 8.35942C7.52567 8.13341 7.6643 7.92484 7.82488 7.73886C7.99181 7.55929 8.16704 7.38981 8.34984 7.23113L8.88731 6.7093C9.04425 6.55097 9.18284 6.3709 9.29978 6.17336C9.40857 5.98995 9.46525 5.77348 9.46227 5.55281C9.46512 5.36903 9.42178 5.18811 9.33728 5.03097C9.25291 4.87584 9.13728 4.74537 8.9998 4.65018C8.84582 4.54009 8.67694 4.4591 8.49983 4.41041C8.30704 4.36168 8.10994 4.33802 7.91237 4.3399C7.20521 4.3518 6.52582 4.65243 6 5.18611V3.64882C6.71318 3.22545 7.50649 3.00287 8.31235 3.00006C8.66201 2.99815 9.01052 3.04553 9.34978 3.14109C9.6557 3.22137 9.94732 3.35967 10.2122 3.5501C10.4478 3.72246 10.6446 3.95421 10.7872 4.22707C10.9311 4.51516 11.0045 4.84132 10.9997 5.17201C11.0051 5.48876 10.9451 5.80258 10.8247 6.08874C10.7049 6.35515 10.5535 6.60188 10.3747 6.82213C10.186 7.05288 9.97658 7.26085 9.74975 7.44269L9.17479 7.96452C9.0061 8.12192 8.855 8.30189 8.72482 8.50046C8.61011 8.6814 8.54887 8.89855 8.54983 9.12102C8.54794 9.29854 8.57331 9.4751 8.62483 9.64285C8.68241 9.78459 8.74926 9.9213 8.82481 10.0519H7.38741ZM8.16236 12.9995C8.05562 12.9996 7.9499 12.9761 7.85124 12.9301C7.75259 12.8841 7.66293 12.8166 7.58739 12.7315C7.50962 12.6483 7.44827 12.5475 7.40735 12.4357C7.36643 12.3239 7.34685 12.2037 7.34991 12.0828C7.34958 11.9665 7.37049 11.8513 7.41136 11.7446C7.45222 11.6378 7.51214 11.5417 7.58739 11.4622C7.66199 11.3752 7.75133 11.306 7.8501 11.2588C7.94888 11.2115 8.05507 11.1872 8.16236 11.1872C8.26964 11.1872 8.37583 11.2115 8.47461 11.2588C8.57338 11.306 8.66272 11.3752 8.73732 11.4622C8.81574 11.5449 8.87752 11.6456 8.91849 11.7575C8.95946 11.8694 8.97866 11.99 8.9748 12.111C8.97786 12.2319 8.95828 12.3521 8.91736 12.4639C8.87644 12.5757 8.81509 12.6765 8.73732 12.7597C8.58076 12.9213 8.3744 13.0074 8.16236 12.9995Z" fill="#798288"/>
<path d="M8 1C9.38447 1 10.7379 1.41054 11.889 2.17971C13.0401 2.94888 13.9373 4.04213 14.4672 5.32122C14.997 6.6003 15.1356 8.00776 14.8655 9.36563C14.5954 10.7235 13.9287 11.9708 12.9498 12.9497C11.9708 13.9287 10.7235 14.5954 9.36564 14.8655C8.00777 15.1356 6.6003 14.997 5.32122 14.4672C4.04214 13.9373 2.94889 13.0401 2.17972 11.889C1.41055 10.7378 1 9.38447 1 8C1 6.14348 1.7375 4.36301 3.05026 3.05025C4.36301 1.7375 6.14349 1 8 1ZM8 0C6.41775 0 4.87103 0.469192 3.55544 1.34824C2.23985 2.22729 1.21447 3.47672 0.608967 4.93853C0.00346625 6.40034 -0.15496 8.00887 0.153721 9.56072C0.462403 11.1126 1.22433 12.538 2.34315 13.6569C3.46197 14.7757 4.88743 15.5376 6.43928 15.8463C7.99113 16.155 9.59966 15.9965 11.0615 15.391C12.5233 14.7855 13.7727 13.7602 14.6518 12.4446C15.5308 11.129 16 9.58225 16 8C16 5.87827 15.1571 3.84344 13.6569 2.34315C12.1566 0.842855 10.1217 0 8 0V0Z" fill="#798288"/>
</g>
<defs>
<clipPath id="clip0">
<rect width="16" height="16" fill="white"/>
</clipPath>
</defs>
</svg>
