<svg xmlns="http://www.w3.org/2000/svg" width="20" height="20" viewBox="0 0 20 20" fill="#ffb800">
<g id="help">
<path fill-rule="evenodd" clip-rule="evenodd" d="M17 10C17 13.866 13.866 17 10 17C6.13401 17 3 13.866 3 10C3 6.13401 6.13401 3 10 3C13.866 3 17 6.13401 17 10ZM19 10C19 14.9706 14.9706 19 10 19C5.02944 19 1 14.9706 1 10C1 5.02944 5.02944 1 10 1C14.9706 1 19 5.02944 19 10ZM11.8768 5.28077C11.3931 5.05192 10.8043 4.9375 10.1104 4.9375C8.70152 4.9375 7.53972 5.47321 6.625 6.54464L7.934 7.55886C8.52278 6.87231 9.19042 6.52904 9.93692 6.52904C10.347 6.52904 10.6676 6.62786 10.8989 6.8255C11.1408 7.01274 11.2617 7.278 11.2617 7.62127C11.2617 7.90213 11.1776 8.13098 11.0093 8.30782C10.8516 8.48466 10.594 8.6927 10.2366 8.93195C9.90012 9.1608 9.62675 9.37405 9.41647 9.57169C9.20619 9.75893 9.0222 10.019 8.86449 10.3519C8.71729 10.6743 8.64369 11.0696 8.64369 11.5377V12.1462H10.5204V11.6157C10.5204 11.2204 10.6256 10.9032 10.8359 10.6639C11.0461 10.4247 11.3668 10.1646 11.7979 9.88375C12.1343 9.65491 12.4077 9.44686 12.618 9.25962C12.8283 9.07238 13.007 8.83313 13.1542 8.54187C13.3014 8.2402 13.375 7.88133 13.375 7.46524C13.375 7.00754 13.2488 6.58625 12.9965 6.20137C12.7442 5.81649 12.3709 5.50962 11.8768 5.28077ZM10.5204 13.4717C10.2681 13.2221 9.9632 13.0973 9.60572 13.0973C9.24825 13.0973 8.9486 13.2221 8.70678 13.4717C8.46495 13.711 8.34404 14.0075 8.34404 14.3611C8.34404 14.7044 8.46495 15.0009 8.70678 15.2505C8.95911 15.5002 9.25876 15.625 9.60572 15.625C9.9632 15.625 10.2681 15.5002 10.5204 15.2505C10.7728 15.0009 10.8989 14.7044 10.8989 14.3611C10.8989 14.0075 10.7728 13.711 10.5204 13.4717Z" stroke="none"></path>
</g>
</svg>
