<svg id="Layer_1" data-name="Layer 1" xmlns="http://www.w3.org/2000/svg" viewBox="0 0 20 20">
    <title>WarningIcon</title>
    <path d="M9.5,3.15c1.24,2.2,5.39,9.57,7.79,13.85H1.71L9.5,3.15m0-1.51A0.8,0.8,0,0,0,9,2L0,18H19S10.08,2.12,10,2a0.57,0.57,0,0,0-.47-0.37h0Z"
          fill="white"/>
    <path d="M9.56,15.1A0.73,0.73,0,0,1,9,14.91a0.61,0.61,0,0,1-.21-0.47A0.65,0.65,0,0,1,9,14a0.74,0.74,0,0,1,1,0,0.64,0.64,0,0,1,.21.49,0.61,0.61,0,0,1-.21.47A0.72,0.72,0,0,1,9.56,15.1Zm0.56-7.29L10,12.89h-1L8.94,7.81h1.18Z"
          fill="white"/>
</svg>