<svg width="24" height="24" fill="none" xmlns="http://www.w3.org/2000/svg" viewBox="0 0 24 24">
    <path d="M0 2.997A2.997 2.997 0 012.997 0h17.985a2.997 2.997 0 012.998 2.997v17.985a2.997 2.997 0 01-2.998 2.998H2.997A2.997 2.997 0 010 20.982V2.997z" fill="#FF8600"/>
    <path fill-rule="evenodd" clip-rule="evenodd" d="M12.632 16.124c.475 1.224.867 2.237 1.001 2.626.37 1.075.233 1.765-.186 2.044-.611.407-1.403.172-2.329-.882-.617-.677-2.249-2.805-3.56-5.063-.926-1.505-1.86-3.344-2.975-5.573-.936-2.555.44-3.363 2.37-4.115 2.082-.828 5.091-1.656 6.789-1.957 1.234-.226 3.141-.422 3.549.3.231.452.055 1.153-1.055 1.87-.213.13-.74.455-1.377.85a484.76 484.76 0 01-3.457 2.123c-1.157.677-1.107 1.662-.798 2.415.5 1.418 1.348 3.608 2.028 5.362zm4.707-1.363c.256.683.468 1.248.54 1.465.102.307.109.692.098.772-.068.482-.582.549-.963.318a2.08 2.08 0 01-.491-.442c-.333-.378-1.214-1.565-1.921-2.824-.5-.84-1.003-1.866-1.605-3.11-.505-1.424.238-1.875 1.278-2.295 1.124-.461 2.747-.923 3.663-1.091l.11-.021c.656-.126 1.514-.29 1.804.189.152.25.03.643-.569 1.043-.115.072-.399.253-.742.473-.649.414-1.512.965-1.865 1.185-.625.377-.598.927-.431 1.347.27.791.727 2.012 1.094 2.99z" fill="#fff"/>
</svg>