<svg width="20" height="20" viewBox="0 0 20 20" fill="white" stroke="none" xmlns="http://www.w3.org/2000/svg">
  <g id="new-features-icon">
    <path fill-rule="evenodd" clip-rule="evenodd" stroke="none" d="M5.04609 15C6.30862 16.2372 8.03776 17 9.94507 17C11.8524 17 13.5815 16.2372 14.8441 15H17C17.1603 15 17.3163 14.9811 17.4657 14.9455C15.8563 17.388 13.0889 19 9.94507 19C6.78536 19 4.00595 17.3717 2.40017 14.9085C2.58953 14.9679 2.79102 15 3 15H5.04609ZM14.8441 5C13.5815 3.76281 11.8524 3 9.94507 3C8.03776 3 6.30862 3.76281 5.04609 5H3C2.79102 5 2.58953 5.03205 2.40017 5.09151C4.00595 2.62828 6.78536 1 9.94507 1C13.0889 1 15.8563 2.61198 17.4657 5.05451C17.3163 5.01887 17.1603 5 17 5H14.8441ZM1 8.99997C0.963703 9.32832 0.945068 9.66198 0.945068 10C0.945068 10.338 0.963703 10.6717 1 11V8.99997Z"/>
    <path fill-rule="evenodd" clip-rule="evenodd" stroke="none" d="M6.25173 13H4.29742L2.28275 8.77291H2.24879C2.29658 9.43776 2.32048 9.94528 2.32048 10.2955V13H1V7H2.94676L4.95389 11.1696H4.97652C4.94131 10.565 4.92371 10.0793 4.92371 9.71272V7H6.25173V13Z"/>
    <path fill-rule="evenodd" clip-rule="evenodd" stroke="none" d="M10.7187 13H7.44393V7H10.7187V8.30096H8.93419V9.24487H10.5867V10.5458H8.93419V11.6785H10.7187V13Z"/>
    <path fill-rule="evenodd" clip-rule="evenodd" stroke="none" d="M17.6418 13H15.8799L15.3517 10.3858C15.3266 10.2763 15.2863 10.0588 15.231 9.73324C15.1782 9.40766 15.1392 9.13543 15.114 8.91655C15.0939 9.09439 15.0612 9.31601 15.0159 9.5814C14.9707 9.84405 14.9254 10.0862 14.8801 10.3078C14.8373 10.5294 14.655 11.4268 14.3331 13H12.5712L11.2054 7H12.6428L13.2427 10.0082C13.3785 10.6731 13.4716 11.2025 13.5219 11.5964C13.5546 11.3174 13.6125 10.9384 13.6955 10.4596C13.781 9.98085 13.8602 9.58413 13.9331 9.26949L14.4198 7H15.8007L16.2723 9.26949C16.3528 9.63338 16.4345 10.0534 16.5175 10.5294C16.6005 11.0055 16.6558 11.3611 16.6835 11.5964C16.7162 11.2927 16.8055 10.7661 16.9514 10.0164L17.5626 7H19L17.6418 13Z"/>
  </g>
</svg>
