<svg width="397" height="152" viewBox="0 0 397 152" fill="none" xmlns="http://www.w3.org/2000/svg">
    <circle cx="283" cy="76" r="76" fill="#FF7A00" fill-opacity="0.1"/>
    <circle cx="283" cy="76" r="60" fill="#FF7A00" fill-opacity="0.2"/>
    <g clip-path="url(#clip0)">
        <rect x="-568.35" y="50" width="965.35" height="46" fill="#444444"/>
        <rect x="260" y="50" width="46" height="46" fill="black" fill-opacity="0.05"/>
        <path fill-rule="evenodd" clip-rule="evenodd" d="M232 68H246V68.382L239 71.882L232 68.382V68ZM232 70.618L232 78H246V70.618L239.447 73.8944L239 74.118L238.553 73.8944L232 70.618ZM230 68C230 66.8954 230.895 66 232 66H246C247.105 66 248 66.8954 248 68V78C248 79.1046 247.105 80 246 80H232C230.895 80 230 79.1046 230 78V68Z" fill="#B3B3B3"/>
        <g clip-path="url(#clip1)">
            <path fill-rule="evenodd" clip-rule="evenodd" d="M278.046 78C279.309 79.2372 281.038 80 282.945 80C284.852 80 286.582 79.2372 287.844 78H290C290.16 78 290.316 77.9811 290.466 77.9455C288.856 80.388 286.089 82 282.945 82C279.785 82 277.006 80.3717 275.4 77.9085C275.59 77.9679 275.791 78 276 78H278.046ZM287.844 68C286.582 66.7628 284.852 66 282.945 66C281.038 66 279.309 66.7628 278.046 68H276C275.791 68 275.59 68.0321 275.4 68.0915C277.006 65.6283 279.785 64 282.945 64C286.089 64 288.856 65.612 290.466 68.0545C290.316 68.0189 290.16 68 290 68H287.844ZM274 72C273.964 72.3283 273.945 72.662 273.945 73C273.945 73.338 273.964 73.6717 274 74V72Z" fill="#FF9900"/>
            <path d="M279.252 76H277.297L275.283 71.7729H275.249C275.297 72.4378 275.321 72.9453 275.321 73.2955V76H274V70H275.947L277.954 74.1696H277.977C277.941 73.565 277.924 73.0793 277.924 72.7127V70H279.252V76Z" fill="#FF9900"/>
            <path d="M283.719 76H280.444V70H283.719V71.301H281.934V72.2449H283.587V73.5458H281.934V74.6785H283.719V76Z" fill="#FF9900"/>
            <path d="M290.642 76H288.88L288.352 73.3858C288.327 73.2763 288.286 73.0588 288.231 72.7332C288.178 72.4077 288.139 72.1354 288.114 71.9166C288.094 72.0944 288.061 72.316 288.016 72.5814C287.971 72.844 287.925 73.0862 287.88 73.3078C287.837 73.5294 287.655 74.4268 287.333 76H285.571L284.205 70H285.643L286.243 73.0082C286.379 73.6731 286.472 74.2025 286.522 74.5964C286.555 74.3174 286.613 73.9384 286.696 73.4596C286.781 72.9808 286.86 72.5841 286.933 72.2695L287.42 70H288.801L289.272 72.2695C289.353 72.6334 289.435 73.0534 289.518 73.5294C289.601 74.0055 289.656 74.3611 289.684 74.5964C289.716 74.2927 289.806 73.7661 289.951 73.0164L290.563 70H292L290.642 76Z" fill="#FF9900"/>
        </g>
        <path fill-rule="evenodd" clip-rule="evenodd" d="M334 73C334 76.866 330.866 80 327 80C323.134 80 320 76.866 320 73C320 69.134 323.134 66 327 66C330.866 66 334 69.134 334 73ZM336 73C336 77.9706 331.971 82 327 82C322.029 82 318 77.9706 318 73C318 68.0294 322.029 64 327 64C331.971 64 336 68.0294 336 73ZM328.877 68.2808C328.393 68.0519 327.804 67.9375 327.11 67.9375C325.702 67.9375 324.54 68.4732 323.625 69.5446L324.934 70.5589C325.523 69.8723 326.19 69.529 326.937 69.529C327.347 69.529 327.668 69.6279 327.899 69.8255C328.141 70.0127 328.262 70.278 328.262 70.6213C328.262 70.9021 328.178 71.131 328.009 71.3078C327.852 71.4847 327.594 71.6927 327.237 71.932C326.9 72.1608 326.627 72.374 326.416 72.5717C326.206 72.7589 326.022 73.019 325.864 73.3519C325.717 73.6743 325.644 74.0696 325.644 74.5377V75.1462H327.52V74.6157C327.52 74.2204 327.626 73.9032 327.836 73.6639C328.046 73.4247 328.367 73.1646 328.798 72.8838C329.134 72.6549 329.408 72.4469 329.618 72.2596C329.828 72.0724 330.007 71.8331 330.154 71.5419C330.301 71.2402 330.375 70.8813 330.375 70.4652C330.375 70.0075 330.249 69.5863 329.996 69.2014C329.744 68.8165 329.371 68.5096 328.877 68.2808ZM327.52 76.4717C327.268 76.2221 326.963 76.0973 326.606 76.0973C326.248 76.0973 325.949 76.2221 325.707 76.4717C325.465 76.711 325.344 77.0075 325.344 77.3611C325.344 77.7044 325.465 78.0009 325.707 78.2505C325.959 78.5002 326.259 78.625 326.606 78.625C326.963 78.625 327.268 78.5002 327.52 78.2505C327.773 78.0009 327.899 77.7044 327.899 77.3611C327.899 77.0075 327.773 76.711 327.52 76.4717Z" fill="#B3B3B3"/>
        <g clip-path="url(#clip2)">
            <rect x="65" y="59" width="123" height="28" rx="3" fill="white" fill-opacity="0.1"/>
            <path fill-rule="evenodd" clip-rule="evenodd" d="M90 71.5C90 74.5376 87.5376 77 84.5 77C81.4624 77 79 74.5376 79 71.5C79 68.4624 81.4624 66 84.5 66C87.5376 66 90 68.4624 90 71.5ZM92 71.5C92 75.6421 88.6422 79 84.5 79C82.9744 79 81.5552 78.5445 80.371 77.7621L76.2815 81.7748C76.1125 81.9259 75.8923 82.0063 75.6662 81.9996C75.4401 81.9929 75.2251 81.8996 75.0651 81.7388C74.9051 81.5779 74.0259 80.5961 74.0192 80.3687C74.0125 80.1414 74.0925 79.92 74.2428 79.75L78.3195 75.7498C77.4872 74.5419 77 73.0778 77 71.5C77 67.3579 80.3579 64 84.5 64C88.6422 64 92 67.3579 92 71.5Z" fill="#B3B3B3"/>
        </g>
        <g clip-path="url(#clip3)">
            <path d="M20 62C20 60.3431 21.3431 59 23 59H49C50.6569 59 52 60.3431 52 62V84C52 85.6569 50.6569 87 49 87H23C21.3431 87 20 85.6569 20 84V62Z" fill="#187FA9"/>
            <path fill-rule="evenodd" clip-rule="evenodd" d="M37 67H35V72H30V74H35V79H37V74H42V72H37V67Z" fill="white"/>
        </g>
        <mask id="mask0" mask-type="alpha" maskUnits="userSpaceOnUse" x="357" y="57" width="32" height="32">
            <circle cx="373" cy="73" r="15" fill="#E4E4E4" stroke="white" stroke-width="2"/>
        </mask>
        <g mask="url(#mask0)">
            <path d="M373 89C381.837 89 389 81.8366 389 73C389 64.1634 381.837 57 373 57C364.163 57 357 64.1634 357 73C357 81.8366 364.163 89 373 89Z" fill="#F5F5F5"/>
            <path fill-rule="evenodd" clip-rule="evenodd" d="M382.412 85.84C379.689 87.8922 376.389 89 373 89C369.611 89 366.311 87.8922 363.588 85.84C365.947 84.8212 368.206 83.2645 368.538 81.6447C369.026 79.2673 368.751 78.4783 368.464 78.0604C367.822 77.4642 367.336 76.7142 367.051 75.8787C366.679 74.5758 366.686 73.7097 366.382 73.5418C365.15 72.8588 364.8 72.451 364.821 70.191C364.811 69.9304 364.867 69.6715 364.984 69.4395C365.102 69.2075 365.276 69.0101 365.49 68.8667C365.49 68.8667 364.173 63.8797 365.862 61.3862C366.685 60.2449 367.777 59.3326 369.037 58.7335C370.298 58.1345 371.687 57.8679 373.075 57.9584H373.303C374.638 57.8782 375.97 58.152 377.169 58.7528C378.368 59.3537 379.393 60.2611 380.144 61.3862C381.838 63.8746 380.516 68.8667 380.516 68.8667C380.731 69.0101 380.905 69.2075 381.022 69.4395C381.139 69.6715 381.195 69.9304 381.185 70.191C381.208 72.451 380.856 72.8588 379.624 73.5418C379.32 73.711 379.332 74.5758 378.955 75.8787C378.669 76.7159 378.181 77.4669 377.536 78.0629C377.249 78.4808 376.974 79.2699 377.462 81.6472C377.794 83.2645 380.056 84.8224 382.412 85.84ZM373.284 57.9584C370.548 57.9521 375.589 57.9572 373.284 57.9584V57.9584Z" fill="#C0CDDC"/>
        </g>
    </g>
    <defs>
        <clipPath id="clip0">
            <rect width="397" height="46" fill="white" transform="translate(0 50)"/>
        </clipPath>
        <clipPath id="clip1">
            <rect width="20" height="20" fill="white" transform="translate(273 63)"/>
        </clipPath>
        <clipPath id="clip2">
            <rect width="123" height="28" fill="white" transform="translate(65 59)"/>
        </clipPath>
        <clipPath id="clip3">
            <path d="M20 62C20 60.3431 21.3431 59 23 59H49C50.6569 59 52 60.3431 52 62V84C52 85.6569 50.6569 87 49 87H23C21.3431 87 20 85.6569 20 84V62Z" fill="white"/>
        </clipPath>
    </defs>
</svg>
