<svg width="100" height="100" viewBox="0 0 100 100" fill="none" xmlns="http://www.w3.org/2000/svg">
<circle cx="50" cy="50" r="42" fill="#F4F4F4" fill-opacity="0.1"/>
<circle cx="50" cy="50" r="33" fill="#F4F4F4" fill-opacity="0.2"/>
<circle cx="50" cy="50" r="27" stroke="#5C5C5C" stroke-width="2"/>
<circle opacity="0.05" cx="86.5" cy="31.5" r="7.5" fill="#C0CDDC"/>
<path d="M41.7359 57.6739L24.5613 60.4713C23.7109 60.6098 23.1158 61.4365 23.2543 62.2869L26.8145 84.1455C26.953 84.9959 27.7798 85.591 28.6302 85.4525L45.8048 82.6552C46.6552 82.5167 47.2503 81.6899 47.1118 80.8395L43.5516 58.9809C43.4131 58.1305 42.5863 57.5354 41.7359 57.6739Z" fill="#AAAAAA" stroke="#5C5C5C" stroke-miterlimit="16" stroke-linecap="round" stroke-dasharray="2 2"/>
<path d="M35.19 79.5759C34.9293 79.6211 34.6609 79.5742 34.4311 79.4431L29.8274 76.763C29.6854 76.6954 29.559 76.599 29.4561 76.4801C29.3532 76.3611 29.276 76.2221 29.2295 76.0719C29.183 75.9216 29.168 75.7634 29.1857 75.6071C29.2033 75.4508 29.2532 75.2999 29.332 75.1638C29.4109 75.0277 29.5171 74.9094 29.6439 74.8164C29.7708 74.7234 29.9155 74.6577 30.069 74.6233C30.2225 74.589 30.3815 74.5869 30.5358 74.617C30.6902 74.6472 30.8366 74.709 30.966 74.7985L34.5133 76.8974L39.161 68.335C39.3048 68.0693 39.5482 67.8715 39.8378 67.7853C40.1273 67.6991 40.4392 67.7314 40.7049 67.8752C40.9706 68.0189 41.1684 68.2623 41.2546 68.5519C41.3408 68.8414 41.3085 69.1533 41.1647 69.419L36.0087 78.9938C35.935 79.1267 35.8354 79.2435 35.7158 79.3373C35.5962 79.4311 35.459 79.5 35.3123 79.54L35.1874 79.5603L35.19 79.5759Z" fill="#5C5C5C"/>
<path d="M24.3992 64.8184L42.7738 61.9916" stroke="#5C5C5C" stroke-miterlimit="16" stroke-linecap="round" stroke-dasharray="2 2"/>
<path d="M27.2257 58.458L27.9324 61.9916" stroke="#5C5C5C" stroke-miterlimit="16" stroke-linecap="round" stroke-dasharray="2 2"/>
<path d="M38.533 56.3378L39.2397 59.8714" stroke="#5C5C5C" stroke-miterlimit="16" stroke-linecap="round" stroke-dasharray="2 2"/>
<rect x="56.0515" y="18.0768" width="24.0781" height="19.5634" rx="1" transform="rotate(-13.3283 56.0515 18.0768)" fill="#AAAAAA" stroke="#5C5C5C" stroke-miterlimit="16" stroke-linecap="round" stroke-dasharray="2 2"/>
<rect x="60.3679" y="23.2403" width="18.0586" height="3.00976" transform="rotate(-13.3283 60.3679 23.2403)" fill="#5C5C5C"/>
<rect x="61.4087" y="27.6334" width="4.51464" height="1.50488" transform="rotate(-13.3283 61.4087 27.6334)" fill="#5C5C5C"/>
<rect x="67.2661" y="26.2457" width="12.039" height="1.50488" transform="rotate(-13.3283 67.2661 26.2457)" fill="#5C5C5C"/>
<path d="M28.1532 44.5299C35.3406 45.9118 42.2874 41.2056 43.6693 34.0183C45.0512 26.8309 40.345 19.8841 33.1576 18.5022C25.9703 17.1203 19.0235 21.8265 17.6416 29.0139C16.2597 36.2012 20.9659 43.148 28.1532 44.5299Z" fill="#AAAAAA" stroke="#5C5C5C" stroke-miterlimit="16" stroke-linecap="round" stroke-dasharray="2 2"/>
<path d="M36.581 32.1791L31.3181 31.1671L32.6575 24.2009C32.7082 23.937 32.646 23.6625 32.4845 23.4379C32.323 23.2134 32.0754 23.057 31.7962 23.0033C31.5171 22.9497 31.2292 23.003 30.9959 23.1517C30.7626 23.3004 30.6031 23.5322 30.5523 23.7961L28.8302 32.7527L36.1983 34.1694C36.4775 34.2231 36.7654 34.1697 36.9987 34.0211C37.232 33.8724 37.3915 33.6406 37.4423 33.3766C37.493 33.1127 37.4308 32.8382 37.2693 32.6137C37.1078 32.3891 36.8602 32.2327 36.581 32.1791Z" fill="#5C5C5C"/>
<path d="M89.5762 65.0204C89.5762 65.0204 86.5809 55.5587 86.4812 55.2818L76.0684 50.4529C75.5801 50.2264 74.8629 50.4935 74.6164 51.025L64.4578 72.9306C64.2289 73.4242 64.4883 74.1441 64.9766 74.3706L80.5267 81.5819C81.015 81.8084 81.9529 81.4591 82.1817 80.9655L89.5762 65.0204Z" fill="#AAAAAA" stroke="#5C5C5C" stroke-miterlimit="16" stroke-linecap="round" stroke-dasharray="2 2"/>
<path d="M89.5762 65.0204C89.5762 65.0204 86.5809 55.5587 86.4812 55.2818L76.0684 50.4529C75.5801 50.2264 74.8629 50.4935 74.6164 51.025L64.4578 72.9306C64.2289 73.4242 64.4883 74.1441 64.9766 74.3706L80.5267 81.5819C81.015 81.8084 81.9529 81.4591 82.1817 80.9655L89.5762 65.0204Z" stroke="#5C5C5C" stroke-miterlimit="16" stroke-linecap="round" stroke-dasharray="2 2"/>
<path d="M86.4812 55.2818L83.3121 62.1154L89.5763 65.0204" stroke="#5C5C5C" stroke-miterlimit="16" stroke-linecap="round" stroke-dasharray="2 1"/>
<circle cx="51" cy="8" r="2" fill="#5C5C5C"/>
<circle opacity="0.3" cx="7.5" cy="56.5" r="6.5" fill="#5C5C5C"/>
<circle opacity="0.8" cx="94" cy="48" r="2.5" fill="#353535" stroke="#5C5C5C"/>
<circle opacity="0.8" cx="57" cy="91" r="3.5" fill="#353535" stroke="#5C5C5C"/>
</svg>
