<svg width="100" height="100" viewBox="0 0 100 100" fill="none" xmlns="http://www.w3.org/2000/svg">
<path d="M92 50C92 73.196 73.196 92 50 92C26.804 92 8 73.196 8 50C8 26.804 26.804 8 50 8C73.196 8 92 26.804 92 50Z" fill="#F4F4F4" fill-opacity="0.5"/>
<path d="M83 50C83 68.2254 68.2254 83 50 83C31.7746 83 17 68.2254 17 50C17 31.7746 31.7746 17 50 17C68.2254 17 83 31.7746 83 50Z" fill="#F4F4F4"/>
<path fill-rule="evenodd" clip-rule="evenodd" d="M50 76C64.3594 76 76 64.3594 76 50C76 35.6406 64.3594 24 50 24C35.6406 24 24 35.6406 24 50C24 64.3594 35.6406 76 50 76ZM50 78C65.464 78 78 65.464 78 50C78 34.536 65.464 22 50 22C34.536 22 22 34.536 22 50C22 65.464 34.536 78 50 78Z" fill="#C0CDDC"/>
<path opacity="0.2" d="M94 31.5C94 35.6421 90.6421 39 86.5 39C82.3579 39 79 35.6421 79 31.5C79 27.3579 82.3579 24 86.5 24C90.6421 24 94 27.3579 94 31.5Z" fill="#C0CDDC"/>
<path d="M41.7359 57.6739L24.5613 60.4713C23.7109 60.6098 23.1158 61.4365 23.2543 62.2869L26.8145 84.1455C26.953 84.9959 27.7798 85.591 28.6302 85.4525L45.8048 82.6552C46.6552 82.5167 47.2503 81.69 47.1118 80.8395L43.5516 58.981C43.4131 58.1306 42.5863 57.5354 41.7359 57.6739Z" fill="white"/>
<path fill-rule="evenodd" clip-rule="evenodd" d="M23.7191 60.2665C23.9453 60.124 24.2027 60.0231 24.481 59.9778L25.5544 59.8029C25.8269 59.7585 26.0839 59.9435 26.1283 60.216C26.1727 60.4886 25.9877 60.7455 25.7151 60.7899L24.6417 60.9648C24.5002 60.9878 24.3689 61.0391 24.2519 61.1127C24.0182 61.2599 23.7095 61.1897 23.5624 60.956C23.4152 60.7223 23.4854 60.4136 23.7191 60.2665ZM27.2881 60.0271C27.2437 59.7546 27.4287 59.4977 27.7012 59.4533L29.848 59.1036C30.1206 59.0592 30.3775 59.2442 30.4219 59.5167C30.4663 59.7893 30.2813 60.0462 30.0088 60.0906L27.862 60.4403C27.5894 60.4846 27.3325 60.2997 27.2881 60.0271ZM31.5817 59.3278C31.5374 59.0553 31.7223 58.7983 31.9949 58.7539L34.1417 58.4043C34.4142 58.3599 34.6712 58.5448 34.7156 58.8174C34.76 59.0899 34.575 59.3469 34.3024 59.3913L32.1556 59.7409C31.8831 59.7853 31.6261 59.6004 31.5817 59.3278ZM35.8754 58.6285C35.831 58.3559 36.016 58.099 36.2885 58.0546L38.4353 57.7049C38.7079 57.6605 38.9648 57.8455 39.0092 58.118C39.0536 58.3906 38.8687 58.6475 38.5961 58.6919L36.4493 59.0416C36.1767 59.086 35.9198 58.901 35.8754 58.6285ZM40.1691 57.9291C40.1247 57.6566 40.3096 57.3997 40.5822 57.3553L41.6556 57.1804C41.9339 57.1351 42.21 57.1492 42.4697 57.2125C42.738 57.2778 42.9025 57.5483 42.8371 57.8166C42.7718 58.0849 42.5013 58.2494 42.233 58.184C42.0987 58.1513 41.9578 58.1444 41.8163 58.1674L40.7429 58.3423C40.4704 58.3866 40.2134 58.2017 40.1691 57.9291ZM23.397 61.1857C23.6653 61.2511 23.8298 61.5216 23.7644 61.7899C23.7317 61.9242 23.7248 62.065 23.7478 62.2065L23.8962 63.1173C23.9406 63.3898 23.7556 63.6468 23.483 63.6912C23.2105 63.7356 22.9536 63.5506 22.9092 63.278L22.7608 62.3673C22.7155 62.0889 22.7296 61.8129 22.7929 61.5531C22.8582 61.2848 23.1287 61.1203 23.397 61.1857ZM43.0668 57.982C43.3005 57.8349 43.6092 57.905 43.7564 58.1387C43.8988 58.3649 43.9998 58.6223 44.0451 58.9006L44.1934 59.8114C44.2378 60.0839 44.0529 60.3408 43.7803 60.3852C43.5078 60.4296 43.2508 60.2447 43.2064 59.9721L43.0581 59.0613C43.0351 58.9198 42.9838 58.7885 42.9101 58.6715C42.763 58.4378 42.8332 58.1291 43.0668 57.982ZM23.619 64.5257C23.8915 64.4813 24.1485 64.6663 24.1929 64.9388L24.4895 66.7604C24.5339 67.0329 24.349 67.2899 24.0764 67.3343C23.8039 67.3787 23.5469 67.1937 23.5025 66.9211L23.2059 65.0996C23.1615 64.827 23.3464 64.5701 23.619 64.5257ZM43.9162 61.2198C44.1888 61.1754 44.4457 61.3604 44.4901 61.6329L44.7868 63.4545C44.8312 63.727 44.6462 63.9839 44.3737 64.0283C44.1011 64.0727 43.8442 63.8878 43.7998 63.6152L43.5031 61.7937C43.4587 61.5211 43.6437 61.2642 43.9162 61.2198ZM24.2123 68.1688C24.4849 68.1244 24.7418 68.3094 24.7862 68.5819L25.0829 70.4035C25.1273 70.676 24.9423 70.933 24.6698 70.9774C24.3972 71.0217 24.1403 70.8368 24.0959 70.5642L23.7992 68.7427C23.7548 68.4701 23.9398 68.2132 24.2123 68.1688ZM44.5096 64.8629C44.7822 64.8185 45.0391 65.0034 45.0835 65.276L45.3802 67.0975C45.4246 67.3701 45.2396 67.627 44.9671 67.6714C44.6945 67.7158 44.4376 67.5309 44.3932 67.2583L44.0965 65.4368C44.0521 65.1642 44.2371 64.9073 44.5096 64.8629ZM24.8057 71.8119C25.0783 71.7675 25.3352 71.9525 25.3796 72.225L25.6763 74.0466C25.7207 74.3191 25.5357 74.5761 25.2632 74.6205C24.9906 74.6648 24.7337 74.4799 24.6893 74.2073L24.3926 72.3858C24.3482 72.1132 24.5332 71.8563 24.8057 71.8119ZM45.103 68.506C45.3755 68.4616 45.6325 68.6465 45.6769 68.9191L45.9736 70.7406C46.0179 71.0132 45.833 71.2701 45.5604 71.3145C45.2879 71.3589 45.031 71.174 44.9866 70.9014L44.6899 69.0799C44.6455 68.8073 44.8304 68.5504 45.103 68.506ZM25.3991 75.455C25.6716 75.4106 25.9286 75.5956 25.973 75.8681L26.2697 77.6897C26.314 77.9622 26.1291 78.2192 25.8565 78.2636C25.584 78.3079 25.3271 78.123 25.2827 77.8504L24.986 76.0289C24.9416 75.7563 25.1265 75.4994 25.3991 75.455ZM45.6964 72.1491C45.9689 72.1047 46.2258 72.2896 46.2702 72.5622L46.5669 74.3837C46.6113 74.6563 46.4264 74.9132 46.1538 74.9576C45.8813 75.002 45.6243 74.8171 45.5799 74.5445L45.2832 72.723C45.2389 72.4504 45.4238 72.1935 45.6964 72.1491ZM25.9925 79.0981C26.265 79.0537 26.522 79.2387 26.5663 79.5112L26.863 81.3328C26.9074 81.6053 26.7225 81.8623 26.4499 81.9067C26.1774 81.951 25.9204 81.7661 25.876 81.4935L25.5793 79.672C25.535 79.3994 25.7199 79.1425 25.9925 79.0981ZM46.2897 75.7922C46.5623 75.7478 46.8192 75.9327 46.8636 76.2053L47.1603 78.0268C47.2047 78.2994 47.0197 78.5563 46.7472 78.6007C46.4746 78.6451 46.2177 78.4602 46.1733 78.1876L45.8766 76.3661C45.8322 76.0935 46.0172 75.8366 46.2897 75.7922ZM26.5858 82.7412C26.8584 82.6968 27.1153 82.8818 27.1597 83.1543L27.3081 84.0651C27.3311 84.2066 27.3824 84.338 27.456 84.4549C27.6032 84.6886 27.533 84.9973 27.2993 85.1445C27.0656 85.2916 26.7569 85.2214 26.6098 84.9877C26.4673 84.7615 26.3664 84.5042 26.3211 84.2259L26.1727 83.3151C26.1283 83.0425 26.3133 82.7856 26.5858 82.7412ZM46.8831 79.4353C47.1557 79.3909 47.4126 79.5758 47.457 79.8484L47.6053 80.7592C47.6507 81.0375 47.6366 81.3135 47.5733 81.5733C47.5079 81.8416 47.2374 82.0061 46.9691 81.9407C46.7008 81.8753 46.5363 81.6048 46.6017 81.3366C46.6344 81.2023 46.6414 81.0614 46.6183 80.9199L46.47 80.0092C46.4256 79.7366 46.6106 79.4797 46.8831 79.4353ZM27.529 85.3098C27.5944 85.0415 27.8649 84.877 28.1332 84.9424C28.2675 84.9751 28.4083 84.9821 28.5498 84.959L29.6232 84.7842C29.8958 84.7398 30.1527 84.9247 30.1971 85.1973C30.2415 85.4698 30.0565 85.7268 29.784 85.7712L28.7106 85.946C28.4323 85.9913 28.1562 85.9773 27.8964 85.914C27.6281 85.8486 27.4637 85.5781 27.529 85.3098ZM46.8038 82.1704C46.9509 82.4041 46.8807 82.7128 46.6471 82.8599C46.4208 83.0024 46.1635 83.1033 45.8852 83.1487L44.8118 83.3235C44.5392 83.3679 44.2823 83.1829 44.2379 82.9104C44.1935 82.6378 44.3785 82.3809 44.651 82.3365L45.7244 82.1617C45.8659 82.1386 45.9973 82.0874 46.1142 82.0137C46.3479 81.8666 46.6566 81.9367 46.8038 82.1704ZM31.3569 85.0084C31.3125 84.7358 31.4975 84.4789 31.7701 84.4345L33.9169 84.0848C34.1894 84.0405 34.4464 84.2254 34.4908 84.498C34.5351 84.7705 34.3502 85.0274 34.0776 85.0718L31.9308 85.4215C31.6583 85.4659 31.4013 85.2809 31.3569 85.0084ZM35.6506 84.3091C35.6062 84.0365 35.7912 83.7796 36.0637 83.7352L38.2105 83.3855C38.4831 83.3411 38.74 83.5261 38.7844 83.7986C38.8288 84.0712 38.6438 84.3281 38.3713 84.3725L36.2245 84.7222C35.9519 84.7666 35.695 84.5816 35.6506 84.3091ZM39.9442 83.6097C39.8999 83.3372 40.0848 83.0802 40.3574 83.0358L42.5042 82.6862C42.7767 82.6418 43.0337 82.8267 43.0781 83.0993C43.1225 83.3719 42.9375 83.6288 42.6649 83.6732L40.5181 84.0228C40.2456 84.0672 39.9886 83.8823 39.9442 83.6097Z" fill="#C0CDDC"/>
<path d="M35.1901 79.5759C34.9294 79.6212 34.6611 79.5742 34.4312 79.4431L29.8275 76.763C29.6856 76.6954 29.5591 76.599 29.4562 76.4801C29.3533 76.3611 29.2762 76.2221 29.2296 76.0719C29.1831 75.9217 29.1682 75.7634 29.1858 75.6071C29.2035 75.4508 29.2533 75.2999 29.3322 75.1638C29.411 75.0277 29.5172 74.9094 29.6441 74.8164C29.7709 74.7234 29.9156 74.6577 30.0691 74.6233C30.2226 74.589 30.3816 74.5869 30.5359 74.617C30.6903 74.6472 30.8368 74.709 30.9661 74.7986L34.5134 76.8974L39.1612 68.335C39.3049 68.0693 39.5483 67.8716 39.8379 67.7853C40.1274 67.6991 40.4393 67.7314 40.7051 67.8752C40.9708 68.0189 41.1685 68.2623 41.2547 68.5519C41.3409 68.8414 41.3086 69.1533 41.1649 69.419L36.0089 78.9938C35.9351 79.1267 35.8355 79.2435 35.7159 79.3373C35.5963 79.4311 35.4591 79.5 35.3125 79.54L35.1876 79.5603L35.1901 79.5759Z" fill="#C0CDDC"/>
<path fill-rule="evenodd" clip-rule="evenodd" d="M43.2679 61.9155C43.3099 62.1885 43.1227 62.4438 42.8498 62.4858L41.931 62.6271C41.6581 62.6691 41.4028 62.4819 41.3608 62.2089C41.3188 61.936 41.5061 61.6807 41.779 61.6387L42.6977 61.4974C42.9706 61.4554 43.2259 61.6426 43.2679 61.9155ZM40.5117 62.3396C40.5537 62.6125 40.3665 62.8678 40.0936 62.9098L38.2561 63.1925C37.9832 63.2345 37.7279 63.0472 37.6859 62.7743C37.6439 62.5014 37.8311 62.2461 38.1041 62.2041L39.9415 61.9214C40.2145 61.8794 40.4698 62.0666 40.5117 62.3396ZM36.8368 62.9049C36.8788 63.1779 36.6916 63.4332 36.4187 63.4752L34.5812 63.7578C34.3083 63.7998 34.053 63.6126 34.011 63.3397C33.969 63.0668 34.1562 62.8115 34.4291 62.7695L36.2666 62.4868C36.5395 62.4448 36.7948 62.632 36.8368 62.9049ZM33.1619 63.4703C33.2039 63.7432 33.0167 63.9985 32.7437 64.0405L30.9063 64.3232C30.6333 64.3652 30.378 64.178 30.3361 63.9051C30.2941 63.6321 30.4813 63.3768 30.7542 63.3348L32.5917 63.0522C32.8646 63.0102 33.1199 63.1974 33.1619 63.4703ZM29.487 64.0357C29.529 64.3086 29.3417 64.5639 29.0688 64.6059L27.2313 64.8886C26.9584 64.9306 26.7031 64.7434 26.6611 64.4704C26.6191 64.1975 26.8064 63.9422 27.0793 63.9002L28.9167 63.6175C29.1897 63.5755 29.445 63.7628 29.487 64.0357ZM25.812 64.6011C25.854 64.874 25.6668 65.1293 25.3939 65.1713L24.4751 65.3126C24.2022 65.3546 23.9469 65.1674 23.9049 64.8945C23.8629 64.6215 24.0502 64.3662 24.3231 64.3242L25.2418 64.1829C25.5148 64.1409 25.77 64.3281 25.812 64.6011Z" fill="#C0CDDC"/>
<path fill-rule="evenodd" clip-rule="evenodd" d="M27.1277 57.9677C26.857 58.0219 26.6814 58.2853 26.7355 58.556L26.9122 59.4394C26.9663 59.7102 27.2298 59.8858 27.5005 59.8317C27.7713 59.7775 27.9469 59.5141 27.8928 59.2433L27.7161 58.3599C27.6619 58.0892 27.3985 57.9135 27.1277 57.9677ZM27.6578 60.6179C27.387 60.672 27.2114 60.9355 27.2656 61.2062L27.4422 62.0896C27.4964 62.3604 27.7598 62.536 28.0306 62.4819C28.3014 62.4277 28.477 62.1643 28.4228 61.8935L28.2461 61.0101C28.192 60.7393 27.9286 60.5637 27.6578 60.6179Z" fill="#C0CDDC"/>
<path fill-rule="evenodd" clip-rule="evenodd" d="M38.4351 55.8475C38.1643 55.9017 37.9887 56.1651 38.0429 56.4359L38.2196 57.3193C38.2737 57.5901 38.5371 57.7657 38.8079 57.7115C39.0787 57.6574 39.2543 57.3939 39.2001 57.1232L39.0235 56.2398C38.9693 55.969 38.7059 55.7934 38.4351 55.8475ZM38.9652 58.4977C38.6944 58.5519 38.5188 58.8153 38.5729 59.0861L38.7496 59.9695C38.8038 60.2403 39.0672 60.4159 39.338 60.3617C39.6087 60.3075 39.7843 60.0441 39.7302 59.7734L39.5535 58.89C39.4993 58.6192 39.2359 58.4436 38.9652 58.4977Z" fill="#C0CDDC"/>
<path d="M56.2822 19.0499C56.1548 18.5125 56.4873 17.9736 57.0247 17.8463L78.5081 12.7566C79.0455 12.6293 79.5844 12.9618 79.7117 13.4992L83.7606 30.5895C83.8879 31.1269 83.5555 31.6658 83.0181 31.7931L61.5347 36.8828C60.9972 37.0101 60.4584 36.6777 60.3311 36.1402L56.2822 19.0499Z" fill="white"/>
<path fill-rule="evenodd" clip-rule="evenodd" d="M56.5259 17.8092C56.5416 17.5976 56.692 17.4113 56.9094 17.3598L57.8859 17.1284C58.1547 17.0647 58.4241 17.231 58.4877 17.4997C58.5514 17.7684 58.3852 18.0378 58.1165 18.1015L57.14 18.3328C57.0591 18.352 56.9782 18.3503 56.9029 18.3313C56.8972 18.4088 56.8733 18.4861 56.8297 18.5568C56.7621 18.6664 56.7368 18.8001 56.7687 18.9346C56.8236 19.1666 56.7073 19.3991 56.5016 19.4993C56.7304 19.4965 56.9387 19.6521 56.9936 19.8841L57.4435 21.783C57.5072 22.0517 57.3409 22.3212 57.0722 22.3848C56.8035 22.4485 56.5341 22.2822 56.4704 22.0135L56.0206 20.1146C55.9656 19.8827 56.082 19.6502 56.2876 19.55C56.0589 19.5527 55.8506 19.3971 55.7956 19.1651C55.7002 18.7622 55.7775 18.3578 55.9786 18.0318C56.096 17.8416 56.3201 17.7575 56.5259 17.8092ZM59.4677 17.2675C59.4041 16.9988 59.5703 16.7294 59.839 16.6657L61.792 16.203C62.0607 16.1394 62.3302 16.3056 62.3938 16.5743C62.4575 16.843 62.2913 17.1124 62.0225 17.1761L60.0695 17.6388C59.8008 17.7024 59.5314 17.5362 59.4677 17.2675ZM63.3738 16.3421C63.3101 16.0734 63.4764 15.804 63.7451 15.7403L65.6981 15.2776C65.9668 15.214 66.2362 15.3802 66.2999 15.6489C66.3635 15.9176 66.1973 16.187 65.9286 16.2507L63.9756 16.7134C63.7069 16.777 63.4374 16.6108 63.3738 16.3421ZM67.2799 15.4167C67.2162 15.148 67.3824 14.8786 67.6511 14.8149L69.6042 14.3522C69.8729 14.2886 70.1423 14.4548 70.206 14.7235C70.2696 14.9922 70.1034 15.2616 69.8347 15.3253L67.8817 15.788C67.613 15.8516 67.3435 15.6854 67.2799 15.4167ZM71.1859 14.4913C71.1223 14.2226 71.2885 13.9532 71.5572 13.8895L73.5102 13.4268C73.7789 13.3632 74.0484 13.5294 74.112 13.7981C74.1757 14.0668 74.0095 14.3362 73.7408 14.3999L71.7877 14.8626C71.519 14.9263 71.2496 14.76 71.1859 14.4913ZM75.092 13.5659C75.0283 13.2972 75.1946 13.0278 75.4633 12.9641L77.4163 12.5014C77.685 12.4378 77.9545 12.604 78.0181 12.8727C78.0818 13.1414 77.9155 13.4109 77.6468 13.4745L75.6938 13.9372C75.4251 14.0009 75.1557 13.8346 75.092 13.5659ZM78.0216 12.8719C77.9579 12.6032 78.1241 12.3338 78.3928 12.2701C78.7958 12.1746 79.2002 12.2519 79.5262 12.4531C79.7164 12.5704 79.8005 12.7946 79.7488 13.0004C79.9604 13.0161 80.1467 13.1664 80.1982 13.3839L80.4232 14.3334C80.4868 14.6021 80.3206 14.8715 80.0519 14.9352C79.7832 14.9988 79.5138 14.8326 79.4501 14.5639L79.2252 13.6144C79.206 13.5336 79.2077 13.4527 79.2267 13.3774C79.1492 13.3717 79.0719 13.3478 79.0012 13.3042C78.8916 13.2366 78.7579 13.2113 78.6234 13.2432C78.3547 13.3068 78.0852 13.1406 78.0216 12.8719ZM80.2712 15.861C80.5399 15.7974 80.8094 15.9636 80.873 16.2323L81.3229 18.1312C81.3866 18.3999 81.2204 18.6694 80.9517 18.733C80.6829 18.7967 80.4135 18.6305 80.3499 18.3618L79.9 16.4628C79.8363 16.1941 80.0025 15.9247 80.2712 15.861ZM57.2916 23.3107C57.5603 23.247 57.8297 23.4132 57.8934 23.6819L58.3433 25.5809C58.4069 25.8496 58.2407 26.119 57.972 26.1827C57.7033 26.2463 57.4339 26.0801 57.3702 25.8114L56.9203 23.9125C56.8567 23.6438 57.0229 23.3743 57.2916 23.3107ZM81.171 19.6589C81.4397 19.5952 81.7091 19.7614 81.7728 20.0302L82.2227 21.9291C82.2863 22.1978 82.1201 22.4672 81.8514 22.5309C81.5827 22.5945 81.3133 22.4283 81.2496 22.1596L80.7997 20.2607C80.7361 19.992 80.9023 19.7225 81.171 19.6589ZM58.1913 27.1085C58.46 27.0449 58.7295 27.2111 58.7931 27.4798L59.243 29.3787C59.3067 29.6474 59.1405 29.9169 58.8717 29.9805C58.603 30.0442 58.3336 29.878 58.27 29.6093L57.8201 27.7103C57.7564 27.4416 57.9226 27.1722 58.1913 27.1085ZM82.0708 23.4567C82.3395 23.3931 82.6089 23.5593 82.6726 23.828L83.1224 25.7269C83.1861 25.9956 83.0199 26.2651 82.7512 26.3287C82.4825 26.3924 82.213 26.2262 82.1494 25.9575L81.6995 24.0585C81.6358 23.7898 81.8021 23.5204 82.0708 23.4567ZM59.0911 30.9064C59.3598 30.8427 59.6292 31.009 59.6929 31.2777L60.1428 33.1766C60.2064 33.4453 60.0402 33.7147 59.7715 33.7784C59.5028 33.842 59.2334 33.6758 59.1697 33.4071L58.7198 31.5082C58.6562 31.2395 58.8224 30.9701 59.0911 30.9064ZM82.9705 27.2546C83.2392 27.1909 83.5086 27.3572 83.5723 27.6259L84.0222 29.5248C84.0771 29.7568 83.9608 29.9893 83.7551 30.0895C83.9839 30.0867 84.1922 30.2423 84.2471 30.4743C84.3426 30.8772 84.2653 31.2816 84.0641 31.6076C83.9468 31.7979 83.7226 31.8819 83.5168 31.8302C83.5011 32.0418 83.3508 32.2281 83.1333 32.2797L82.1568 32.511C81.8881 32.5747 81.6187 32.4084 81.555 32.1397C81.4913 31.871 81.6576 31.6016 81.9263 31.5379L82.9028 31.3066C82.9836 31.2874 83.0645 31.2891 83.1399 31.3081C83.1456 31.2306 83.1694 31.1533 83.2131 31.0826C83.2807 30.973 83.3059 30.8393 83.2741 30.7048C83.2191 30.4728 83.3355 30.2404 83.5412 30.1401C83.3124 30.1429 83.1041 29.9873 83.0491 29.7553L82.5992 27.8564C82.5356 27.5877 82.7018 27.3183 82.9705 27.2546ZM59.9909 34.7043C60.2596 34.6406 60.529 34.8068 60.5926 35.0755L60.8176 36.025C60.8367 36.1058 60.8351 36.1867 60.8161 36.2621C60.8936 36.2678 60.9709 36.2916 61.0416 36.3353C61.1512 36.4028 61.2849 36.4281 61.4194 36.3963C61.6881 36.3326 61.9575 36.4988 62.0212 36.7675C62.0848 37.0362 61.9186 37.3057 61.6499 37.3693C61.247 37.4648 60.8426 37.3875 60.5165 37.1863C60.3263 37.069 60.2423 36.8448 60.294 36.639C60.0824 36.6233 59.896 36.473 59.8445 36.2555L59.6196 35.3061C59.5559 35.0373 59.7221 34.7679 59.9909 34.7043ZM62.0246 36.7667C61.961 36.498 62.1272 36.2286 62.3959 36.1649L64.3489 35.7022C64.6176 35.6385 64.8871 35.8048 64.9507 36.0735C65.0144 36.3422 64.8482 36.6116 64.5795 36.6753L62.6264 37.138C62.3577 37.2016 62.0883 37.0354 62.0246 36.7667ZM65.9307 35.8413C65.8671 35.5726 66.0333 35.3032 66.302 35.2395L68.255 34.7768C68.5237 34.7132 68.7932 34.8794 68.8568 35.1481C68.9205 35.4168 68.7542 35.6862 68.4855 35.7499L66.5325 36.2126C66.2638 36.2762 65.9944 36.11 65.9307 35.8413ZM69.8368 34.9159C69.7731 34.6472 69.9393 34.3778 70.2081 34.3141L72.1611 33.8514C72.4298 33.7878 72.6992 33.954 72.7629 34.2227C72.8265 34.4914 72.6603 34.7608 72.3916 34.8245L70.4386 35.2872C70.1699 35.3508 69.9004 35.1846 69.8368 34.9159ZM73.7429 33.9905C73.6792 33.7218 73.8454 33.4524 74.1141 33.3887L76.0672 32.926C76.3359 32.8624 76.6053 33.0286 76.669 33.2973C76.7326 33.566 76.5664 33.8354 76.2977 33.8991L74.3447 34.3618C74.076 34.4255 73.8065 34.2592 73.7429 33.9905ZM77.6489 33.0651C77.5853 32.7964 77.7515 32.527 78.0202 32.4633L79.9732 32.0006C80.2419 31.937 80.5114 32.1032 80.575 32.3719C80.6387 32.6406 80.4725 32.91 80.2038 32.9737L78.2507 33.4364C77.982 33.5001 77.7126 33.3338 77.6489 33.0651Z" fill="#C0CDDC"/>
<path d="M60.3679 23.2403L77.9401 19.0773L78.6339 22.006L61.0618 26.169L60.3679 23.2403Z" fill="#C0CDDC"/>
<path d="M61.4089 27.6334L65.802 26.5926L66.1489 28.057L61.7559 29.0977L61.4089 27.6334Z" fill="#C0CDDC"/>
<path d="M67.2662 26.2457L78.981 23.4703L79.3279 24.9347L67.6132 27.71L67.2662 26.2457Z" fill="#C0CDDC"/>
<path d="M28.1533 44.5299C35.3407 45.9118 42.2875 41.2056 43.6694 34.0183C45.0513 26.8309 40.3451 19.8841 33.1578 18.5022C25.9704 17.1203 19.0236 21.8265 17.6417 29.0139C16.2598 36.2012 20.966 43.148 28.1533 44.5299Z" fill="white"/>
<path fill-rule="evenodd" clip-rule="evenodd" d="M32.1842 17.8484C32.5393 17.8885 32.8955 17.9426 33.2522 18.0112C33.6088 18.0798 33.9597 18.1616 34.3044 18.2561C34.5707 18.329 34.7274 18.6041 34.6544 18.8704C34.5815 19.1367 34.3064 19.2935 34.0401 19.2205C33.7203 19.1329 33.3946 19.0569 33.0634 18.9932C32.7321 18.9295 32.4015 18.8793 32.072 18.8421C31.7976 18.8111 31.6003 18.5635 31.6313 18.2891C31.6622 18.0147 31.9098 17.8174 32.1842 17.8484ZM35.6729 19.2374C35.7867 18.9858 36.083 18.874 36.3346 18.9879C36.997 19.2875 37.6283 19.6368 38.2247 20.0301C38.4552 20.1822 38.5189 20.4923 38.3668 20.7228C38.2148 20.9533 37.9047 21.017 37.6742 20.8649C37.1214 20.5004 36.5363 20.1767 35.9224 19.899C35.6708 19.7852 35.5591 19.489 35.6729 19.2374ZM30.5493 18.2522C30.5617 18.5281 30.3481 18.7618 30.0723 18.7742C29.3991 18.8044 28.7358 18.888 28.0872 19.0216C27.8168 19.0773 27.5523 18.9032 27.4966 18.6328C27.4409 18.3623 27.615 18.0979 27.8855 18.0422C28.5852 17.898 29.3011 17.8078 30.0274 17.7752C30.3032 17.7628 30.5369 17.9764 30.5493 18.2522ZM39.2209 21.3884C39.4072 21.1846 39.7235 21.1705 39.9273 21.3568C40.4602 21.8441 40.9528 22.3715 41.401 22.9332C41.5733 23.1491 41.5379 23.4637 41.3221 23.6359C41.1062 23.8081 40.7916 23.7728 40.6194 23.557C40.2036 23.0359 39.7467 22.5467 39.2525 22.0948C39.0487 21.9085 39.0345 21.5922 39.2209 21.3884ZM26.4567 18.9342C26.5541 19.1926 26.4237 19.481 26.1653 19.5785C25.5388 19.8149 24.9331 20.0998 24.3537 20.4295C24.1137 20.5661 23.8084 20.4822 23.6718 20.2422C23.5352 20.0022 23.6191 19.697 23.8591 19.5604C24.4836 19.205 25.1367 18.8978 25.8124 18.6429C26.0707 18.5454 26.3592 18.6758 26.4567 18.9342ZM41.9294 24.5323C42.1694 24.3957 42.4747 24.4796 42.6112 24.7196C42.9667 25.3442 43.2738 25.9972 43.5287 26.6729C43.6262 26.9312 43.4958 27.2197 43.2374 27.3172C42.979 27.4146 42.6906 27.2842 42.5931 27.0258C42.3567 26.3993 42.0718 25.7936 41.7421 25.2142C41.6055 24.9742 41.6894 24.6689 41.9294 24.5323ZM22.7754 20.8495C22.9476 21.0654 22.9123 21.38 22.6964 21.5522C22.1754 21.968 21.6862 22.4249 21.2343 22.9191C21.048 23.1229 20.7317 23.1371 20.5279 22.9507C20.3241 22.7644 20.31 22.4481 20.4963 22.2443C20.9836 21.7114 21.511 21.2188 22.0727 20.7706C22.2885 20.5983 22.6032 20.6337 22.7754 20.8495ZM43.5388 28.3571C43.8093 28.3014 44.0737 28.4755 44.1294 28.746C44.2736 29.4457 44.3638 30.1616 44.3965 30.8879C44.4088 31.1638 44.1953 31.3974 43.9194 31.4098C43.6435 31.4222 43.4099 31.2086 43.3975 30.9328C43.3672 30.2596 43.2836 29.5963 43.15 28.9477C43.0943 28.6773 43.2684 28.4129 43.5388 28.3571ZM19.8623 23.8048C20.0928 23.9568 20.1564 24.2669 20.0044 24.4975C19.6398 25.0502 19.3162 25.6353 19.0385 26.2492C18.9247 26.5008 18.6284 26.6125 18.3768 26.4987C18.1252 26.3849 18.0135 26.0887 18.1273 25.8371C18.427 25.1746 18.7763 24.5433 19.1696 23.9469C19.3217 23.7164 19.6318 23.6527 19.8623 23.8048ZM43.8825 32.4918C44.1569 32.5227 44.3542 32.7703 44.3232 33.0447C44.2831 33.3998 44.229 33.756 44.1604 34.1127C44.0918 34.4694 44.01 34.8202 43.9156 35.1649C43.8426 35.4312 43.5675 35.5879 43.3012 35.515C43.0349 35.442 42.8781 35.1669 42.9511 34.9006C43.0388 34.5808 43.1147 34.2551 43.1784 33.9239C43.2421 33.5926 43.2923 33.262 43.3295 32.9325C43.3605 32.6581 43.6081 32.4608 43.8825 32.4918ZM18.0099 27.5172C18.2762 27.5902 18.433 27.8652 18.36 28.1315C18.2724 28.4513 18.1964 28.777 18.1327 29.1083C18.069 29.4395 18.0188 29.7702 17.9816 30.0996C17.9506 30.374 17.703 30.5713 17.4286 30.5404C17.1542 30.5094 16.9569 30.2618 16.9879 29.9874C17.028 29.6323 17.0821 29.2761 17.1507 28.9194C17.2193 28.5628 17.3011 28.2119 17.3955 27.8672C17.4685 27.6009 17.7436 27.4442 18.0099 27.5172ZM42.9343 36.5334C43.1859 36.6472 43.2976 36.9435 43.1838 37.1951C42.8841 37.8575 42.5348 38.4888 42.1415 39.0852C41.9894 39.3158 41.6793 39.3794 41.4488 39.2273C41.2183 39.0753 41.1547 38.7652 41.3067 38.5347C41.6713 37.9819 41.9949 37.3969 42.2726 36.7829C42.3864 36.5313 42.6827 36.4196 42.9343 36.5334ZM17.3917 31.6223C17.6676 31.6099 17.9013 31.8235 17.9136 32.0994C17.9439 32.7725 18.0275 33.4359 18.1611 34.0844C18.2168 34.3549 18.0427 34.6193 17.7723 34.675C17.5018 34.7307 17.2374 34.5566 17.1817 34.2861C17.0375 33.5864 16.9473 32.8706 16.9146 32.1442C16.9023 31.8684 17.1158 31.6347 17.3917 31.6223ZM40.7832 40.0814C40.987 40.2677 41.0012 40.584 40.8148 40.7878C40.3275 41.3207 39.8001 41.8133 39.2384 42.2615C39.0226 42.4338 38.708 42.3984 38.5357 42.1826C38.3635 41.9667 38.3988 41.6521 38.6147 41.4799C39.1357 41.0641 39.6249 40.6072 40.0768 40.113C40.2631 39.9092 40.5794 39.895 40.7832 40.0814ZM18.0737 35.715C18.3321 35.6175 18.6205 35.7479 18.718 36.0063C18.9544 36.6328 19.2393 37.2385 19.569 37.8179C19.7056 38.0579 19.6217 38.3632 19.3817 38.4998C19.1417 38.6364 18.8364 38.5525 18.6999 38.3125C18.3444 37.688 18.0373 37.0349 17.7824 36.3593C17.6849 36.1009 17.8153 35.8124 18.0737 35.715ZM19.989 39.3962C20.2049 39.224 20.5195 39.2593 20.6917 39.4752C21.1075 39.9962 21.5644 40.4854 22.0586 40.9373C22.2624 41.1236 22.2766 41.4399 22.0902 41.6437C21.9039 41.8475 21.5876 41.8617 21.3838 41.6753C20.8509 41.188 20.3583 40.6606 19.9101 40.0989C19.7378 39.8831 19.7732 39.5685 19.989 39.3962ZM37.6393 42.7899C37.7759 43.0299 37.692 43.3352 37.452 43.4717C36.8275 43.8272 36.1744 44.1343 35.4988 44.3892C35.2404 44.4867 34.9519 44.3563 34.8544 44.0979C34.757 43.8396 34.8874 43.5511 35.1458 43.4536C35.7723 43.2172 36.378 42.9323 36.9574 42.6026C37.1974 42.466 37.5027 42.5499 37.6393 42.7899ZM22.9443 42.3093C23.0963 42.0788 23.4064 42.0152 23.637 42.1672C24.1897 42.5318 24.7748 42.8554 25.3887 43.1331C25.6403 43.2469 25.752 43.5432 25.6382 43.7948C25.5244 44.0464 25.2281 44.1581 24.9765 44.0443C24.3141 43.7446 23.6828 43.3954 23.0864 43.002C22.8559 42.85 22.7922 42.5398 22.9443 42.3093ZM33.8145 44.3994C33.8702 44.6698 33.6961 44.9342 33.4256 44.9899C32.7259 45.1341 32.0101 45.2243 31.2837 45.257C31.0079 45.2694 30.7742 45.0558 30.7618 44.7799C30.7494 44.504 30.963 44.2704 31.2389 44.258C31.912 44.2277 32.5753 44.1441 33.2239 44.0105C33.4943 43.9548 33.7588 44.1289 33.8145 44.3994ZM26.6567 44.1617C26.7297 43.8954 27.0047 43.7386 27.271 43.8116C27.5908 43.8993 27.9165 43.9752 28.2477 44.0389C28.579 44.1026 28.9096 44.1528 29.2391 44.19C29.5135 44.221 29.7108 44.4686 29.6799 44.743C29.6489 45.0174 29.4013 45.2147 29.1269 45.1837C28.7718 45.1436 28.4156 45.0895 28.0589 45.0209C27.7023 44.9523 27.3514 44.8705 27.0067 44.7761C26.7404 44.7031 26.5837 44.428 26.6567 44.1617Z" fill="#C0CDDC"/>
<path d="M36.5811 32.1791L31.3182 31.1672L32.6576 24.2009C32.7084 23.937 32.6461 23.6625 32.4846 23.4379C32.3231 23.2134 32.0755 23.057 31.7964 23.0034C31.5172 22.9497 31.2293 23.003 30.996 23.1517C30.7627 23.3004 30.6032 23.5322 30.5524 23.7961L28.8303 32.7527L36.1985 34.1694C36.4776 34.2231 36.7655 34.1697 36.9988 34.0211C37.2321 33.8724 37.3916 33.6406 37.4424 33.3766C37.4931 33.1127 37.4309 32.8382 37.2694 32.6137C37.1079 32.3891 36.8603 32.2327 36.5811 32.1791Z" fill="#C0CDDC"/>
<path d="M89.5762 65.0204C89.5762 65.0204 86.5809 55.5587 86.4812 55.2818L76.0684 50.4529C75.5801 50.2264 74.8629 50.4935 74.6164 51.025L64.4578 72.9306C64.2289 73.4242 64.4883 74.1441 64.9766 74.3706L80.5267 81.5819C81.015 81.8084 81.9529 81.4591 82.1817 80.9655L89.5762 65.0204Z" fill="white"/>
<path fill-rule="evenodd" clip-rule="evenodd" d="M75.6376 49.8726C75.8498 49.8666 76.0714 49.9032 76.2787 49.9993L77.1464 50.4017C77.3969 50.5179 77.5058 50.8151 77.3897 51.0657C77.2735 51.3162 76.9762 51.4251 76.7257 51.3089L75.858 50.9065C75.8103 50.8844 75.7458 50.8699 75.6655 50.8722C75.5531 50.8753 75.4483 50.8411 75.363 50.7807C75.3429 50.8845 75.2899 50.9827 75.205 51.0584C75.1438 51.113 75.0987 51.1734 75.07 51.2354L74.6467 52.1481C74.5305 52.3986 74.2333 52.5075 73.9828 52.3914C73.7322 52.2752 73.6233 51.9779 73.7395 51.7274L74.1628 50.8147C74.2549 50.6161 74.3872 50.4478 74.5394 50.3121C74.7165 50.1541 74.9749 50.1453 75.1607 50.2767C75.2043 50.0518 75.3991 49.8792 75.6376 49.8726ZM78.2179 51.4498C78.3341 51.1992 78.6314 51.0903 78.8819 51.2065L80.6174 52.0113C80.8679 52.1275 80.9768 52.4248 80.8606 52.6753C80.7444 52.9258 80.4472 53.0347 80.1966 52.9185L78.4612 52.1137C78.2107 51.9975 78.1018 51.7003 78.2179 51.4498ZM81.6889 53.0594C81.805 52.8089 82.1023 52.7 82.3528 52.8162L84.0883 53.621C84.3388 53.7371 84.4477 54.0344 84.3315 54.2849C84.2154 54.5354 83.9181 54.6443 83.6676 54.5282L81.9321 53.7233C81.6816 53.6072 81.5727 53.3099 81.6889 53.0594ZM85.1598 54.669C85.276 54.4185 85.5732 54.3096 85.8237 54.4258L86.8808 54.916L86.9515 55.1123C86.9721 55.1694 87.0722 55.4806 87.2179 55.9363C87.3019 56.1993 87.1568 56.4807 86.8938 56.5648C86.6308 56.6488 86.3494 56.5038 86.2653 56.2407C86.1912 56.0089 86.1304 55.8192 86.0861 55.6819C86.0819 55.6688 86.0778 55.6562 86.0739 55.6441L85.403 55.333C85.1525 55.2168 85.0436 54.9195 85.1598 54.669ZM87.1078 57.2374C87.371 57.1537 87.6521 57.2993 87.7358 57.5624C87.8964 58.0676 88.0717 58.6196 88.2517 59.1867C88.3352 59.4499 88.1896 59.731 87.9264 59.8145C87.6632 59.8981 87.3821 59.7524 87.2986 59.4892C87.1186 58.9222 86.9433 58.3703 86.7828 57.8654C86.6991 57.6022 86.8447 57.3211 87.1078 57.2374ZM73.5569 53.3096C73.8074 53.4258 73.9163 53.7231 73.8002 53.9736L72.9536 55.7991C72.8374 56.0496 72.5402 56.1585 72.2897 56.0423C72.0391 55.9261 71.9302 55.6289 72.0464 55.3783L72.893 53.5529C73.0091 53.3024 73.3064 53.1935 73.5569 53.3096ZM88.1393 60.4856C88.4025 60.4022 88.6835 60.5479 88.767 60.8111L89.2822 62.4363C89.3656 62.6996 89.2198 62.9806 88.9566 63.064C88.6933 63.1474 88.4123 63.0016 88.3289 62.7384L87.8138 61.1134C87.7303 60.8501 87.876 60.5691 88.1393 60.4856ZM89.1692 63.7353C89.4325 63.652 89.7135 63.7978 89.7969 64.061L90.0526 64.8686L90.1115 65.0546L89.5676 66.2273C89.4515 66.4778 89.1542 66.5868 88.9037 66.4706C88.6532 66.3544 88.5443 66.0571 88.6605 65.8066L89.0409 64.9862L88.8435 64.363C88.7602 64.0997 88.906 63.8187 89.1692 63.7353ZM71.8638 56.9606C72.1143 57.0767 72.2232 57.374 72.107 57.6245L71.2605 59.45C71.1443 59.7005 70.8471 59.8094 70.5965 59.6932C70.346 59.5771 70.2371 59.2798 70.3533 59.0293L71.1999 57.2038C71.316 56.9533 71.6133 56.8444 71.8638 56.9606ZM88.4001 67.5565C88.6506 67.6727 88.7595 67.97 88.6433 68.2205L87.719 70.2136C87.6028 70.4641 87.3056 70.573 87.0551 70.4569C86.8045 70.3407 86.6956 70.0434 86.8118 69.7929L87.7361 67.7998C87.8523 67.5493 88.1496 67.4403 88.4001 67.5565ZM70.1707 60.6115C70.4212 60.7277 70.5301 61.0249 70.4139 61.2755L69.5674 63.1009C69.4512 63.3514 69.1539 63.4603 68.9034 63.3442C68.6529 63.228 68.544 62.9307 68.6602 62.6802L69.5067 60.8547C69.6229 60.6042 69.9202 60.4953 70.1707 60.6115ZM86.5515 71.5428C86.802 71.659 86.9109 71.9562 86.7947 72.2068L85.8704 74.1999C85.7542 74.4504 85.457 74.5593 85.2064 74.4431C84.9559 74.327 84.847 74.0297 84.9632 73.7792L85.8875 71.786C86.0037 71.5355 86.3009 71.4266 86.5515 71.5428ZM68.4776 64.2624C68.7281 64.3786 68.837 64.6759 68.7208 64.9264L67.8743 66.7518C67.7581 67.0024 67.4608 67.1113 67.2103 66.9951C66.9598 66.8789 66.8509 66.5816 66.9671 66.3311L67.8136 64.5057C67.9298 64.2552 68.2271 64.1463 68.4776 64.2624ZM84.7028 75.5291C84.9533 75.6453 85.0623 75.9425 84.9461 76.193L84.0218 78.1862C83.9056 78.4367 83.6083 78.5456 83.3578 78.4294C83.1073 78.3132 82.9984 78.016 83.1146 77.7655L84.0389 75.7723C84.1551 75.5218 84.4523 75.4129 84.7028 75.5291ZM66.7845 67.9134C67.035 68.0295 67.1439 68.3268 67.0277 68.5773L66.1812 70.4028C66.065 70.6533 65.7677 70.7622 65.5172 70.646C65.2667 70.5298 65.1578 70.2326 65.274 69.9821L66.1205 68.1566C66.2367 67.9061 66.534 67.7972 66.7845 67.9134ZM82.8542 79.5154C83.1047 79.6315 83.2136 79.9288 83.0974 80.1793L82.6353 81.1759C82.5286 81.4059 82.351 81.5871 82.1691 81.7216C81.9567 81.8786 81.661 81.8424 81.4921 81.6446C81.4943 81.905 81.2945 82.1263 81.0309 82.1469C80.8043 82.1645 80.5489 82.1434 80.3163 82.0355L79.3445 81.5848C79.0939 81.4686 78.985 81.1714 79.1012 80.9208C79.2174 80.6703 79.5146 80.5614 79.7652 80.6776L80.737 81.1283C80.7653 81.1414 80.8349 81.1591 80.9532 81.1499C81.1187 81.137 81.2716 81.2062 81.3719 81.3232C81.3709 81.1688 81.4411 81.0162 81.5747 80.9174C81.6702 80.8469 81.7135 80.7867 81.7281 80.7552L82.1903 79.7586C82.3064 79.5081 82.6037 79.3992 82.8542 79.5154ZM65.0914 71.5643C65.3419 71.6805 65.4508 71.9777 65.3346 72.2282L64.9113 73.141C64.8884 73.1904 64.8733 73.2559 64.8736 73.336C64.874 73.4453 64.8393 73.5465 64.7801 73.6289C64.8779 73.6549 64.9687 73.7107 65.0377 73.7949C65.088 73.8562 65.1401 73.8953 65.1869 73.917L66.1588 74.3677C66.4093 74.4839 66.5182 74.7811 66.402 75.0316C66.2859 75.2822 65.9886 75.3911 65.7381 75.2749L64.7662 74.8242C64.5633 74.7301 64.3956 74.5888 64.2647 74.4292C64.118 74.2504 64.1159 74.0004 64.2446 73.8209C64.0316 73.7642 63.8744 73.5704 63.8736 73.3395C63.8729 73.1347 63.911 72.921 64.0041 72.7203L64.4274 71.8075C64.5436 71.557 64.8409 71.4481 65.0914 71.5643ZM67.4386 75.5123C67.5548 75.2618 67.852 75.1529 68.1026 75.2691L70.0463 76.1705C70.2968 76.2867 70.4057 76.584 70.2896 76.8345C70.1734 77.085 69.8761 77.1939 69.6256 77.0777L67.6819 76.1763C67.4313 76.0601 67.3224 75.7629 67.4386 75.5123ZM71.3261 77.3152C71.4423 77.0647 71.7396 76.9558 71.9901 77.0719L73.9339 77.9734C74.1844 78.0895 74.2933 78.3868 74.1771 78.6373C74.0609 78.8878 73.7637 78.9967 73.5132 78.8805L71.5694 77.9791C71.3189 77.863 71.21 77.5657 71.3261 77.3152ZM75.2137 79.118C75.3299 78.8675 75.6271 78.7586 75.8776 78.8748L77.8214 79.7762C78.0719 79.8924 78.1808 80.1896 78.0646 80.4401C77.9485 80.6907 77.6512 80.7996 77.4007 80.6834L75.4569 79.782C75.2064 79.6658 75.0975 79.3685 75.2137 79.118Z" fill="#C0CDDC"/>
<path fill-rule="evenodd" clip-rule="evenodd" d="M86.6915 54.8282C86.942 54.9444 87.0509 55.2416 86.9348 55.4922L86.5826 56.2514C86.509 56.4103 86.3625 56.5122 86.2013 56.5359C86.2874 56.6742 86.3042 56.8519 86.2305 57.0107L85.5263 58.5293C85.4526 58.6882 85.3061 58.7901 85.1449 58.8138C85.231 58.9521 85.2478 59.1298 85.1742 59.2886L84.4699 60.8072C84.3963 60.966 84.2498 61.068 84.0886 61.0916C84.1746 61.23 84.1915 61.4076 84.1178 61.5665L83.976 61.8722L84.5665 62.146C84.817 62.2622 84.9259 62.5594 84.8097 62.8099C84.6935 63.0605 84.3963 63.1694 84.1458 63.0532L82.6481 62.3587L83.2106 61.1458C83.2843 60.9869 83.4307 60.885 83.5919 60.8613C83.5059 60.723 83.4891 60.5453 83.5627 60.3865L84.267 58.8679C84.3406 58.7091 84.4871 58.6071 84.6483 58.5834C84.5622 58.4451 84.5454 58.2675 84.6191 58.1086L85.3233 56.59C85.397 56.4312 85.5435 56.3293 85.7047 56.3056C85.6186 56.1672 85.6018 55.9896 85.6754 55.8307L86.0276 55.0714C86.1437 54.8209 86.441 54.712 86.6915 54.8282ZM84.9465 62.8734C85.0627 62.6229 85.36 62.514 85.6105 62.6302L87.6985 63.5985C87.9491 63.7147 88.058 64.0119 87.9418 64.2624C87.8256 64.513 87.5283 64.6219 87.2778 64.5057L85.1898 63.5373C84.9393 63.4212 84.8304 63.1239 84.9465 62.8734ZM88.0786 64.3259C88.1948 64.0754 88.4921 63.9665 88.7426 64.0826L89.7866 64.5668C90.0371 64.683 90.146 64.9802 90.0298 65.2308C89.9137 65.4813 89.6164 65.5902 89.3659 65.474L88.3219 64.9898C88.0713 64.8737 87.9624 64.5764 88.0786 64.3259Z" fill="#C0CDDC"/>
<path d="M53 8C53 9.10457 52.1046 10 51 10C49.8954 10 49 9.10457 49 8C49 6.89543 49.8954 6 51 6C52.1046 6 53 6.89543 53 8Z" fill="#C0CDDC"/>
<path opacity="0.3" d="M14 56.5C14 60.0899 11.0899 63 7.5 63C3.91015 63 1 60.0899 1 56.5C1 52.9101 3.91015 50 7.5 50C11.0899 50 14 52.9101 14 56.5Z" fill="#C0CDDC"/>
<path opacity="0.8" d="M97 48C97 49.6569 95.6569 51 94 51C92.3431 51 91 49.6569 91 48C91 46.3431 92.3431 45 94 45C95.6569 45 97 46.3431 97 48Z" fill="white"/>
<path opacity="0.8" fill-rule="evenodd" clip-rule="evenodd" d="M94 50C95.1046 50 96 49.1046 96 48C96 46.8954 95.1046 46 94 46C92.8954 46 92 46.8954 92 48C92 49.1046 92.8954 50 94 50ZM94 51C95.6569 51 97 49.6569 97 48C97 46.3431 95.6569 45 94 45C92.3431 45 91 46.3431 91 48C91 49.6569 92.3431 51 94 51Z" fill="#C0CDDC"/>
<path opacity="0.8" d="M61 91C61 93.2091 59.2091 95 57 95C54.7909 95 53 93.2091 53 91C53 88.7909 54.7909 87 57 87C59.2091 87 61 88.7909 61 91Z" fill="white"/>
<path opacity="0.8" fill-rule="evenodd" clip-rule="evenodd" d="M57 94C58.6569 94 60 92.6569 60 91C60 89.3431 58.6569 88 57 88C55.3431 88 54 89.3431 54 91C54 92.6569 55.3431 94 57 94ZM57 95C59.2091 95 61 93.2091 61 91C61 88.7909 59.2091 87 57 87C54.7909 87 53 88.7909 53 91C53 93.2091 54.7909 95 57 95Z" fill="#C0CDDC"/>
</svg>
