<svg width="100" height="100" viewBox="0 0 100 100" fill="none" xmlns="http://www.w3.org/2000/svg">
<circle cx="50" cy="50" r="42" fill="#F4F4F4" fill-opacity="0.1"/>
<circle cx="50" cy="50" r="33" fill="#F4F4F4" fill-opacity="0.2"/>
<path d="M41.3333 45.5C41.3333 45.5 37.1028 41.6111 36.9929 41.5H31.5716C31.2858 41.5 31 41.7889 31 42.1V54.9222C31 55.2111 31.2858 55.5 31.5716 55.5H40.6738C40.9596 55.5 41.3333 55.1222 41.3333 54.8333V45.5Z" fill="#AAAAAA" stroke="#5C5C5C" stroke-miterlimit="16" stroke-linecap="round"/>
<path d="M36.9929 41.5V45.5H41.1596" stroke="#5C5C5C" stroke-miterlimit="16" stroke-linecap="round"/>
<path d="M89.3333 45.5C89.3333 45.5 85.1028 41.6111 84.9929 41.5H79.5716C79.2858 41.5 79 41.7889 79 42.1V54.9222C79 55.2111 79.2858 55.5 79.5716 55.5H88.6738C88.9596 55.5 89.3333 55.1222 89.3333 54.8333V45.5Z" fill="#AAAAAA" stroke="#5C5C5C" stroke-miterlimit="16" stroke-linecap="round"/>
<path d="M84.9929 41.5V45.5H89.1596" stroke="#5C5C5C" stroke-miterlimit="16" stroke-linecap="round"/>
<path d="M21.3333 45.5C21.3333 45.5 17.1028 41.6111 16.9929 41.5H11.5716C11.2858 41.5 11 41.7889 11 42.1V54.9222C11 55.2111 11.2858 55.5 11.5716 55.5H20.6738C20.9596 55.5 21.3333 55.1222 21.3333 54.8333V45.5Z" fill="#AAAAAA" stroke="#5C5C5C" stroke-miterlimit="16" stroke-linecap="round"/>
<path d="M16.9929 41.5V45.5H21.1596" stroke="#5C5C5C" stroke-miterlimit="16" stroke-linecap="round"/>
<path fill-rule="evenodd" clip-rule="evenodd" d="M36.6492 41C35.5402 45.6271 35.852 50.5254 37.5848 55H40.8391C38.8312 50.5901 38.4674 45.6148 39.7478 41H36.6492ZM81.4152 55C83.148 50.5254 83.4598 45.6271 82.3508 41H79.2522C80.5326 45.6148 80.1688 50.5901 78.1609 55H81.4152Z" fill="#5C5C5C" fill-opacity="0.3"/>
<path d="M60.7126 36C62.0491 36 63.183 36.2238 64.1145 36.6713C65.0662 37.1188 65.785 37.7189 66.271 38.4716C66.757 39.2242 67 40.0481 67 40.9431C67 41.7568 66.8583 42.4586 66.5748 43.0485C66.2913 43.6181 65.947 44.086 65.5421 44.4521C65.1371 44.8183 64.6106 45.2252 63.9626 45.6727C63.1324 46.2219 62.5148 46.7305 62.1098 47.1983C61.7048 47.6662 61.5023 48.2866 61.5023 49.0596V50.0971H57.8879V48.9071C57.8879 47.9917 58.0296 47.2187 58.3131 46.5881C58.6168 45.9371 58.9712 45.4286 59.3762 45.0624C59.7812 44.6759 60.3076 44.2589 60.9556 43.8114C61.6441 43.3435 62.1402 42.9367 62.4439 42.5908C62.7679 42.245 62.9299 41.7975 62.9299 41.2483C62.9299 40.577 62.697 40.0583 62.2313 39.6921C61.7858 39.3056 61.1682 39.1123 60.3785 39.1123C58.9408 39.1123 57.655 39.7836 56.521 41.1262L54 39.1429C55.7617 37.0476 57.9992 36 60.7126 36ZM59.7407 53.0569C60.4291 53.0569 61.0164 53.301 61.5023 53.7892C61.9883 54.257 62.2313 54.8368 62.2313 55.5284C62.2313 56.1997 61.9883 56.7795 61.5023 57.2677C61.0164 57.7559 60.4291 58 59.7407 58C59.0724 58 58.4953 57.7559 58.0093 57.2677C57.5436 56.7795 57.3107 56.1997 57.3107 55.5284C57.3107 54.8368 57.5436 54.257 58.0093 53.7892C58.4751 53.301 59.0522 53.0569 59.7407 53.0569Z" fill="#5C5C5C"/>
<mask id="path-11-inside-1" fill="#AAAAAA">
<path d="M75.4099 62.4099C66.6231 71.1967 52.3769 71.1967 43.5901 62.4099C34.8033 53.6231 34.8033 39.3769 43.5901 30.5901C52.3769 21.8033 66.6231 21.8033 75.4099 30.5901C84.1967 39.3769 84.1967 53.6231 75.4099 62.4099Z"/>
</mask>
<path d="M75.4099 62.4099C66.6231 71.1967 52.3769 71.1967 43.5901 62.4099C34.8033 53.6231 34.8033 39.3769 43.5901 30.5901C52.3769 21.8033 66.6231 21.8033 75.4099 30.5901C84.1967 39.3769 84.1967 53.6231 75.4099 62.4099Z" fill="#AAAAAA" fill-opacity="0.3"/>
<path d="M73.2886 60.2886C65.6734 67.9038 53.3266 67.9038 45.7114 60.2886L41.4688 64.5312C51.4271 74.4896 67.5729 74.4896 77.5312 64.5312L73.2886 60.2886ZM45.7114 60.2886C38.0962 52.6734 38.0962 40.3266 45.7114 32.7114L41.4688 28.4688C31.5104 38.4271 31.5104 54.5729 41.4688 64.5312L45.7114 60.2886ZM45.7114 32.7114C53.3266 25.0962 65.6734 25.0962 73.2886 32.7114L77.5312 28.4688C67.5729 18.5104 51.4271 18.5104 41.4688 28.4688L45.7114 32.7114ZM73.2886 32.7114C80.9038 40.3266 80.9038 52.6734 73.2886 60.2886L77.5312 64.5312C87.4896 54.5729 87.4896 38.4271 77.5312 28.4688L73.2886 32.7114Z" fill="#5C5C5C" mask="url(#path-11-inside-1)"/>
<mask id="path-13-inside-2" fill="#AAAAAA">
<path d="M73.9957 60.9957C65.9899 69.0014 53.0101 69.0014 45.0043 60.9957C36.9986 52.9899 36.9986 40.0101 45.0043 32.0043C53.0101 23.9986 65.9899 23.9986 73.9957 32.0043C82.0014 40.0101 82.0014 52.9899 73.9957 60.9957Z"/>
</mask>
<path d="M73.2886 60.2886C65.6734 67.9038 53.3266 67.9038 45.7114 60.2886L44.2972 61.7028C52.6935 70.0991 66.3065 70.0991 74.7028 61.7028L73.2886 60.2886ZM45.7114 60.2886C38.0962 52.6734 38.0962 40.3266 45.7114 32.7114L44.2972 31.2972C35.9009 39.6935 35.9009 53.3065 44.2972 61.7028L45.7114 60.2886ZM45.7114 32.7114C53.3266 25.0962 65.6734 25.0962 73.2886 32.7114L74.7028 31.2972C66.3065 22.9009 52.6935 22.9009 44.2972 31.2972L45.7114 32.7114ZM73.2886 32.7114C80.9038 40.3266 80.9038 52.6734 73.2886 60.2886L74.7028 61.7028C83.0991 53.3065 83.0991 39.6935 74.7028 31.2972L73.2886 32.7114Z" fill="#ECF0F5" fill-opacity="0.5" mask="url(#path-13-inside-2)"/>
<rect x="37.4987" y="64.6704" width="6.59445" height="25.9685" rx="3.29722" transform="rotate(45 37.4987 64.6704)" fill="#AAAAAA" stroke="#5C5C5C" stroke-width="2"/>
<path d="M21.9115 84.9163L39.3224 67.5055L41.0004 69.1835L23.5895 86.5943L21.9115 84.9163Z" fill="#5C5C5C" fill-opacity="0.3"/>
<rect x="43.3347" y="61.3762" width="3" height="6.65092" transform="rotate(45 43.3347 61.3762)" fill="#5C5C5C"/>
</svg>
