<svg width="32" height="32" viewBox="0 0 32 32" fill="none" xmlns="http://www.w3.org/2000/svg">
<path d="M23 14C24.6569 14 26 12.6569 26 11C26 9.34315 24.6569 8 23 8C21.3431 8 20 9.34315 20 11C20 12.6569 21.3431 14 23 14Z" fill="#ADB1B2"/>
<path d="M30 28V20.3924C29.4371 20.1358 28.8154 20.0014 28.1846 20C24.7474 20 18.2602 24.6213 14 28H30Z" fill="#ADB1B2"/>
<path d="M26 28C21.9284 22.82 14.2375 14 8.98963 14C6.72762 14 3.92271 16.8467 2 19.18V28H26Z" fill="#ADB1B2"/>
<path fill-rule="evenodd" clip-rule="evenodd" d="M30 4H2V28H30V4ZM2 2C0.895431 2 0 2.89543 0 4V28C0 29.1046 0.895431 30 2 30H30C31.1046 30 32 29.1046 32 28V4C32 2.89543 31.1046 2 30 2H2Z" fill="#ADB1B2"/>
</svg>
