<svg width="100" height="100" viewBox="0 0 100 100" fill="none" xmlns="http://www.w3.org/2000/svg">
<circle cx="50" cy="50" r="42" fill="#F4F4F4" fill-opacity="0.1"/>
<circle cx="28.5" cy="40.5" r="15.5" stroke="#C0CDDC" stroke-miterlimit="16" stroke-linecap="round" stroke-dasharray="2 2"/>
<circle cx="87" cy="57" r="2" fill="#5C5C5C"/>
<circle opacity="0.05" cx="82.5" cy="30.5" r="6.5" fill="#C0CDDC"/>
<circle cx="50" cy="50" r="33" fill="#F4F4F4" fill-opacity="0.2"/>
<path d="M67 42V30.9C67 22.9 59.5625 16 50.2125 16C40.8625 16 33 22.9 33 30.9V42" stroke="#5C5C5C" stroke-width="4" stroke-miterlimit="10"/>
<path d="M66.9999 42V30.9C66.9999 22.9 59.5624 16 50.2124 16" stroke="#7C7A7A" stroke-width="4" stroke-miterlimit="10"/>
<path d="M66 42V31.3269C66 23.6346 59 17 50.2 17C41.4 17 34 23.6346 34 31.3269V42" stroke="#AAAAAA" stroke-opacity="0.3" stroke-width="2" stroke-miterlimit="10"/>
<circle cx="17" cy="30" r="10" fill="#EA5252"/>
<rect x="11" y="29" width="12" height="2" fill="#AAAAAA"/>
<path d="M27.759 80C26.1585 80 25 78.8235 25 77.4857V43.5143C25 42.1765 26.1585 41 27.759 41H72.241C73.8415 41 75 42.1765 75 43.5143V77.3881C75 78.7625 73.8088 80 72.2467 80H28.3333H27.759Z" fill="#AAAAAA" stroke="#5C5C5C" stroke-width="2" stroke-miterlimit="10"/>
<path d="M26 77H74V79H26V77Z" fill="#5C5C5C" fill-opacity="0.3"/>
<circle cx="49.5" cy="58.5" r="5.5" fill="#5C5C5C" fill-opacity="0.3"/>
<circle cx="49.5" cy="57.5" r="4.5" fill="#5C5C5C"/>
<rect x="48" y="59" width="3" height="10" rx="1.5" fill="#5C5C5C" fill-opacity="0.3"/>
<rect x="48" y="59" width="3" height="8" rx="1" fill="#5C5C5C"/>
<circle cx="77" cy="78" r="10.5" fill="#AAAAAA" stroke="#5C5C5C"/>
<path d="M81 74L73 82" stroke="#5C5C5C" stroke-width="2" stroke-linecap="round"/>
<path d="M73 74L81 82" stroke="#5C5C5C" stroke-width="2" stroke-linecap="round"/>
</svg>
