<svg width="16" height="16" viewBox="0 0 16 16" fill="none" xmlns="http://www.w3.org/2000/svg">
<g clip-path="url(#clip0)">
<path fill-rule="evenodd" clip-rule="evenodd" d="M13 14L12 14L7.5 14L3 14L2 14L2 13L2 4L2 3L3 3L7.5 3L9 3L9 4L7.5 4L3 4L3 13L7.5 13L12 13L12 7L13 7L13 13L13 14Z" fill="#777777"/>
<path fill-rule="evenodd" clip-rule="evenodd" d="M15.979 0.771445L15.979 0.0214458L15.229 0.0214453L11.0001 0.0214422L11.0001 1.52144L13.4183 1.52144L8.01511 6.9247L9.07578 7.98535L14.479 2.58208L14.479 5.00027L15.979 5.00027L15.979 0.771445Z" fill="#777777"/>
</g>
<defs>
<clipPath id="clip0">
<rect width="16" height="16" fill="white" transform="matrix(-4.37114e-08 -1 -1 4.37114e-08 16 16)"/>
</clipPath>
</defs>
</svg>
