<svg id="Layer_1" data-name="Layer 1" xmlns="http://www.w3.org/2000/svg" viewBox="0 0 16 16"><title>selected</title><path d="M6,6.5A.5.5,0,0,0,5.5,6H4.5313a.5.5,0,0,0-.5.5V8H1V9H4.0313v1.5a.5.5,0,0,0,.5.5H5.5a.5.5,0,0,0,.5-.5V9h9V8H6Z" fill="#a6b5c7"/><path d="M14.5,11h-.9687a.5.5,0,0,0-.5.5V13H1v1H13.0313v1.5a.5.5,0,0,0,.5.5H14.5a.5.5,0,0,0,.5-.5v-4A.5.5,0,0,0,14.5,11Z" fill="#a6b5c7"/><circle cx="13" cy="4" r="3" fill="#407fb9"/><path d="M1,3V4H9a3.9562,3.9562,0,0,1,.142-1Z" fill="#a6b5c7"/></svg>