<svg id="Layer_1" data-name="Layer 1" xmlns="http://www.w3.org/2000/svg" viewBox="0 0 48 48"><title>other_user</title><path d="M10.66,34.9a1.2,1.2,0,0,1-.42-.07,1.24,1.24,0,0,1-.74-1.58,4.41,4.41,0,0,1,2.64-2.68l7.22-3,.05-1.48a7.22,7.22,0,0,1-1.25-2.71,4,4,0,0,1-1.43-2.53A3.14,3.14,0,0,1,17.39,18l.08-.08a7.27,7.27,0,0,1,1.36-5.45,6.43,6.43,0,0,1,5.23-2.12,6.55,6.55,0,0,1,5.34,2.13,7.1,7.1,0,0,1,1.26,5.45.46.46,0,0,1,.07.07,3.12,3.12,0,0,1,.66,2.84A4,4,0,0,1,30,23.39a7.22,7.22,0,0,1-1.25,2.71l.05,1.48,7.24,3a4.31,4.31,0,0,1,2.46,2.3,1.23,1.23,0,0,1-.6,1.63,1.24,1.24,0,0,1-1.64-.61,1.84,1.84,0,0,0-1.13-1l-8-3.32a1.21,1.21,0,0,1-.76-1.09l-.1-2.73a1.22,1.22,0,0,1,.31-.86,4.34,4.34,0,0,0,1.06-2.46,1.22,1.22,0,0,1,.63-1.08,1,1,0,0,1,.47-.15,2.28,2.28,0,0,0,.26-.71,3.19,3.19,0,0,0,0-.57,1.21,1.21,0,0,1-.57-.32,1.24,1.24,0,0,1-.34-1.11c.39-1.93.18-3.5-.59-4.43a4.08,4.08,0,0,0-3.19-1.23,1.16,1.16,0,0,1-.49,0A4,4,0,0,0,20.73,14,5.48,5.48,0,0,0,20,18.48a1.2,1.2,0,0,1-.35,1.1,1.13,1.13,0,0,1-.56.32,2.8,2.8,0,0,0,0,.59,2.25,2.25,0,0,0,.25.69,1,1,0,0,1,.47.15,1.22,1.22,0,0,1,.63,1.08,4.34,4.34,0,0,0,1.06,2.46,1.25,1.25,0,0,1,.31.86l-.1,2.73A1.22,1.22,0,0,1,21,29.55l-8,3.3a2,2,0,0,0-1.24,1.24A1.22,1.22,0,0,1,10.66,34.9Z" fill="#cbcbcb"/><path d="M24,48A24,24,0,1,1,48,24,23.84,23.84,0,0,1,24,48ZM24,2.46A21.54,21.54,0,1,0,45.54,24,21.56,21.56,0,0,0,24,2.46Z" fill="#cbcbcb"/></svg>