<svg width="15" height="32" viewBox="0 0 15 32" fill="none" xmlns="http://www.w3.org/2000/svg">
    <path d="M2.00012 12C2.00012 11.4477 1.55241 11 1.00012 11C0.447837 11 0.00012207 11.4477 0.00012207 12H2.00012ZM1.00012 25H0.000118613L0.000125468 25.0026L1.00012 25ZM14 25.0244H13L13 25.027L14 25.0244ZM14 5H15L15 4.99739L14 5ZM5.00002 5.00004H6.00002L6.00002 4.99743L5.00002 5.00004ZM5.00002 23.5H4.00002L4.00002 23.5026L5.00002 23.5ZM10 23.5H9.00002L9.00002 23.5026L10 23.5ZM11 8.00004C11 7.44776 10.5523 7.00004 10 7.00004C9.44773 7.00004 9.00002 7.44776 9.00002 8.00004H11ZM0.00012207 12V25H2.00012V12H0.00012207ZM15 25.0244V5H13V25.0244H15ZM4.00002 5.00004V23.5H6.00002V5.00004H4.00002ZM11 23.5V8.00004H9.00002V23.5H11ZM7.54904 27.0243C9.61553 26.9899 11.0046 25.2703 11 23.4974L9.00002 23.5026C9.00208 24.2893 8.3844 25.0101 7.5158 25.0245L7.54904 27.0243ZM4.00002 23.5026C4.00463 25.2694 5.45557 27.059 7.54904 27.0243L7.5158 25.0245C6.67419 25.0385 6.00209 24.2902 6.00002 23.4974L4.00002 23.5026ZM9.49996 0C6.56724 0 3.99244 2.09638 4.00002 5.00265L6.00002 4.99743C5.99591 3.42446 7.43269 2 9.49996 2V0ZM15 4.99739C14.9924 2.09963 12.4379 0 9.49996 0V2C11.562 2 12.9958 3.42113 13 5.00261L15 4.99739ZM7.53242 32C11.5101 32 15.0099 28.8472 15 25.0217L13 25.027C13.0067 27.6004 10.5547 30 7.53242 30V32ZM0.000125468 25.0026C0.0101061 28.8268 3.55766 32 7.53242 32V30C4.50718 30 2.00684 27.5721 2.00012 24.9974L0.000125468 25.0026Z"
          fill="#C4C4C4"/>
</svg>
