<svg width="32" height="32" viewBox="0 0 32 32" fill="none" xmlns="http://www.w3.org/2000/svg">
<path fill-rule="evenodd" clip-rule="evenodd" d="M14.2628 2C14.2871 2.0968 14.3 2.19732 14.3 2.3H17V5H5V2.3H7.7C7.7 2.19732 7.71291 2.0968 7.73715 2H1C0.4 2 0 2.4 0 3V27C0 27.6 0.4 28 1 28H12V10C12 8.9 12.9 8 14 8H22V3C22 2.4 21.6 2 21 2H14.2628Z" fill="#C4C4C4" fill-opacity="0.5"/>
<path d="M14 2C14 3.1 14.9 4 16 4H6C7.1 4 8 3.1 8 2H14ZM14 0H8C6.9 0 6 0.9 6 2H4V6H18V2H16C16 0.9 15.1 0 14 0Z" fill="#C4C4C4"/>
<path d="M30 11V30H15V11H30ZM31 9H14C13.4 9 13 9.4 13 10V31C13 31.6 13.4 32 14 32H31C31.6 32 32 31.6 32 31V10C32 9.4 31.6 9 31 9Z" fill="#C4C4C4"/>
</svg>
