<svg width="16" height="16" viewBox="0 0 16 16" fill="#FFB800" stroke="#ffb800" xmlns="http://www.w3.org/2000/svg">
  <g id="pencil.svg">
    <path fill-rule="evenodd" clip-rule="evenodd" d="M13.023 1.34619L14.6728 2.95584C14.884 3.17368 15.0015 3.46622 15 3.77036C14.9985 4.0745 14.8781 4.36586 14.6648 4.58158L13.7358 5.51518C13.7056 5.4435 13.659 5.38006 13.5997 5.33007L10.5324 2.22345L10.4603 2.17517L11.3572 1.36229C11.5714 1.14753 11.8562 1.01874 12.1581 1.00012C12.4526 0.995938 12.7381 1.1021 12.959 1.29791L13.023 1.34619ZM9.43273 3.3773L12.5 6.50001C12.563 6.55914 12.6403 6.60075 12.7242 6.62074L5.1244 14.1952L1 15L1.80086 10.8551L9.38466 3.30486C9.39844 3.33043 9.41454 3.35468 9.43273 3.3773Z" stroke="none"/>
  </g>
</svg>
