<svg width="16" height="16" viewBox="0 0 16 16" fill="none" xmlns="http://www.w3.org/2000/svg">
    <title>UnpinIcon</title>
    <path fill-rule="evenodd" clip-rule="evenodd" d="M7.72709 5.42871L7.27322 5.3463C6.26265 5.16281 5.22378 5.20758 4.23281 5.47733C3.59325 5.65142 2.98414 5.91636 2.42354 6.26252L5.65327 9.48884L5.66522 9.4768L9.72017 13.5684C10.0635 13.0055 10.3266 12.3955 10.5004 11.756C10.7707 10.7612 10.8183 9.71915 10.6397 8.70395L10.5603 8.25229L14.0271 4.01591L11.9716 1.96258L7.72709 5.42871ZM11.6246 0.202485L15.7973 4.37081C15.9354 4.5319 16.0076 4.73912 15.9994 4.95105C15.9912 5.16298 15.9032 5.36402 15.7531 5.51399C15.603 5.66396 15.4017 5.75182 15.1896 5.76C15.0743 5.76445 14.9604 5.74521 14.8546 5.70458C14.7657 5.67043 14.6824 5.62116 14.6087 5.55815L14.3052 5.255L11.6246 8.53071C11.8286 9.69076 11.7743 10.8815 11.4654 12.0182C11.2452 12.8286 10.8995 13.5974 10.4425 14.2973C10.2586 14.5791 10.0566 14.8497 9.83749 15.1074L5.66477 10.897L0.893551 15.7053L0 16L0.29504 15.1074L5.06626 10.3159L0.893551 6.14761C1.14939 5.9271 1.4185 5.72383 1.69903 5.53877C2.39501 5.07966 3.16135 4.7326 3.97016 4.51244C5.10498 4.20353 6.29463 4.15226 7.45188 4.36239L10.731 1.68456L10.436 1.38983C10.3727 1.31603 10.3233 1.23256 10.2891 1.14338C10.2486 1.03789 10.2295 0.924431 10.2339 0.809584C10.2421 0.597651 10.3301 0.396612 10.4802 0.246642C10.6303 0.0966708 10.8316 0.00881405 11.0437 0.000628012C11.2559 -0.00755803 11.4633 0.0645296 11.6246 0.202485Z" fill="#798288"/>
</svg>
