<svg width="69" height="62" viewBox="0 0 69 62" fill="none" xmlns="http://www.w3.org/2000/svg">
<path d="M60.7929 0.292892C61.1834 -0.0976296 61.8166 -0.0976295 62.2071 0.292892L68.5711 6.65685C68.9616 7.04738 68.9616 7.68054 68.5711 8.07107C68.1805 8.46159 67.5474 8.46159 67.1569 8.07107L61.5 2.41422L55.8431 8.07107C55.4526 8.46159 54.8195 8.46159 54.4289 8.07107C54.0384 7.68054 54.0384 7.04738 54.4289 6.65685L60.7929 0.292892ZM5 57.5C32.0236 57.5 60.5 36.3747 60.5 1L62.5 1C62.5 37.6253 32.9764 59.5 5 59.5L5 57.5Z" fill="#FF7800"/>
<circle cx="3" cy="58.5" r="3" fill="#FF7800"/>
</svg>
