<svg width="12" height="16" viewBox="0 0 12 16" fill="none" xmlns="http://www.w3.org/2000/svg">
<path d="M11 15H1V1H9.5L11 2.5V15Z" fill="white"/>
<path d="M9.4 0H1C0.734784 0 0.48043 0.105357 0.292893 0.292893C0.105357 0.48043 0 0.734784 0 1V15C0 15.2652 0.105357 15.5196 0.292893 15.7071C0.48043 15.8946 0.734784 16 1 16H11C11.2652 16 11.5196 15.8946 11.7071 15.7071C11.8946 15.5196 12 15.2652 12 15V2.6L9.4 0ZM11 15H1V1H8V3C8 3.26522 8.10536 3.51957 8.29289 3.70711C8.48043 3.89464 8.73478 4 9 4H11V15ZM9 3V1L11 3H9Z" fill="#798288"/>
<path d="M9.64995 13.1499C9.51806 13.1481 9.39226 13.0941 9.29995 12.9999L7.64997 11.35C7.55582 11.2558 7.50293 11.1281 7.50293 10.995C7.50293 10.8618 7.55582 10.7341 7.64997 10.64C7.74413 10.5458 7.87182 10.4929 8.00498 10.4929C8.13813 10.4929 8.26582 10.5458 8.35997 10.64L10.0099 12.2899C10.0826 12.3599 10.1324 12.4501 10.1528 12.5489C10.1732 12.6476 10.1633 12.7502 10.1244 12.8432C10.0854 12.9362 10.0193 13.0152 9.93463 13.07C9.84997 13.1247 9.75073 13.1526 9.64995 13.1499Z" fill="#407FB9"/>
<path d="M4.23223 7.23223C4.70107 6.76339 5.33696 6.5 6 6.5C6.66304 6.5 7.29893 6.76339 7.76777 7.23223C8.23594 7.70041 8.49925 8.33516 8.5 8.99719C8.49184 9.6584 8.22555 10.2903 7.75792 10.7579C7.29028 11.2256 6.6584 11.4918 5.99719 11.5C5.33516 11.4993 4.70041 11.2359 4.23223 10.7678C3.76339 10.2989 3.5 9.66304 3.5 9C3.5 8.33696 3.76339 7.70107 4.23223 7.23223Z" stroke="#407FB9"/>
</svg>
