<svg xmlns="http://www.w3.org/2000/svg" width="16" height="16" viewBox="0 0 16 16" fill="#798288">


<g id="print-thread"><path opacity="0.05" fill-rule="evenodd" clip-rule="evenodd" d="M4 2H12V5H15V10H12V14H4V10H1V5H4V2Z" stroke="none"></path><path fill-rule="evenodd" clip-rule="evenodd" d="M4 2V4H12V2H4ZM13 4H15C15.6 4 16 4.4 16 5V10C16 10.6 15.6 11 15 11H14V10H15V5H1V10H2V11H1C0.4 11 0 10.6 0 10V5C0 4.4 0.4 4 1 4H3V2C3 1.4 3.4 1 4 1H12C12.6 1 13 1.4 13 2V4ZM12 9V14H4V9H12ZM2 9H3V14C3 14.6 3.4 15 4 15H12C12.6 15 13 14.6 13 14V9H14V8H2V9ZM5 10H11V11H5V10ZM11 12H5V13H11V12ZM2 6H3V7H2V6Z" stroke="none"></path></g></svg>
