<svg width="16" height="16" viewBox="0 0 16 16" fill="none" xmlns="http://www.w3.org/2000/svg">
<g clip-path="url(#clip0_23456_16242)">
<path d="M6.16244 2.83762L8.21233 0.787734C8.53345 0.466606 8.95431 0.264332 9.40568 0.21418L10.8557 0.0530624C11.1577 0.0195151 11.4585 0.125032 11.6733 0.339839L12.5001 1.16666L9.58341 4.08334L9.87508 6.12502L11.9168 6.41669L14.8334 3.50001L15.6603 4.32683C15.8751 4.54163 15.9806 4.84244 15.947 5.14437L15.7859 6.59442C15.7358 7.04579 15.5335 7.46665 15.2124 7.78777L13.1625 9.83766C12.7428 10.2574 12.1583 10.469 11.5672 10.4152L9.29174 10.2084L4.25003 15.25C3.28352 16.2165 1.71652 16.2165 0.750023 15.25C-0.216486 14.2835 -0.216482 12.7165 0.750035 11.75L5.79172 6.70836L5.58486 4.43291C5.53113 3.84179 5.74273 3.25733 6.16244 2.83762Z" fill="#EFEFEF"/>
<path fill-rule="evenodd" clip-rule="evenodd" d="M6.49883 7.41547L6.83002 7.08427L6.78762 6.61782L6.58076 4.34237C6.55389 4.04681 6.65969 3.75458 6.86955 3.54473L8.91944 1.49484C9.08 1.33427 9.29043 1.23314 9.51611 1.20806L10.9662 1.04694L11.0859 1.16666L8.87631 3.37623L8.52275 3.72979L8.59346 4.22476L8.88513 6.26644L8.9912 7.0089L9.73366 7.11497L11.7753 7.40664L12.2703 7.47735L12.6239 7.12379L14.8334 4.91422L14.9532 5.03393L14.792 6.48399C14.767 6.70967 14.6658 6.9201 14.5053 7.08066L14.3348 7.25111L15.1429 7.8572L15.2124 7.78777C15.5335 7.46664 15.7358 7.04578 15.7859 6.59442L15.947 5.14436C15.9806 4.84244 15.8751 4.54163 15.6603 4.32682L15.5406 4.20711L14.8334 3.5L14.1263 4.20711L11.9168 6.41669L9.87508 6.12502L9.58341 4.08334L11.793 1.87376L12.5001 1.16666L11.793 0.459549L11.6733 0.339836C11.4585 0.125028 11.1577 0.0195116 10.8557 0.053059L9.40568 0.214177C8.95432 0.264328 8.53346 0.466603 8.21233 0.787731L6.16244 2.83762C5.74273 3.25733 5.53113 3.84178 5.58487 4.43291L5.79173 6.70835L0.750037 11.75C-0.21648 12.7165 -0.216484 14.2835 0.750025 15.25C1.71652 16.2165 3.28353 16.2165 4.25003 15.25L5.75004 13.75L5.04293 13.0429L3.54293 14.5429C2.96695 15.1189 2.03311 15.1189 1.45713 14.5429C0.881148 13.9669 0.881152 13.0331 1.45714 12.4571L6.49883 7.41547Z" fill="#798288"/>
<circle cx="0.5" cy="0.5" r="0.5" transform="matrix(1 0 0 -1 2 14)" fill="#798288"/>
<path d="M9 15.5V15.5C8.21102 15.5 7.57143 14.8604 7.57143 14.0714V13.7388C7.57143 13.2325 7.35353 12.7507 6.97334 12.4163L6.5 12L6.97334 11.5837C7.35353 11.2493 7.57143 10.7675 7.57143 10.2612V9.92857C7.57143 9.13959 8.21102 8.5 9 8.5V8.5" stroke="#407FB9" stroke-linejoin="bevel"/>
<path d="M13 15.5V15.5C13.789 15.5 14.4286 14.8604 14.4286 14.0714V13.7388C14.4286 13.2325 14.6465 12.7507 15.0267 12.4163L15.5 12L15.0267 11.5837C14.6465 11.2493 14.4286 10.7675 14.4286 10.2612V9.92857C14.4286 9.13959 13.789 8.5 13 8.5V8.5" stroke="#407FB9" stroke-linejoin="bevel"/>
<path d="M9.5 10.5L12.5 13.5" stroke="#506672" stroke-linecap="round"/>
<path d="M12.5 10.5L9.5 13.5" stroke="#506672" stroke-linecap="round"/>
</g>
<defs>
<clipPath id="clip0_23456_16242">
<rect width="16" height="16" fill="white"/>
</clipPath>
</defs>
</svg>
