<svg width="16" height="16" viewBox="0 0 16 16" fill="none" xmlns="http://www.w3.org/2000/svg">
<g clip-path="url(#clip0_25315_2350)">
<path d="M14 3H1V15H14V3Z" fill="white"/>
<path d="M12.5 13.61C8.88 13.55 7.5 15.5 7.5 15.5V2.5C8.86868 1.24857 10.6458 0.537714 12.5 0.5V13.61Z" fill="white"/>
<path d="M2.5 13.61C6.13 13.55 7.5 15.5 7.5 15.5V2.5C6.13132 1.24857 4.35417 0.537714 2.5 0.5V13.61Z" fill="white"/>
<path fill-rule="evenodd" clip-rule="evenodd" d="M7.5 2.0318C6.83014 1.45406 6.0718 0.985182 5.25259 0.643846C4.22217 0.214505 3.11628 -0.0043828 2 6.64914e-05V2.00006H1C0.734784 2.00006 0.48043 2.10542 0.292893 2.29295C0.105357 2.48049 0 2.73484 0 3.00006V15.0001C0 15.2653 0.105357 15.5196 0.292893 15.7072C0.48043 15.8947 0.734784 16.0001 1 16.0001H14C14.0036 16.0001 14.0071 16 14.0107 16H3V15.0001H1V3.00006H2V14.0001C2.33528 14.0111 2.66893 14.0373 3 14.0783V13.0601V13V1.10007C4.50713 1.27233 5.91424 1.9407 7 3.00007V5.39532C7.33934 5.32395 7.68189 5.29997 8 5.30266V3.00007C9.08576 1.9407 10.4929 1.27233 12 1.10007V2.99999L13 2.99999C13 3.00002 13.0001 3.00004 13.0001 3.00006H14V3.99999C14.2377 4.2613 14.5078 4.52214 14.7347 4.74119C14.8334 4.8365 14.9239 4.9239 15 4.99999V3.00006C15 2.73484 14.8946 2.48049 14.7071 2.29295C14.5196 2.10542 14.2652 2.00006 14 2.00006H13V6.64914e-05C11.8837 -0.0043828 10.7778 0.214505 9.74741 0.643846C8.9282 0.985182 8.16986 1.45406 7.5 2.0318Z" fill="#798288"/>
<path d="M9.84 9.73999C9.82959 10.8625 9.67156 11.9787 9.37 13.06C10.7828 13.2627 12.2172 13.2627 13.63 13.06C13.3421 11.9784 13.1744 10.8684 13.13 9.74999C13.13 9.08999 12.92 8.16999 11.38 8.21999C11.1719 8.18623 10.9587 8.20205 10.7579 8.26617C10.557 8.33029 10.3741 8.44089 10.2241 8.589C10.074 8.73711 9.96103 8.91854 9.8943 9.11853C9.82756 9.31853 9.80895 9.53145 9.84 9.73999Z" fill="white"/>
<path fill-rule="evenodd" clip-rule="evenodd" d="M12.08 9.76998C12.09 9.54998 11.94 8.67998 11.48 8.67998L11.49 8.64998H11.4C11.1371 8.64998 11.0456 9.00675 10.9718 9.29409C10.9221 9.48782 10.8805 9.64998 10.8 9.64998C10.7917 10.4848 10.7012 11.3163 10.5299 12.1325L10 12V12.7758C9.81854 12.7112 9.63848 12.6426 9.45996 12.57C9.78807 11.3335 9.95281 10.0593 9.94996 8.77998C9.94996 8.77998 9.59996 8.17998 11.39 8.17998H11.49V8.16998C12.94 8.16998 13.08 8.58998 13.08 9.22998C13.0568 10.4646 13.2125 11.6959 13.5419 12.8855L12.4811 12.6203C12.2624 11.6841 12.1282 10.7302 12.08 9.76998Z" fill="#8D9599"/>
<path fill-rule="evenodd" clip-rule="evenodd" d="M13.9514 14H16V12.5C15.9787 12.3544 15.9256 12.2152 15.8443 12.0925C15.7631 11.9697 15.6558 11.8665 15.53 11.79L13.12 10.91C13.12 10.91 12.8954 12.0018 12.3215 12.6072L12.8244 12.7748C13.257 12.919 13.6146 13.2291 13.8185 13.637C13.8765 13.753 13.921 13.8748 13.9514 14ZM10 14V13L10.3669 12.2662C9.97735 11.6955 9.8 11 9.8 11L7.47 11.79C7.3355 11.8557 7.22101 11.9562 7.13837 12.081C7.05574 12.2059 7.00797 12.3505 7 12.5V14H10Z" fill="#5C992B"/>
<path d="M9.58005 6.44997C9.44292 7.60407 9.7002 8.77062 10.31 9.75997C10.5886 10.0406 10.9606 10.209 11.3553 10.233C11.7499 10.257 12.1396 10.1349 12.45 9.88997C12.45 9.88997 13.28 9.38997 13.45 6.43997C13.4495 6.18887 13.3953 5.94079 13.291 5.71238C13.1867 5.48397 13.0347 5.28053 12.8453 5.11571C12.6558 4.9509 12.4333 4.82853 12.1927 4.75682C11.952 4.68512 11.6988 4.66573 11.45 4.69997C11.2117 4.68925 10.9736 4.72631 10.7497 4.80895C10.5258 4.89159 10.3208 5.01816 10.1465 5.18121C9.97232 5.34425 9.83245 5.54049 9.73516 5.75838C9.63788 5.97627 9.58514 6.21141 9.58005 6.44997Z" fill="white"/>
<path d="M11.59 4H11.5C9.66 4.11 9.06 5.19 9 5.93C9 6 9 6.06 9 6.12C9 8.45 9.41 11 11.5 11C13.59 11 14 8.6 14 5.94C14 5.13 13.34 4 11.59 4ZM11.59 10C11.25 10 9.94 10.12 10.01 6.6C10.111 6.42462 10.2548 6.27763 10.4279 6.17273C10.601 6.06782 10.7978 6.0084 11 6C11.6635 6.09125 12.3365 6.09125 13 6C13.08 7.34 13.12 10.14 11.57 10H11.59Z" fill="#8D9599"/>
<path d="M5.06326 7.92487C4.81835 9.78928 5.289 11.6727 6.39848 13.268C6.89636 13.6999 7.55164 13.958 8.245 13.9953C8.93835 14.0326 9.62368 13.8466 10.1762 13.4713C10.1762 13.4713 11.7719 12.6872 11.9999 7.92487C12.0033 7.51235 11.908 7.10393 11.7205 6.7268C11.5329 6.34968 11.2574 6.01252 10.9123 5.73777C10.5672 5.46301 10.1604 5.25698 9.71903 5.13339C9.27764 5.00979 8.81177 4.97148 8.35247 5.02099C7.92207 5.01716 7.49508 5.08943 7.0962 5.23365C6.69732 5.37786 6.33446 5.59115 6.02859 5.86118C5.72273 6.13122 5.47993 6.45263 5.31423 6.80686C5.14854 7.16108 5.06324 7.54107 5.06326 7.92487Z" fill="white"/>
<path d="M6.84 11.74C6.82959 12.8625 6.67156 13.9787 6.37 15.06C7.78276 15.2627 9.21723 15.2627 10.63 15.06C10.3421 13.9784 10.1744 12.8684 10.13 11.75C10.13 11.09 9.92 10.17 8.38 10.22C8.17188 10.1862 7.95873 10.202 7.75788 10.2662C7.55703 10.3303 7.37414 10.4409 7.22408 10.589C7.07402 10.7371 6.96103 10.9185 6.8943 11.1185C6.82756 11.3185 6.80895 11.5315 6.84 11.74Z" fill="white"/>
<path d="M8.47996 10.68C8.93996 10.68 9.08996 11.55 9.07996 11.77C9.12952 12.7575 9.27012 13.7383 9.49996 14.7C9.09996 14.7 9.16996 15.49 8.49996 15.49C7.99996 15.49 7.83996 14.7 7.40996 14.65C7.65903 13.6691 7.78995 12.6619 7.79996 11.65C7.99996 11.65 7.95996 10.65 8.39996 10.65H8.48996L8.47996 10.68ZM8.48996 10.18H8.38996C6.59996 10.18 6.94996 10.78 6.94996 10.78C6.95281 12.0593 6.78807 13.3335 6.45996 14.57C7.07997 14.8222 7.71854 15.0261 8.36996 15.18C9.10954 15.1806 9.84818 15.1271 10.58 15.02C10.2245 13.7888 10.056 12.5112 10.08 11.23C10.08 10.59 9.93996 10.17 8.48996 10.17V10.18Z" fill="#8D9599"/>
<path d="M6.58005 8.44997C6.44292 9.60407 6.7002 10.7706 7.31005 11.76C7.58855 12.0406 7.96059 12.209 8.35526 12.233C8.74993 12.257 9.13962 12.1349 9.45005 11.89C9.45005 11.89 10.28 11.39 10.45 8.43997C10.4495 8.18887 10.3953 7.94079 10.291 7.71238C10.1867 7.48397 10.0347 7.28053 9.84525 7.11571C9.65581 6.9509 9.4333 6.82853 9.19265 6.75682C8.95201 6.68512 8.6988 6.66573 8.45005 6.69997C8.21167 6.68925 7.97355 6.72631 7.7497 6.80895C7.52585 6.89159 7.32078 7.01816 7.14655 7.18121C6.97232 7.34425 6.83245 7.54049 6.73516 7.75838C6.63788 7.97627 6.58514 8.21141 6.58005 8.44997Z" fill="white"/>
<path d="M8.59 6H8.5C6.66 6.11 6.06 7.19 6 7.93C6 8 6 8.06 6 8.12C6 10.45 6.41 13 8.5 13C10.59 13 11 10.6 11 7.94C11 7.13 10.34 6 8.59 6ZM8.59 12C8.25 12 6.94 12.12 7.01 8.6C7.11103 8.42462 7.25477 8.27763 7.42787 8.17273C7.60096 8.06782 7.79777 8.0084 8 8C8.66354 8.09125 9.33646 8.09125 10 8C10.08 9.34 10.12 12.14 8.57 12H8.59Z" fill="#8D9599"/>
<path d="M13 16H4L4 14.59C4.00797 14.4405 4.05574 14.2959 4.13837 14.171C4.22101 14.0462 4.3355 13.9457 4.47 13.88L6.8 13.09C6.8 13.09 7.31 15.09 8.5 15.09C9.69 15.09 10.12 13 10.12 13L12.53 13.88C12.6558 13.9565 12.7631 14.0597 12.8443 14.1825C12.9256 14.3052 12.9787 14.4444 13 14.59V16Z" fill="#407FB9"/>
</g>
<defs>
<clipPath id="clip0_25315_2350">
<rect width="16" height="16" fill="white"/>
</clipPath>
</defs>
</svg>
