<svg width="16" height="16" viewBox="0 0 16 16" fill="none" xmlns="http://www.w3.org/2000/svg">
<g clip-path="url(#clip0_25333_2567)">
<path d="M14 3H1V15H14V3Z" fill="white"/>
<path d="M12.5 13.61C8.88 13.55 7.5 15.5 7.5 15.5V2.5C8.86868 1.24857 10.6458 0.537714 12.5 0.5V13.61Z" fill="white"/>
<path d="M2.5 13.61C6.13 13.55 7.5 15.5 7.5 15.5V2.5C6.13132 1.24857 4.35417 0.537714 2.5 0.5V13.61Z" fill="white"/>
<path fill-rule="evenodd" clip-rule="evenodd" d="M7.5 2.0318C6.83014 1.45406 6.0718 0.985182 5.25259 0.643846C4.22217 0.214505 3.11628 -0.0043828 2 6.64914e-05V2.00006H1C0.734784 2.00006 0.48043 2.10542 0.292893 2.29295C0.105357 2.48049 0 2.73484 0 3.00006V15.0001C0 15.2653 0.105357 15.5196 0.292893 15.7072C0.48043 15.8947 0.734784 16.0001 1 16.0001H14C14.0037 16.0001 14.0074 16 14.0111 16H8V15L7 14.3333V14.3801C5.79652 13.6157 4.42206 13.1621 3 13.0601V13V1.10007C4.50713 1.27233 5.91424 1.9407 7 3.00007V6H8V3.00007C9.08576 1.9407 10.4929 1.27233 12 1.10007V6H13V3.00006H14V6H15V3.00006C15 2.73484 14.8946 2.48049 14.7071 2.29295C14.5196 2.10542 14.2652 2.00006 14 2.00006H13V6.64914e-05C11.8837 -0.0043828 10.7778 0.214505 9.74741 0.643846C8.9282 0.985182 8.16986 1.45406 7.5 2.0318ZM1 3.00006H2V14.0001C3.4765 14.0486 4.92144 14.391 6.2528 15.0001H1V3.00006Z" fill="#798288"/>
<rect x="10" y="13" width="3" height="3" rx="1" fill="#798288"/>
<rect x="7.5" y="7.5" width="8" height="6" rx="0.5" fill="white" stroke="#6FA6D4"/>
<rect x="9" y="15" width="5" height="1" rx="0.5" fill="#6FA6D4"/>
</g>
<defs>
<clipPath id="clip0_25333_2567">
<rect width="16" height="16" fill="white"/>
</clipPath>
</defs>
</svg>
