<svg width="20" height="20" viewBox="0 0 20 20" fill="none" xmlns="http://www.w3.org/2000/svg">
<g clip-path="url(#clip0)">
<path fill-rule="evenodd" clip-rule="evenodd" d="M4 2V18H16V5H13V2H4ZM18 18.3333V5V4L14 0H13H3.66667C3.22464 0 2.80072 0.175595 2.48816 0.488156C2.1756 0.800716 2 1.22464 2 1.66667V18.3333C2 18.7754 2.1756 19.1993 2.48816 19.5118C2.80072 19.8244 3.22464 20 3.66667 20H16.3333C16.7754 20 17.1993 19.8244 17.5118 19.5118C17.8244 19.1993 18 18.7754 18 18.3333ZM13 12.5C13 13.8807 11.8807 15 10.5 15C9.76045 15 9.09591 14.6789 8.63819 14.1685L7.07144 15.4148C7.89685 16.3847 9.12657 17 10.5 17C12.9853 17 15 14.9853 15 12.5C15 10.0147 12.9853 8 10.5 8C9.00218 8 7.67528 8.73178 6.85732 9.85732L6 9V12H9L8.30407 11.3041C8.72811 10.5271 9.5525 10 10.5 10C11.8807 10 13 11.1193 13 12.5Z" fill="#29AFB7"/>
</g>
<defs>
<clipPath id="clip0">
<rect width="20" height="20" fill="white"/>
</clipPath>
</defs>
</svg>
