<svg width="16" height="16" viewBox="0 0 16 16" fill="none" xmlns="http://www.w3.org/2000/svg">
<path fill-rule="evenodd" clip-rule="evenodd" d="M1.23442 15.8482L1.61748 14.9245C1.734 14.9728 1.86257 15 2 15H3.5V16H2C1.72882 16 1.47024 15.946 1.23442 15.8482ZM12.5 16V15H14C14.1374 15 14.266 14.9728 14.3825 14.9245L14.7656 15.8482C14.5298 15.946 14.2712 16 14 16H12.5ZM16 3.5H15V2C15 1.86257 14.9728 1.734 14.9245 1.61748L15.8482 1.23442C15.946 1.47024 16 1.72882 16 2V3.5ZM3.5 0H2C1.72882 0 1.47024 0.0539723 1.23442 0.151761L1.61748 1.07549C1.734 1.02717 1.86257 1 2 1H3.5V0ZM0 12.5H1V14C1 14.1374 1.02717 14.266 1.07549 14.3825L0.151761 14.7656C0.0539723 14.5298 0 14.2712 0 14V12.5ZM0 9.5H1V6.5H0V9.5ZM0 3.5H1V2C1 1.86257 1.02717 1.734 1.07549 1.61748L0.151761 1.23442C0.0539723 1.47024 0 1.72882 0 2V3.5ZM6.5 0V1H9.5V0H6.5ZM12.5 0V1H14C14.1374 1 14.266 1.02717 14.3825 1.07549L14.7656 0.151761C14.5298 0.0539723 14.2712 0 14 0H12.5ZM16 6.5H15V9.5H16V6.5ZM16 12.5H15V14C15 14.1374 14.9728 14.266 14.9245 14.3825L15.8482 14.7656C15.946 14.5298 16 14.2712 16 14V12.5ZM9.5 16V15H6.5V16H9.5Z" fill="#798288"/>
<path fill-rule="evenodd" clip-rule="evenodd" d="M10.8536 5.14645C11.0488 5.34171 11.0488 5.65829 10.8536 5.85355L5.85355 10.8536C5.65829 11.0488 5.34171 11.0488 5.14645 10.8536C4.95118 10.6583 4.95118 10.3417 5.14645 10.1464L10.1464 5.14645C10.3417 4.95118 10.6583 4.95118 10.8536 5.14645Z" fill="#D65633"/>
<path fill-rule="evenodd" clip-rule="evenodd" d="M10.8536 10.8536C10.6583 11.0488 10.3417 11.0488 10.1464 10.8536L5.14645 5.85355C4.95118 5.65829 4.95118 5.34171 5.14645 5.14645C5.34171 4.95118 5.65829 4.95118 5.85355 5.14645L10.8536 10.1464C11.0488 10.3417 11.0488 10.6583 10.8536 10.8536Z" fill="#D65633"/>
</svg>
