<svg width="16" height="16" viewBox="0 0 16 16" fill="none" xmlns="http://www.w3.org/2000/svg">
    <path d="M8 4.5C8.27614 4.5 8.5 4.72386 8.5 5V13C8.5 13.2761 8.27614 13.5 8 13.5H3C2.72386 13.5 2.5 13.2761 2.5 13L2.5 5C2.5 4.72386 2.72386 4.5 3 4.5L8 4.5Z" stroke="white"/>
    <path d="M1.99996 10H0.999999L1 2L6 2V4L7 4L7 2C7 1.44772 6.55228 1 6 1L1 1C0.447716 1 8.95621e-08 1.44772 0 2L2.10739e-08 10C-3.16101e-07 10.5523 0.447715 11 1 11H1.99996L1.99996 10Z" fill="white"/>
    <path d="M13.5 7C13.5 4.5 12 2.5 9 2.5" stroke="white"/>
    <path d="M13.5 10L11 7L16 7L13.5 10Z" fill="white"/>
</svg>
