<svg width="16" height="16" viewBox="0 0 16 16" fill="none" xmlns="http://www.w3.org/2000/svg">
<g clip-path="url(#clip0_9804_1007)">
<path d="M13 15H3V1H11.5L13 2.5V15Z" fill="white"/>
<path fill-rule="evenodd" clip-rule="evenodd" d="M3 0H11.4L14 2.6V15C14 15.2652 13.8946 15.5196 13.7071 15.7071C13.5196 15.8946 13.2652 16 13 16H3C2.73478 16 2.48043 15.8946 2.29289 15.7071C2.10536 15.5196 2 15.2652 2 15V3V2V1C2 0.734784 2.10536 0.48043 2.29289 0.292893C2.48043 0.105357 2.73478 0 3 0ZM3 2V3V15H13V4H11C10.7348 4 10.4804 3.89464 10.2929 3.70711C10.1054 3.51957 10 3.26522 10 3V1H3V2ZM13 3L11 1V3H13Z" fill="#798288"/>
<rect x="4" y="7" width="8" height="1" fill="#ADB1B2"/>
<rect x="4" y="9" width="8" height="1" fill="#ADB1B2"/>
<rect y="11" width="16" height="1" fill="#DFAA1A"/>
<path opacity="0.4" d="M2 12H14V15C14 15.5523 13.5523 16 13 16H3C2.44772 16 2 15.5523 2 15V12Z" fill="#FFB800"/>
</g>
<defs>
<clipPath id="clip0_9804_1007">
<rect width="16" height="16" fill="white"/>
</clipPath>
</defs>
</svg>
