<svg width="20" height="20" viewBox="0 0 20 20" fill="#FFB800" xmlns="http://www.w3.org/2000/svg">
    <g id="search"><path fill-rule="evenodd" clip-rule="evenodd" d="M17.0002 8.5C17.0002 11.5376 14.5378 14 11.5002 14C8.46267 14 6.00024 11.5376 6.00024 8.5C6.00024 5.46243 8.46267 3 11.5002 3C14.5378 3 17.0002 5.46243 17.0002 8.5ZM19.0002 8.5C19.0002 12.6421 15.6424 16 11.5002 16C9.97465 16 8.55544 15.5445 7.37121 14.7621L3.28177 18.7748C3.11268 18.9259 2.89256 19.0063 2.66644 18.9996C2.44031 18.9929 2.22528 18.8996 2.06532 18.7388C1.90536 18.5779 1.02608 17.5961 1.01943 17.3687C1.01277 17.1414 1.09276 16.92 1.24304 16.75L5.31969 12.7498C4.48747 11.5419 4.00024 10.0778 4.00024 8.5C4.00024 4.35786 7.3581 1 11.5002 1C15.6424 1 19.0002 4.35786 19.0002 8.5Z" stroke="none"/></g>
</svg>
