<svg width="16" height="16" viewBox="0 0 16 16" fill="none" xmlns="http://www.w3.org/2000/svg">
<path d="M4.93258 4.86362L5.30204 1.38845L4.93969 1.38863C4.75586 1.37521 4.58421 1.29643 4.45904 1.16801C4.33386 1.03959 4.26438 0.871003 4.26448 0.695932C4.26457 0.52086 4.33424 0.352201 4.45956 0.223659C4.58488 0.0951163 4.75662 0.0161578 4.94046 0.00256158L10.0652 0C10.249 0.0134124 10.4206 0.0921994 10.5458 0.220617C10.671 0.349034 10.7405 0.517623 10.7404 0.692694C10.7403 0.867766 10.6706 1.03642 10.5453 1.16497C10.42 1.29351 10.2482 1.37247 10.0644 1.38606L9.69169 1.38625L10.0573 4.86106C10.8954 5.41877 11.5936 6.14512 12.1022 6.98843C12.6108 7.83175 12.9173 9.04026 13 10.0092L8 9.99744V15L7.50429 16L7 15V10H2C2.07557 9.0327 2.37818 7.82456 2.88562 6.98232C3.39306 6.14007 4.09248 5.41615 4.93258 4.86362Z" fill="#407fb9"/>
</svg>
