<svg id="Layer_1" data-name="Layer 1" xmlns="http://www.w3.org/2000/svg" viewBox="0 0 16 16"><title>FolderSearch-01</title><polygon points="15 13 1 13 1 1 7 1 9 3 15 3 15 13" fill="#fff"/><rect x="1" y="4" width="15" height="1" fill="#798288"/><path d="M15.5,16a0.5,0.5,0,0,1-.35-0.15l-2.5-2.5a0.5,0.5,0,0,1,.71-0.71l2.5,2.5A0.5,0.5,0,0,1,15.5,16Z" fill="#407fb9"/><path d="M10.5,8A2.5,2.5,0,1,1,8,10.5,2.5,2.5,0,0,1,10.5,8m0-1a3.5,3.5,0,0,0,0,7A3.54,3.54,0,0,0,14,10.5,3.5,3.5,0,0,0,10.5,7h0Z" fill="#407fb9"/><path d="M15,2H9L7,0H1A1,1,0,0,0,0,1V13a1,1,0,0,0,1,1H7L6,13H1V1H6.59L8.29,2.71A1,1,0,0,0,9,3h6v9l1,1V3A1,1,0,0,0,15,2Z" fill="#798288"/></svg>