<svg id="Layer_1" data-name="Layer 1" xmlns="http://www.w3.org/2000/svg" viewBox="0 0 20 20"><title>pin1</title><path d="M13.1847,3.2852l3.53,3.53a1,1,0,0,0-1.4118.0024L12.8284,9.2929a1,1,0,0,0-.2415,1.0233c.49,1.47-.8938,4.0067-1.5385,4.9748L4.6971,8.94a6.5448,6.5448,0,0,1,4.15-1.57,6.1439,6.1439,0,0,1,.991.0814,1,1,0,0,0,.8689-.28L13.182,4.6967a1,1,0,0,0,.0027-1.4115m-.71-1.71a1,1,0,0,0-.7071,1.7071l.7071.7071L10,6.4644A7.1244,7.1244,0,0,0,8.8472,6.37,7.4688,7.4688,0,0,0,3.99,8.2322l-.7071.7071L6.818,12.4749,2.5753,16.7175l.7072.7071L7.5251,13.182l3.5356,3.5355.7071-.7071S14.331,12.3865,13.5355,10L16.01,7.5251l.7071.7071A1,1,0,0,0,18.1317,6.818l-4.95-4.95a.9971.9971,0,0,0-.7071-.2928Z" fill="#92999f"/></svg>