<svg id="Layer_1" data-name="Layer 1" width="16" height="16" viewBox="0 0 16 16" fill="none" xmlns="http://www.w3.org/2000/svg"><title>documentversions</title><path d="M4 4V10H7V7H10V4H4Z" fill="white"/><path d="M1 1V5H4V4H5V1L1 1Z" fill="white"/><path fill-rule="evenodd" clip-rule="evenodd" d="M4 4H10V5H11V4C11 3.44772 10.5523 3 10 3H4C3.44772 3 3 3.44772 3 4V10C3 10.5523 3.44772 11 4 11H5V10H4V4Z" fill="#798288"/><path fill-rule="evenodd" clip-rule="evenodd" d="M1 1H5V2H6V1C6 0.447715 5.55228 0 5 0H1C0.447715 0 0 0.447715 0 1V5C0 5.55228 0.447715 6 1 6H2V5H1L1 1Z" fill="#798288"/><rect x="6.5" y="6.5" width="9" height="9" rx="0.5" fill="white" stroke="#798288"/></svg>