<svg width="16" height="16" viewBox="0 0 16 16" fill="none" xmlns="http://www.w3.org/2000/svg">
<path d="M1 2C1 2 3.13317 1.89052 4.5 1.5C5.86683 1.10948 8 0 8 0C8 0 10.1332 1.10948 11.5 1.5C12.8668 1.89052 15 2 15 2V8C15 11 12.1806 14.4333 8.00117 16C3.82061 14.4338 1 11 1 8V2Z" fill="#798288"/>
<path fill-rule="evenodd" clip-rule="evenodd" d="M14 2.92571C13.891 2.91533 13.7754 2.90369 13.655 2.89066C12.9383 2.81311 11.9938 2.68112 11.2253 2.46154C10.4617 2.24337 9.52665 1.83962 8.81711 1.51094C8.50063 1.36434 8.21806 1.22749 8 1.11978C7.78194 1.22749 7.49937 1.36434 7.18289 1.51094C6.47335 1.83962 5.53832 2.24337 4.77472 2.46154C4.00619 2.68112 3.06173 2.81311 2.345 2.89066C2.2246 2.90369 2.10905 2.91533 2 2.92571V8.00001C2 9.19394 2.56945 10.5799 3.69143 11.8861C4.73703 13.1033 6.21865 14.1957 8.00107 14.926C9.78293 14.1956 11.264 13.1031 12.3092 11.886C13.4307 10.58 14 9.19405 14 8.00001V2.92571Z" fill="#407FB9"/>
<path d="M2 2.92571V8H8V14.9256C8.00036 14.9257 8.00071 14.9258 8.00107 14.926C9.78293 14.1956 11.264 13.1031 12.3092 11.886C13.4307 10.58 14 9.19405 14 8.00001C14 8.00001 14 8.00002 14 8.00001L8 8L8 1.11978C7.78194 1.22749 7.49937 1.36434 7.18289 1.51094C6.47335 1.83962 5.53832 2.24337 4.77472 2.46154C4.00619 2.68112 3.06173 2.81311 2.345 2.89066C2.2246 2.90369 2.10905 2.91533 2 2.92571Z" fill="#EFEFEF"/>
</svg>
