<svg width="16" height="16" viewBox="0 0 16 16" fill="none" xmlns="http://www.w3.org/2000/svg">
<mask id="path-1-inside-1_24613_334057" fill="white">
<path d="M1 2C1 2 3.13317 1.89052 4.5 1.5C5.86683 1.10948 8 0 8 0C8 0 10.1332 1.10948 11.5 1.5C12.8668 1.89052 15 2 15 2V8C15 11 12.1806 14.4333 8.00117 16C3.82061 14.4338 1 11 1 8V2Z"/>
</mask>
<path d="M1 2L0.948747 1.00131C0.417081 1.0286 0 1.46764 0 2H1ZM15 2H16C16 1.46764 15.5829 1.0286 15.0513 1.00131L15 2ZM8.00117 16L7.65033 16.9364C7.8766 17.0212 8.12592 17.0212 8.35218 16.9364L8.00117 16ZM8 0L8.46143 -0.887178C8.1722 -1.03761 7.8278 -1.03761 7.53857 -0.887178L8 0ZM14 2V8H16V2H14ZM14 8C14 9.19404 13.4307 10.58 12.3092 11.886C11.1961 13.1822 9.58872 14.3369 7.65016 15.0636L8.35218 16.9364C10.593 16.0964 12.485 14.7511 13.8265 13.189C15.1595 11.6367 16 9.80596 16 8H14ZM8.352 15.0636C6.41288 14.3371 4.80492 13.1823 3.69143 11.886C2.56945 10.5799 2 9.19393 2 8H0C0 9.80607 0.84086 11.637 2.17432 13.1893C3.51628 14.7515 5.4089 16.0967 7.65033 16.9364L8.352 15.0636ZM2 8V2H0V8H2ZM1 2C1.05125 2.99869 1.05133 2.99868 1.05142 2.99868C1.05146 2.99867 1.05156 2.99867 1.05164 2.99867C1.05181 2.99866 1.052 2.99865 1.05223 2.99864C1.05269 2.99861 1.05327 2.99858 1.05399 2.99854C1.05541 2.99847 1.05736 2.99837 1.0598 2.99823C1.06469 2.99797 1.0716 2.99759 1.08042 2.9971C1.09808 2.99611 1.12344 2.99463 1.15579 2.99264C1.22048 2.98866 1.31325 2.98258 1.4284 2.97407C1.65835 2.95707 1.97928 2.93021 2.345 2.89064C3.06173 2.8131 4.00619 2.6811 4.77472 2.46152L4.22528 0.538476C3.62697 0.709421 2.82143 0.827426 2.12987 0.902249C1.79145 0.938864 1.49366 0.963786 1.28093 0.979515C1.17473 0.987366 1.09018 0.992895 1.03287 0.996424C1.00422 0.998188 0.982418 0.99945 0.968156 1.00025C0.961027 1.00065 0.955785 1.00094 0.95252 1.00111C0.950888 1.0012 0.949749 1.00126 0.949117 1.00129C0.948801 1.00131 0.948611 1.00132 0.948548 1.00132C0.948517 1.00133 0.948518 1.00133 0.948551 1.00132C0.948568 1.00132 0.948617 1.00132 0.948625 1.00132C0.948682 1.00132 0.948747 1.00131 1 2ZM4.77472 2.46152C5.53832 2.24335 6.47335 1.83961 7.18289 1.51093C7.54529 1.34305 7.86323 1.18797 8.09075 1.07478C8.20466 1.01811 8.29627 0.971761 8.35989 0.939325C8.39171 0.923103 8.41655 0.910348 8.4337 0.90151C8.44228 0.897091 8.44894 0.893649 8.45359 0.891242C8.45592 0.890039 8.45774 0.889094 8.45905 0.888414C8.4597 0.888074 8.46023 0.8878 8.46063 0.887594C8.46083 0.887491 8.46099 0.887405 8.46113 0.887335C8.46119 0.8873 8.46127 0.887261 8.4613 0.887244C8.46137 0.887209 8.46143 0.887178 8 0C7.53857 -0.887178 7.53862 -0.8872 7.53865 -0.887218C7.53865 -0.887219 7.53868 -0.887233 7.53868 -0.887234C7.53868 -0.887236 7.53866 -0.887221 7.53859 -0.88719C7.53847 -0.887127 7.53822 -0.886997 7.53785 -0.886803C7.5371 -0.886413 7.53584 -0.885761 7.53409 -0.884853C7.53058 -0.883038 7.52509 -0.880202 7.51771 -0.876399C7.50295 -0.868795 7.48063 -0.857332 7.45145 -0.842454C7.39307 -0.81269 7.30736 -0.769314 7.19992 -0.715866C6.98476 -0.608826 6.68398 -0.462128 6.34224 -0.30382C5.64348 0.019867 4.82852 0.366122 4.22528 0.538476L4.77472 2.46152ZM8 0C7.53857 0.887178 7.53863 0.887209 7.5387 0.887244C7.53873 0.887261 7.53881 0.8873 7.53887 0.887335C7.53901 0.887405 7.53917 0.887491 7.53937 0.887594C7.53977 0.8878 7.5403 0.888074 7.54095 0.888414C7.54226 0.889094 7.54408 0.890039 7.54641 0.891242C7.55106 0.893649 7.55772 0.897091 7.5663 0.90151C7.58345 0.910348 7.60829 0.923103 7.64011 0.939325C7.70373 0.971761 7.79534 1.01811 7.90925 1.07478C8.13677 1.18797 8.45471 1.34305 8.81711 1.51093C9.52665 1.83961 10.4617 2.24335 11.2253 2.46152L11.7747 0.538476C11.1715 0.366122 10.3565 0.019867 9.65776 -0.30382C9.31602 -0.462128 9.01524 -0.608826 8.80008 -0.715866C8.69264 -0.769314 8.60693 -0.81269 8.54855 -0.842454C8.51937 -0.857332 8.49705 -0.868795 8.48229 -0.876399C8.47491 -0.880202 8.46942 -0.883038 8.46591 -0.884853C8.46416 -0.885761 8.4629 -0.886413 8.46215 -0.886803C8.46178 -0.886997 8.46153 -0.887127 8.46141 -0.88719C8.46134 -0.887221 8.46132 -0.887236 8.46132 -0.887234C8.46132 -0.887233 8.46135 -0.887219 8.46135 -0.887218C8.46138 -0.8872 8.46143 -0.887178 8 0ZM11.2253 2.46152C11.9938 2.6811 12.9383 2.8131 13.655 2.89064C14.0207 2.93021 14.3417 2.95707 14.5716 2.97407C14.6867 2.98258 14.7795 2.98866 14.8442 2.99264C14.8766 2.99463 14.9019 2.99611 14.9196 2.9971C14.9284 2.99759 14.9353 2.99797 14.9402 2.99823C14.9426 2.99837 14.9446 2.99847 14.946 2.99854C14.9467 2.99858 14.9473 2.99861 14.9478 2.99864C14.948 2.99865 14.9482 2.99866 14.9484 2.99867C14.9484 2.99867 14.9485 2.99867 14.9486 2.99868C14.9487 2.99868 14.9487 2.99869 15 2C15.0513 1.00131 15.0513 1.00132 15.0514 1.00132C15.0514 1.00132 15.0514 1.00132 15.0514 1.00132C15.0515 1.00133 15.0515 1.00133 15.0515 1.00132C15.0514 1.00132 15.0512 1.00131 15.0509 1.00129C15.0503 1.00126 15.0491 1.0012 15.0475 1.00111C15.0442 1.00094 15.039 1.00065 15.0318 1.00025C15.0176 0.99945 14.9958 0.998188 14.9671 0.996424C14.9098 0.992895 14.8253 0.987366 14.7191 0.979515C14.5063 0.963786 14.2086 0.938864 13.8701 0.902249C13.1786 0.827426 12.373 0.709421 11.7747 0.538476L11.2253 2.46152Z" fill="#798288" mask="url(#path-1-inside-1_24613_334057)"/>
</svg>
