<svg width="20" height="20" viewBox="0 0 20 20" fill="none" xmlns="http://www.w3.org/2000/svg">
<path fill-rule="evenodd" clip-rule="evenodd" d="M13.0241 12.0658C13.0241 12.0658 14.9513 10.8102 15.0316 4.02977C15.0189 3.48042 14.8816 2.94115 14.6301 2.45269L14.5799 2.35224L14.4093 2.02075C14.009 1.35849 13.4331 0.820169 12.7456 0.465537C12.0581 0.110906 11.2859 -0.0461691 10.5146 0.011743C9.6293 -0.0239132 8.75407 0.210819 8.00521 0.684762C7.40143 1.00453 6.89964 1.48771 6.55709 2.07917C6.21454 2.67062 6.04504 3.34653 6.06792 4.02977C6.00221 4.95067 5.95548 6.08363 6.06792 7C6.11739 8.91122 6.8413 10.5497 8.00521 12.0658C8.68126 12.6578 9.6164 12.989 10.5146 13C11.4522 12.9726 12.2861 12.6452 13.0241 12.0658ZM12.7962 3.25693L12.8464 3.35745L12.852 3.36825C12.9605 3.57894 13.0216 3.81077 13.0312 4.04748C12.9896 7.23548 12.5166 8.95913 12.1561 9.81054C11.9768 10.2338 11.8274 10.4372 11.7749 10.5016L11.7702 10.5073C11.3579 10.8261 10.9482 10.9778 10.4989 10.9992C10.1141 10.9861 9.72993 10.8537 9.45131 10.661C8.56794 9.45643 8.10145 8.26942 8.06726 6.94826L8.06476 6.85199L8.05303 6.7564C7.96603 6.04737 7.99796 5.08142 8.06285 4.17212L8.07031 4.06757L8.0668 3.96282C8.05646 3.65403 8.13308 3.34864 8.28779 3.08151C8.44248 2.8144 8.66898 2.59639 8.94126 2.45219L9.00951 2.41605L9.07476 2.37475C9.48056 2.11793 9.95467 1.99081 10.4342 2.01012L10.5494 2.01476L10.6644 2.00613C11.0668 1.97591 11.4699 2.05786 11.8287 2.24299C12.1707 2.41936 12.4599 2.68286 12.6674 3.00667L12.7962 3.25693Z" fill="#488AC7"/>
<path fill-rule="evenodd" clip-rule="evenodd" d="M20 20V16.5347C19.9518 16.2302 19.8375 15.9397 19.6648 15.6833C19.4922 15.4269 19.2653 15.2106 19 15.0495L14 13C14 13 13 14.5 10.5 14.5C8 14.5 7 13 7 13L6.95 13.0099L2 15.0495C1.71422 15.1857 1.47064 15.3953 1.29472 15.6566C1.1188 15.9178 1.01702 16.2211 1 16.5347V20H20ZM14.2969 15.4141C14.3378 15.3869 14.3776 15.3596 14.4165 15.3322L18 16.8011V18H3V16.8006L6.57615 15.3271C6.61735 15.3561 6.65967 15.3851 6.7031 15.4141C7.56606 15.9894 8.82271 16.5 10.5 16.5C12.1773 16.5 13.4339 15.9894 14.2969 15.4141Z" fill="#488AC7"/>
</svg>
