<svg width="382" height="175" viewBox="0 0 382 175" fill="none" xmlns="http://www.w3.org/2000/svg">
<circle cx="306" cy="99" r="76" fill="#FF7A00" fill-opacity="0.1"/>
<circle cx="306" cy="99" r="60" fill="#FF7A00" fill-opacity="0.2"/>
<path fill-rule="evenodd" clip-rule="evenodd" d="M299 60L306 53L313 60H357C358.105 60 359 60.8954 359 62V134C359 135.105 358.105 136 357 136H255C253.895 136 253 135.105 253 134V62C253 60.8954 253.895 60 255 60H299Z" fill="white"/>
<path d="M306 53L306.707 52.2929L306 51.5858L305.293 52.2929L306 53ZM299 60V61H299.414L299.707 60.7071L299 60ZM313 60L312.293 60.7071L312.586 61H313V60ZM305.293 52.2929L298.293 59.2929L299.707 60.7071L306.707 53.7071L305.293 52.2929ZM313.707 59.2929L306.707 52.2929L305.293 53.7071L312.293 60.7071L313.707 59.2929ZM313 61H357V59H313V61ZM357 61C357.552 61 358 61.4477 358 62H360C360 60.3431 358.657 59 357 59V61ZM358 62V134H360V62H358ZM358 134C358 134.552 357.552 135 357 135V137C358.657 137 360 135.657 360 134H358ZM357 135H255V137H357V135ZM255 135C254.448 135 254 134.552 254 134H252C252 135.657 253.343 137 255 137V135ZM254 134V62H252V134H254ZM254 62C254 61.4477 254.448 61 255 61V59C253.343 59 252 60.3431 252 62H254ZM255 61H299V59H255V61Z" fill="#C0CDDC"/>
<rect x="261" y="71" width="90" height="4" rx="2" fill="#C0CDDC" fill-opacity="0.3"/>
<rect x="261" y="105" width="90" height="4" rx="2" fill="#C0CDDC" fill-opacity="0.3"/>
<rect x="261" y="88" width="90" height="4" rx="2" fill="#83909F"/>
<rect x="261" y="122" width="90" height="4" rx="2" fill="#C0CDDC" fill-opacity="0.3"/>
<g clip-path="url(#clip0)">
<rect x="-471" width="800" height="46" fill="#13406D"/>
<rect x="281" width="48" height="46" fill="black" fill-opacity="0.05"/>
<path fill-rule="evenodd" clip-rule="evenodd" d="M207 18H221V18.382L214 21.882L207 18.382V18ZM207 20.618L207 28H221V20.618L214.447 23.8944L214 24.118L213.553 23.8944L207 20.618ZM205 18C205 16.8954 205.895 16 207 16H221C222.105 16 223 16.8954 223 18V28C223 29.1046 222.105 30 221 30H207C205.895 30 205 29.1046 205 28V18Z" fill="#F5F5F5"/>
<path fill-rule="evenodd" clip-rule="evenodd" d="M267 23C267 26.866 263.866 30 260 30C256.134 30 253 26.866 253 23C253 19.134 256.134 16 260 16C263.866 16 267 19.134 267 23ZM269 23C269 27.9706 264.971 32 260 32C255.029 32 251 27.9706 251 23C251 18.0294 255.029 14 260 14C264.971 14 269 18.0294 269 23ZM261.877 18.2808C261.393 18.0519 260.804 17.9375 260.11 17.9375C258.702 17.9375 257.54 18.4732 256.625 19.5446L257.934 20.5589C258.523 19.8723 259.19 19.529 259.937 19.529C260.347 19.529 260.668 19.6279 260.899 19.8255C261.141 20.0127 261.262 20.278 261.262 20.6213C261.262 20.9021 261.178 21.131 261.009 21.3078C260.852 21.4847 260.594 21.6927 260.237 21.932C259.9 22.1608 259.627 22.374 259.416 22.5717C259.206 22.7589 259.022 23.019 258.864 23.3519C258.717 23.6743 258.644 24.0696 258.644 24.5377V25.1462H260.52V24.6157C260.52 24.2204 260.626 23.9032 260.836 23.6639C261.046 23.4247 261.367 23.1646 261.798 22.8838C262.134 22.6549 262.408 22.4469 262.618 22.2596C262.828 22.0724 263.007 21.8331 263.154 21.5419C263.301 21.2402 263.375 20.8813 263.375 20.4652C263.375 20.0075 263.249 19.5863 262.996 19.2014C262.744 18.8165 262.371 18.5096 261.877 18.2808ZM260.52 26.4717C260.268 26.2221 259.963 26.0973 259.606 26.0973C259.248 26.0973 258.949 26.2221 258.707 26.4717C258.465 26.711 258.344 27.0075 258.344 27.3611C258.344 27.7044 258.465 28.0009 258.707 28.2505C258.959 28.5002 259.259 28.625 259.606 28.625C259.963 28.625 260.268 28.5002 260.52 28.2505C260.773 28.0009 260.899 27.7044 260.899 27.3611C260.899 27.0075 260.773 26.711 260.52 26.4717Z" fill="#F5F5F5"/>
<g clip-path="url(#clip1)">
<rect x="65" y="9" width="123" height="28" rx="3" fill="white" fill-opacity="0.1"/>
<path fill-rule="evenodd" clip-rule="evenodd" d="M90 21.5C90 24.5376 87.5376 27 84.5 27C81.4624 27 79 24.5376 79 21.5C79 18.4624 81.4624 16 84.5 16C87.5376 16 90 18.4624 90 21.5ZM92 21.5C92 25.6421 88.6421 29 84.5 29C82.9744 29 81.5552 28.5445 80.371 27.7621L76.2815 31.7748C76.1124 31.9259 75.8923 32.0063 75.6662 31.9996C75.4401 31.9929 75.2251 31.8996 75.0651 31.7388C74.9051 31.5779 74.0259 30.5961 74.0192 30.3687C74.0125 30.1414 74.0925 29.92 74.2428 29.75L78.3195 25.7498C77.4872 24.5419 77 23.0778 77 21.5C77 17.3579 80.3579 14 84.5 14C88.6421 14 92 17.3579 92 21.5Z" fill="#F5F5F5"/>
</g>
<g filter="url(#filter0_d)">
<g clip-path="url(#clip2)">
<rect x="20" y="9" width="32" height="28" rx="3" fill="#187FA9"/>
<path fill-rule="evenodd" clip-rule="evenodd" d="M37 17H35V22H30V24H35V29H37V24H42V22H37V17Z" fill="white"/>
</g>
</g>
<mask id="mask0" mask-type="alpha" maskUnits="userSpaceOnUse" x="289" y="7" width="32" height="32">
<circle cx="305" cy="23" r="15" fill="#E4E4E4" stroke="white" stroke-width="2"/>
</mask>
<g mask="url(#mask0)">
<path d="M305 39C313.837 39 321 31.8366 321 23C321 14.1634 313.837 7 305 7C296.163 7 289 14.1634 289 23C289 31.8366 296.163 39 305 39Z" fill="#F5F5F5"/>
<path fill-rule="evenodd" clip-rule="evenodd" d="M314.412 35.84C311.689 37.8922 308.389 39 305 39C301.611 39 298.311 37.8922 295.588 35.84C297.947 34.8212 300.206 33.2645 300.538 31.6446C301.026 29.2673 300.751 28.4782 300.464 28.0603C299.822 27.4641 299.336 26.7142 299.051 25.8787C298.679 24.5758 298.686 23.7097 298.382 23.5418C297.15 22.8587 296.8 22.4509 296.821 20.191C296.811 19.9304 296.867 19.6715 296.984 19.4395C297.102 19.2074 297.276 19.0101 297.49 18.8666C297.49 18.8666 296.173 13.8797 297.862 11.3862C298.685 10.2448 299.777 9.33258 301.037 8.73352C302.298 8.13447 303.687 7.86791 305.075 7.95842H305.303C306.638 7.8782 307.97 8.15194 309.169 8.75283C310.368 9.35371 311.393 10.2611 312.144 11.3862C313.838 13.8746 312.516 18.8666 312.516 18.8666C312.731 19.0101 312.905 19.2074 313.022 19.4395C313.139 19.6715 313.195 19.9304 313.185 20.191C313.208 22.4509 312.856 22.8587 311.624 23.5418C311.32 23.7109 311.332 24.5758 310.955 25.8787C310.669 26.7159 310.181 27.4669 309.536 28.0629C309.249 28.4808 308.974 29.2698 309.462 31.6472C309.794 33.2645 312.056 34.8224 314.412 35.84ZM305.284 7.95842C302.548 7.95211 307.589 7.95716 305.284 7.95842V7.95842Z" fill="#C0CDDC"/>
</g>
</g>
<defs>
<filter id="filter0_d" x="12" y="1" width="48" height="44" filterUnits="userSpaceOnUse" color-interpolation-filters="sRGB">
<feFlood flood-opacity="0" result="BackgroundImageFix"/>
<feColorMatrix in="SourceAlpha" type="matrix" values="0 0 0 0 0 0 0 0 0 0 0 0 0 0 0 0 0 0 127 0"/>
<feOffset/>
<feGaussianBlur stdDeviation="4"/>
<feColorMatrix type="matrix" values="0 0 0 0 0 0 0 0 0 0 0 0 0 0 0 0 0 0 0.15 0"/>
<feBlend mode="normal" in2="BackgroundImageFix" result="effect1_dropShadow"/>
<feBlend mode="normal" in="SourceGraphic" in2="effect1_dropShadow" result="shape"/>
</filter>
<clipPath id="clip0">
<rect width="329" height="46" fill="white"/>
</clipPath>
<clipPath id="clip1">
<rect x="65" y="9" width="123" height="28" fill="white"/>
</clipPath>
<clipPath id="clip2">
<path d="M20 9H52V37H20V9Z" fill="white"/>
</clipPath>
</defs>
</svg>
