<svg id="Layer_1" data-name="Layer 1" xmlns="http://www.w3.org/2000/svg" viewBox="0 0 200 170"><title>new_version</title><path d="M176.12,158.31H27.62a3.53,3.53,0,0,1-3.54-3.54V104.71a3.53,3.53,0,0,1,3.54-3.54h46a3.53,3.53,0,0,1,3.54,3.54v10a3.54,3.54,0,0,0,3.54,3.54h42.43a3.54,3.54,0,0,0,3.54-3.54v-10a3.53,3.53,0,0,1,3.54-3.54h46a3.53,3.53,0,0,1,3.54,3.54v50.07a3.53,3.53,0,0,1-3.54,3.54h0Zm-145-7.07H172.59v-43H133.69v6.46a10.62,10.62,0,0,1-10.61,10.61H80.66A10.62,10.62,0,0,1,70,114.71v-6.46H31.15v43h0Z" fill="#a9d4ea"/><path d="M176.12,159.31H27.62a4.54,4.54,0,0,1-4.54-4.54V104.71a4.54,4.54,0,0,1,4.54-4.54h46a4.54,4.54,0,0,1,4.54,4.54v10a2.54,2.54,0,0,0,2.54,2.54h42.43a2.54,2.54,0,0,0,2.54-2.54v-10a4.54,4.54,0,0,1,4.54-4.54h46a4.54,4.54,0,0,1,4.54,4.54v50.07A4.54,4.54,0,0,1,176.12,159.31ZM27.62,102.17a2.54,2.54,0,0,0-2.54,2.54v50.07a2.54,2.54,0,0,0,2.54,2.54h148.5a2.54,2.54,0,0,0,2.54-2.54V104.71a2.54,2.54,0,0,0-2.54-2.54h-46a2.54,2.54,0,0,0-2.54,2.54v10a4.54,4.54,0,0,1-4.54,4.54H80.66a4.54,4.54,0,0,1-4.54-4.54v-10a2.54,2.54,0,0,0-2.54-2.54h-46Zm145,50.07H31.15a1,1,0,0,1-1-1v-43a1,1,0,0,1,1-1H70a1,1,0,0,1,1,1v6.46a9.62,9.62,0,0,0,9.61,9.61h42.43a9.62,9.62,0,0,0,9.61-9.61v-6.46a1,1,0,0,1,1-1h38.89a1,1,0,0,1,1,1v43A1,1,0,0,1,172.59,152.24Zm-140.43-2H171.59v-41H134.69v5.46a11.62,11.62,0,0,1-11.61,11.61H80.66A11.62,11.62,0,0,1,69,114.71v-5.46H32.15v41Z" fill="#a9d4ea"/><path d="M153.18,9.69H52.42a4.54,4.54,0,0,0,0,9.07H153.18A4.54,4.54,0,1,0,153.18,9.69Z" fill="#a9d4ea"/><path d="M56.65,44.18H41.83V29.37a4.5,4.5,0,0,0-9,0V44.18H18a4.5,4.5,0,0,0,0,9H32.83V68a4.5,4.5,0,0,0,9,0V53.18H56.65A4.5,4.5,0,0,0,56.65,44.18Z" fill="#a9d4ea"/><path d="M160,24.83H46.79a10.42,10.42,0,0,1,1,4.54V33.9H160A4.54,4.54,0,1,0,160,24.83Z" fill="#a9d4ea"/><path d="M168.21,42.51H65.12a10.39,10.39,0,0,1,1.61,9.07h96.94v52a4.54,4.54,0,0,0,9.07,0V47A4.54,4.54,0,0,0,168.21,42.51Z" fill="#a9d4ea"/><path d="M37.33,78.5a10.42,10.42,0,0,1-4.49-1v26.14a4.54,4.54,0,1,0,9.07,0V77.43A10.42,10.42,0,0,1,37.33,78.5Z" fill="#a9d4ea"/></svg>