<svg width="16" height="16" viewBox="0 0 16 16" fill="none" xmlns="http://www.w3.org/2000/svg">
<path fill-rule="evenodd" clip-rule="evenodd" d="M5 2H15V3H5V2ZM1 7H10V8H1V7ZM13 7H15V8H13V7ZM1 12H4V13H1V12ZM15 12H7V13H15V12Z" fill="#798288"/>
<path opacity="0.05" fill-rule="evenodd" clip-rule="evenodd" d="M1 2.5C1 1.11929 2.11929 0 3.5 0C4.88071 0 6 1.11929 6 2.5C6 3.88071 4.88071 5 3.5 5C2.11929 5 1 3.88071 1 2.5ZM9 7.5C9 6.11929 10.1193 5 11.5 5C12.8807 5 14 6.11929 14 7.5C14 8.88071 12.8807 10 11.5 10C10.1193 10 9 8.88071 9 7.5ZM5.5 10C4.11929 10 3 11.1193 3 12.5C3 13.8807 4.11929 15 5.5 15C6.88071 15 8 13.8807 8 12.5C8 11.1193 6.88071 10 5.5 10Z" fill="#798288"/>
<path fill-rule="evenodd" clip-rule="evenodd" d="M2 2.5C2 3.32843 2.67157 4 3.5 4C4.32843 4 5 3.32843 5 2.5C5 1.67157 4.32843 1 3.5 1C2.67157 1 2 1.67157 2 2.5ZM3.5 0C2.11929 0 1 1.11929 1 2.5C1 3.88071 2.11929 5 3.5 5C4.88071 5 6 3.88071 6 2.5C6 1.11929 4.88071 0 3.5 0ZM10 7.5C10 8.32843 10.6716 9 11.5 9C12.3284 9 13 8.32843 13 7.5C13 6.67157 12.3284 6 11.5 6C10.6716 6 10 6.67157 10 7.5ZM11.5 5C10.1193 5 9 6.11929 9 7.5C9 8.88071 10.1193 10 11.5 10C12.8807 10 14 8.88071 14 7.5C14 6.11929 12.8807 5 11.5 5ZM5.5 14C4.67157 14 4 13.3284 4 12.5C4 11.6716 4.67157 11 5.5 11C6.32843 11 7 11.6716 7 12.5C7 13.3284 6.32843 14 5.5 14ZM3 12.5C3 11.1193 4.11929 10 5.5 10C6.88071 10 8 11.1193 8 12.5C8 13.8807 6.88071 15 5.5 15C4.11929 15 3 13.8807 3 12.5Z" fill="#798288"/>
</svg>
