<svg width="20" height="20" viewBox="0 0 20 20" fill="none" stroke="white" xmlns="http://www.w3.org/2000/svg">
    <g id="widgets">
        <path fill-rule="evenodd" stroke="none" clip-rule="evenodd" d="M11.5247 3.17897C11.0171 3.06188 10.4883 3 9.94507 3C6.41861 3 3.5012 5.6077 3.01596 8.99999H1C1.49745 4.50004 5.31252 1 9.94507 1C10.7439 1 11.5183 1.10406 12.2557 1.29937L11.5247 3.17897ZM13.3886 3.90418C15.512 5.10627 16.9451 7.38578 16.9451 10L16.9451 10.0074V15.6573C18.1959 14.1116 18.9451 12.1433 18.9451 10C18.9451 6.53607 16.9882 3.5292 14.1196 2.02462L13.3886 3.90418ZM1 11H3.01596C3.35346 13.3595 4.86767 15.3395 6.94507 16.3264V18.4879C3.75101 17.3589 1.38449 14.4781 1 11Z" />
        <path fill-rule="evenodd" stroke="none" clip-rule="evenodd" d="M1.00085 8.99999C1.12669 7.87454 1.46417 6.77984 1.99866 5.77465C2.69042 4.47367 3.69102 3.36244 4.9126 2.53853C6.13417 1.71461 7.53935 1.20322 9.00474 1.04927C10.1804 0.925746 11.366 1.03533 12.4944 1.36858L9.28118 8.99999H1.00085Z" />
        <path fill-rule="evenodd" stroke="none" clip-rule="evenodd" d="M12.9451 12H14.9451V20H12.9451V12ZM8.94507 15H10.9451V20H8.94507V15ZM18.9451 17H16.9451V20H18.9451V17Z"/>
    </g>
</svg>
