<svg width="16" height="16" viewBox="0 0 16 16" fill="none" xmlns="http://www.w3.org/2000/svg">
<path d="M0.707107 8L8 0.707107L15.2929 8L8 15.2929L0.707107 8Z" fill="white" stroke="#D7853C"/>
<path d="M7.10993 9.9363C7.06327 9.83806 7.02643 9.73555 6.99993 9.63025C6.98777 9.50878 6.98777 9.38643 6.99993 9.26497C6.99514 9.08535 7.04009 8.90785 7.12992 8.7516C7.22053 8.59339 7.33144 8.44739 7.4599 8.3172C7.59345 8.1915 7.73363 8.07287 7.87987 7.96179L8.30985 7.59651C8.4354 7.48568 8.54627 7.35963 8.63982 7.22136C8.72686 7.09296 8.7722 6.94144 8.76982 6.78696C8.77209 6.65832 8.73742 6.53168 8.66982 6.42168C8.60233 6.31309 8.50982 6.22176 8.39984 6.15512C8.27665 6.07806 8.14155 6.02137 7.99987 5.98729C7.84563 5.95317 7.68795 5.93661 7.5299 5.93793C6.96417 5.94626 6.42066 6.1567 6 6.53028V5.45417C6.57054 5.15781 7.20519 5.00201 7.84988 5.00004C8.12961 4.99871 8.40841 5.03187 8.67982 5.09876C8.92456 5.15496 9.15786 5.25177 9.36977 5.38507C9.5582 5.50572 9.71566 5.66795 9.82974 5.85895C9.94491 6.06061 10.0036 6.28893 9.99973 6.52041C10.004 6.74213 9.95612 6.96181 9.85974 7.16212C9.76394 7.3486 9.64283 7.52132 9.49977 7.67549C9.34882 7.83701 9.18126 7.98259 8.9998 8.10988L8.53983 8.47516C8.40488 8.58535 8.284 8.71132 8.17985 8.85032C8.08808 8.97698 8.0391 9.12898 8.03986 9.28471C8.03835 9.40898 8.05865 9.53257 8.09986 9.64999C8.14593 9.74921 8.19941 9.84491 8.25985 9.9363H7.10993ZM7.72988 11.9997C7.64449 11.9998 7.55992 11.9832 7.481 11.9511C7.40207 11.9189 7.33035 11.8716 7.26992 11.8121C7.20769 11.7538 7.15861 11.6833 7.12588 11.605C7.09314 11.5268 7.07748 11.4426 7.07993 11.3579C7.07966 11.2765 7.0964 11.1959 7.12908 11.1212C7.16177 11.0465 7.20971 10.9792 7.26992 10.9235C7.32959 10.8626 7.40106 10.8142 7.48008 10.7811C7.5591 10.7481 7.64406 10.731 7.72988 10.731C7.81571 10.731 7.90067 10.7481 7.97969 10.7811C8.05871 10.8142 8.13018 10.8626 8.18985 10.9235C8.25259 10.9814 8.30201 11.0519 8.33479 11.1303C8.36756 11.2086 8.38293 11.293 8.37984 11.3777C8.38229 11.4623 8.36663 11.5465 8.33389 11.6248C8.30116 11.703 8.25207 11.7736 8.18985 11.8318C8.06461 11.9449 7.89952 12.0052 7.72988 11.9997Z" fill="#576672"/>
</svg>
