<svg width="13" height="16" viewBox="0 0 13 16" fill="none" xmlns="http://www.w3.org/2000/svg">
<path d="M12 1V15H1V1H12ZM12 0H1C0.734784 0 0.48043 0.105357 0.292893 0.292893C0.105357 0.48043 0 0.734784 0 1V15C0 15.2652 0.105357 15.5196 0.292893 15.7071C0.48043 15.8946 0.734784 16 1 16H12C12.2652 16 12.5196 15.8946 12.7071 15.7071C12.8946 15.5196 13 15.2652 13 15V1C13 0.734784 12.8946 0.48043 12.7071 0.292893C12.5196 0.105357 12.2652 0 12 0V0Z" fill="#798288"/>
<path d="M11 3H2V4H11V3Z" fill="#ADB1B2"/>
<path d="M11 5H2V6H11V5Z" fill="#ADB1B2"/>
<path d="M11 7H2V8H11V7Z" fill="#ADB1B2"/>
</svg>
