<svg width="15" height="15" viewBox="0 0 15 15" fill="none" xmlns="http://www.w3.org/2000/svg">
<path d="M7.5 1C8.78558 1 10.0423 1.38122 11.1112 2.09545C12.1801 2.80968 13.0133 3.82484 13.5052 5.01256C13.9972 6.20028 14.1259 7.50721 13.8751 8.76809C13.6243 10.029 13.0052 11.1872 12.0962 12.0962C11.1872 13.0052 10.029 13.6243 8.76809 13.8751C7.50721 14.1259 6.20028 13.9972 5.01256 13.5052C3.82484 13.0132 2.80968 12.1801 2.09545 11.1112C1.38122 10.0423 1 8.78558 1 7.5C1.00265 5.77691 1.68832 4.12514 2.90673 2.90673C4.12514 1.68831 5.77691 1.00264 7.5 1ZM7.5 0C6.01664 0 4.5666 0.439867 3.33323 1.26398C2.09986 2.08809 1.13856 3.25943 0.570907 4.62987C0.00324965 6.00032 -0.145275 7.50832 0.144114 8.96318C0.433503 10.418 1.14781 11.7544 2.1967 12.8033C3.2456 13.8522 4.58197 14.5665 6.03683 14.8559C7.49168 15.1453 8.99968 14.9968 10.3701 14.4291C11.7406 13.8614 12.9119 12.9001 13.736 11.6668C14.5601 10.4334 15 8.98336 15 7.5C15 5.51088 14.2098 3.60322 12.8033 2.1967C11.3968 0.790176 9.48913 0 7.5 0V0Z" fill="#D88943"/>
<path d="M10.5 7H8V3.5C8 3.36739 7.94732 3.24021 7.85355 3.14645C7.75979 3.05268 7.63261 3 7.5 3C7.36739 3 7.24021 3.05268 7.14645 3.14645C7.05268 3.24021 7 3.36739 7 3.5V8H10.5C10.6326 8 10.7598 7.94732 10.8536 7.85355C10.9473 7.75979 11 7.63261 11 7.5C11 7.36739 10.9473 7.24021 10.8536 7.14645C10.7598 7.05268 10.6326 7 10.5 7Z" fill="#9DA2A5"/>
</svg>
