<svg width="16" height="14" viewBox="0 0 16 14" fill="none" xmlns="http://www.w3.org/2000/svg">
<path d="M15 1V13H1V1H15ZM15 0H1C0.734784 0 0.48043 0.105357 0.292893 0.292893C0.105357 0.48043 0 0.734784 0 1L0 13C0 13.2652 0.105357 13.5196 0.292893 13.7071C0.48043 13.8946 0.734784 14 1 14H15C15.2652 14 15.5196 13.8946 15.7071 13.7071C15.8946 13.5196 16 13.2652 16 13V1C16 0.734784 15.8946 0.48043 15.7071 0.292893C15.5196 0.105357 15.2652 0 15 0Z" fill="#798288"/>
<path d="M4.5 7.5V8H4.87202L4.97891 7.64367L4.5 7.5ZM6 2.5L6.47724 2.35086C6.41169 2.14112 6.21689 1.99875 5.99714 2.00001C5.7774 2.00126 5.58423 2.14585 5.52109 2.35633L6 2.5ZM8.5 10.5L8.02276 10.6491C8.089 10.8611 8.28712 11.004 8.50916 10.9999C8.7312 10.9958 8.92395 10.8458 8.98238 10.6316L8.5 10.5ZM10 5L10.4642 4.8143C10.3844 4.61476 10.186 4.48854 9.97145 4.50082C9.75689 4.51309 9.57417 4.6611 9.51762 4.86844L10 5ZM11 7.5L10.5358 7.6857L10.6615 8H11V7.5ZM2 8H4.5V7H2V8ZM4.97891 7.64367L6.47891 2.64367L5.52109 2.35633L4.02109 7.35633L4.97891 7.64367ZM5.52276 2.64914L8.02276 10.6491L8.97724 10.3509L6.47724 2.35086L5.52276 2.64914ZM8.98238 10.6316L10.4824 5.13156L9.51762 4.86844L8.01762 10.3684L8.98238 10.6316ZM9.53576 5.1857L10.5358 7.6857L11.4642 7.3143L10.4642 4.8143L9.53576 5.1857ZM11 8H14V7H11V8Z" fill="#407FB9"/>
</svg>
