<svg width="15" height="15" viewBox="0 0 15 15" fill="none" xmlns="http://www.w3.org/2000/svg">
<path d="M14.5 7.5C14.5 11.366 11.366 14.5 7.5 14.5C3.63401 14.5 0.5 11.366 0.5 7.5C0.5 3.63401 3.63401 0.5 7.5 0.5C11.366 0.5 14.5 3.63401 14.5 7.5Z" fill="white" stroke="#96A3B8"/>
<path d="M8.5 11V8.5M8.5 8.5V4.5C9 4.5 9.1 4.5 9.5 4.5C11 4.5 11.5 5.5 11.5 6.5C11.5 7.5 11 8.5 9.5 8.5C8.7 8.5 8.83333 8.5 8.5 8.5Z" stroke="#96A3B8"/>
<path d="M11.5 11C11.5 11 11.5 10.25 11 9.50002C10.8141 9.22114 10.4208 8.65348 10 8.50001C9 8.50001 8.5 8.50002 8.5 8.50002" stroke="#96A3B8"/>
<rect x="3.5" y="4.5" width="3" height="6" rx="1.5" stroke="#96A3B8"/>
</svg>
