<svg width="16" height="14" viewBox="0 0 16 14" fill="none" xmlns="http://www.w3.org/2000/svg">
<path d="M15 1V13H1V1H15ZM15 0H1C0.734784 0 0.48043 0.105357 0.292893 0.292893C0.105357 0.48043 0 0.734784 0 1L0 13C0 13.2652 0.105357 13.5196 0.292893 13.7071C0.48043 13.8946 0.734784 14 1 14H15C15.2652 14 15.5196 13.8946 15.7071 13.7071C15.8946 13.5196 16 13.2652 16 13V1C16 0.734784 15.8946 0.48043 15.7071 0.292893C15.5196 0.105357 15.2652 0 15 0Z" fill="#798288"/>
<path d="M10.501 9.99922C10.3992 9.99821 10.3001 9.96617 10.2171 9.90736C10.134 9.84855 10.0708 9.76578 10.036 9.67011C10.0012 9.57445 9.99648 9.47044 10.0224 9.372C10.0483 9.27356 10.1036 9.18537 10.181 9.11922L12.721 6.99922L10.181 4.87922C10.0789 4.79435 10.0147 4.67239 10.0025 4.54018C9.99029 4.40797 10.0311 4.27633 10.116 4.17422C10.2009 4.07211 10.3228 4.0079 10.455 3.99571C10.5872 3.98352 10.7189 4.02435 10.821 4.10922L13.821 6.60922C13.8776 6.65613 13.9232 6.71496 13.9545 6.78151C13.9858 6.84806 14.002 6.92068 14.002 6.99422C14.002 7.06775 13.9858 7.14038 13.9545 7.20692C13.9232 7.27347 13.8776 7.3323 13.821 7.37922L10.821 9.87922C10.7317 9.95556 10.6184 9.99804 10.501 9.99922Z" fill="#407FB9"/>
<path d="M5.50098 9.99922C5.38353 9.99804 5.27024 9.95556 5.18098 9.87922L2.18098 7.37922C2.12436 7.3323 2.07878 7.27347 2.0475 7.20692C2.01622 7.14038 2 7.06775 2 6.99422C2 6.92068 2.01622 6.84806 2.0475 6.78151C2.07878 6.71496 2.12436 6.65613 2.18098 6.60922L5.18098 4.10922C5.28309 4.02435 5.41473 3.98352 5.54694 3.99571C5.67915 4.0079 5.80111 4.07211 5.88598 4.17422C5.97085 4.27633 6.01168 4.40797 5.99949 4.54018C5.9873 4.67239 5.92309 4.79435 5.82098 4.87922L3.28098 6.99922L5.82098 9.11922C5.89835 9.18537 5.95368 9.27356 5.97958 9.372C6.00549 9.47044 6.00073 9.57445 5.96594 9.67011C5.93115 9.76578 5.868 9.84855 5.78491 9.90736C5.70182 9.96617 5.60277 9.99821 5.50098 9.99922Z" fill="#407FB9"/>
<path d="M7.00098 10.9992H6.86098C6.73367 10.9621 6.62633 10.8759 6.56257 10.7596C6.49881 10.6434 6.48385 10.5065 6.52098 10.3792L8.52098 3.37923C8.55811 3.24662 8.6464 3.1342 8.76642 3.06668C8.88644 2.99917 9.02837 2.9821 9.16098 3.01923C9.29359 3.05636 9.40601 3.14465 9.47353 3.26467C9.54104 3.3847 9.55811 3.52662 9.52098 3.65923L7.52098 10.6592C7.48535 10.7662 7.4146 10.8581 7.32019 10.9198C7.22579 10.9815 7.1133 11.0095 7.00098 10.9992Z" fill="#407FB9"/>
</svg>
