<svg width="16" height="16" viewBox="0 0 16 16" fill="none" xmlns="http://www.w3.org/2000/svg">
  <g clip-path="url(#clip0_32487_169059)">
    <path d="M7.5 14.5C11.366 14.5 14.5 11.366 14.5 7.5C14.5 3.63401 11.366 0.5 7.5 0.5C3.63401 0.5 0.5 3.63401 0.5 7.5C0.5 11.366 3.63401 14.5 7.5 14.5Z" fill="white"/>
    <path d="M8 0C3.62667 0 0 3.62667 0 8C0 12.3733 3.62667 16 8 16C12.3733 16 16 12.3733 16 8C16 3.62667 12.3733 0 8 0Z" fill="#6EC479"/>
    <path d="M7.33939 11.8811C7.13939 11.8811 7.03939 11.7811 6.83939 11.6811L4.23939 9.58114C3.93939 9.28114 3.93939 8.88114 4.13939 8.58114C4.43939 8.28114 4.83939 8.28114 5.13939 8.48114L7.13939 10.1811L10.9394 5.28114C11.1394 4.98114 11.6394 4.88114 11.9394 5.18114C12.2394 5.38114 12.3394 5.88114 12.0394 6.18114L7.83939 11.6811C7.73939 11.7811 7.63939 11.8811 7.33939 11.8811Z" fill="white"/>
  </g>
  <defs>
    <clipPath id="clip0_32487_169059">
      <rect width="16" height="16" fill="white"/>
    </clipPath>
  </defs>
</svg>
