<svg width="16" height="16" viewBox="0 0 16 16" fill="none" xmlns="http://www.w3.org/2000/svg">
<rect width="16" height="16" rx="8" fill="#5783DB"/>
<path fill-rule="evenodd" clip-rule="evenodd" d="M2.08301 9.00014C2.50454 11.5126 4.48745 13.4955 6.99985 13.9171V11.8788C5.59176 11.5168 4.48322 10.4082 4.12124 9.00014H2.08301ZM11.8789 7.00014C11.5169 5.59185 10.4082 4.48316 8.99985 4.12121V2.08301C11.5125 2.50446 13.4956 4.48754 13.9171 7.00014H11.8789ZM8.99985 11.879C10.4081 11.517 11.5168 10.4084 11.8788 9.00014H13.9171C13.4955 11.5127 11.5124 13.4957 8.99985 13.9172V11.879Z" fill="white"/>
<path opacity="0.2" fill-rule="evenodd" clip-rule="evenodd" d="M6.99995 2.08301V4.12868C5.59578 4.49037 4.49032 5.59585 4.12867 7.00003L2.08301 7.00003C2.50452 4.48756 4.48749 2.50456 6.99995 2.08301ZM6.07583 13.6848C6.37414 13.7858 6.68297 13.8639 7.00024 13.9171V13.6848H6.07583Z" fill="white"/>
</svg>
