<svg width="20" height="20" viewBox="0 0 20 20" fill="none" xmlns="http://www.w3.org/2000/svg">
<mask id="path-1-inside-1_19216_13794" fill="white">
<rect width="20" height="20" rx="1"/>
</mask>
<rect width="20" height="20" rx="1" stroke="#3f3f3f" stroke-width="4" mask="url(#path-1-inside-1_19216_13794)"/>
<path d="M4 10C3.44772 10 3 10.4477 3 11C3 11.5523 3.44772 12 4 12V10ZM6.5 11V12H7.24403L7.45783 11.2873L6.5 11ZM8 6L8.95448 5.70173C8.82339 5.28224 8.43377 4.99751 7.99429 5.00002C7.5548 5.00253 7.16846 5.29169 7.04217 5.71265L8 6ZM10.5 14L9.54552 14.2983C9.67494 14.7124 10.0567 14.9959 10.4906 15C10.9245 15.004 11.3115 14.7279 11.4487 14.3162L10.5 14ZM12.5 8L13.3944 7.55279C13.2135 7.19102 12.8326 6.97384 12.4291 7.00252C12.0257 7.03119 11.6792 7.30007 11.5513 7.68377L12.5 8ZM14 11L13.1056 11.4472L13.382 12H14V11ZM16 12C16.5523 12 17 11.5523 17 11C17 10.4477 16.5523 10 16 10V12ZM4 12H6.5V10H4V12ZM7.45783 11.2873L8.95783 6.28735L7.04217 5.71265L5.54217 10.7127L7.45783 11.2873ZM7.04552 6.29827L9.54552 14.2983L11.4545 13.7017L8.95448 5.70173L7.04552 6.29827ZM11.4487 14.3162L13.4487 8.31623L11.5513 7.68377L9.55132 13.6838L11.4487 14.3162ZM11.6056 8.44721L13.1056 11.4472L14.8944 10.5528L13.3944 7.55279L11.6056 8.44721ZM14 12H16V10H14V12Z" fill="#3f3f3f"/>
</svg>
