<svg width="16" height="16" viewBox="0 0 16 16" xmlns="http://www.w3.org/2000/svg">
  <g id="remove-block">
    <path d="M11.4643 12C11.322 11.9997 11.1857 11.9429 11.0852 11.8421L4.13561 4.8936C4.04463 4.79125 3.9962 4.658 4.00023 4.52113C4.00426 4.38425 4.06045 4.25409 4.15729 4.15726C4.25413 4.06044 4.38432 4.00426 4.52121 4.00023C4.65811 3.9962 4.79138 4.04462 4.89375 4.13559L11.8434 11.0841C11.9182 11.1591 11.9691 11.2547 11.9898 11.3587C12.0104 11.4627 11.9997 11.5704 11.9592 11.6684C11.9187 11.7663 11.85 11.8501 11.762 11.9091C11.6739 11.9681 11.5703 11.9997 11.4643 12Z" />
    <path d="M4.5357 12C4.42968 11.9997 4.32611 11.9681 4.23804 11.9091C4.14997 11.8501 4.08134 11.7663 4.0408 11.6684C4.00027 11.5704 3.98963 11.4627 4.01025 11.3587C4.03086 11.2547 4.0818 11.1591 4.15663 11.0841L11.1063 4.13559C11.2086 4.04462 11.3419 3.9962 11.4788 4.00023C11.6157 4.00426 11.7459 4.06044 11.8427 4.15726C11.9396 4.25409 11.9957 4.38425 11.9998 4.52113C12.0038 4.658 11.9554 4.79125 11.8644 4.8936L4.91477 11.8421C4.81433 11.9429 4.678 11.9997 4.5357 12Z" />
  </g>
</svg>
