<svg id="Layer_1" data-name="Layer 1" xmlns="http://www.w3.org/2000/svg" viewBox="0 0 16 16"><title>report_excel_16</title><rect x="12" y="2" width="3" height="13" fill="#fff"/><rect x="12" y="10" width="2" height="1" fill="#adb1b2"/><rect x="9" y="8" width="9" height="1" transform="translate(5 22) rotate(-90)" fill="#adb1b2"/><rect x="12" y="12" width="1" height="1" fill="#adb1b2"/><rect x="12" y="8" width="2" height="1" fill="#adb1b2"/><rect x="12" y="4" width="2" height="1" fill="#adb1b2"/><rect width="12" height="16" fill="#5c992b"/><path d="M10,12H8.33L6.6074,9.0656a2.8794,2.8794,0,0,1-.17-.3794H6.4141q-.0528.1227-.1758.3794L4.4629,12H2.7813L5.5352,7.9777,3.0039,4H4.709L6.2266,6.7q.1464.2679.2636.5356h.0176q.17-.3514.293-.5579L8.377,4h1.57l-2.59,3.9665Z" fill="#fff"/><path d="M15,1H12V2h3V15H12v1h3a1,1,0,0,0,1-1V2A1,1,0,0,0,15,1Z" fill="#798288"/><rect x="12" y="6" width="2" height="1" fill="#adb1b2"/></svg>