<svg id="Layer_1" data-name="Layer 1" xmlns="http://www.w3.org/2000/svg" viewBox="0 0 32 32"><title>report_excel_32</title><rect x="3" y="5" width="27" height="21" fill="#fff"/><polygon points="13 8 13 15 16 15 16 24 17 24 17 8 13 8" fill="#c1c5c6"/><polygon points="18 11 18 13 18 24 22 24 22 13 22 11 18 11" fill="#c1c5c6"/><polygon points="23 16 23 18 23 24 27 24 27 18 27 16 23 16" fill="#c1c5c6"/><rect y="16" width="15" height="15" fill="#5c992b"/><path d="M11.1035,28h-1.67L7.7109,24.6987a3.4563,3.4563,0,0,1-.17-.4267H7.5176q-.0528.138-.1758.4267L5.5664,28H3.8848l2.7539-4.5251L4.1074,19H5.8125L7.33,22.0377q.1464.3012.2637.6025h.0175q.17-.3954.293-.6276L9.4805,19h1.57l-2.59,4.4623Z" fill="#fff"/><path d="M31,3H2A1.0029,1.0029,0,0,0,1,4V15H3V5H30V26H16v2H31a1.0029,1.0029,0,0,0,1-1V4A1.0029,1.0029,0,0,0,31,3Z" fill="#9da2a5"/></svg>