<svg id="Layer_1" data-name="Layer 1" xmlns="http://www.w3.org/2000/svg" viewBox="0 0 32 32"><title>report_word_32</title><rect x="3" y="5" width="27" height="21" fill="#fff"/><polygon points="13 8 13 15 16 15 16 24 17 24 17 8 13 8" fill="#c1c5c6"/><polygon points="18 11 18 13 18 24 22 24 22 13 22 11 18 11" fill="#c1c5c6"/><polygon points="23 16 23 18 23 24 27 24 27 18 27 16 23 16" fill="#c1c5c6"/><path d="M31,3H2A1.0029,1.0029,0,0,0,1,4V15H3V5H30V26H16v2H31a1.0029,1.0029,0,0,0,1-1V4A1.0029,1.0029,0,0,0,31,3Z" fill="#9da2a5"/><rect y="16" width="15" height="15" fill="#407fb9"/><path d="M4.2857,28,2,19H3.23l1.069,4.5529c.2676,1.1226.5084,2.2438.6686,3.1115H4.994c.1471-.8952.4277-1.9628.7349-3.1246L6.932,19H8.1481l1.0963,4.5659c.2539,1.0691.4947,2.1367.6282,3.0855h.0267c.1868-.988.4407-1.99.7219-3.1116L11.8106,19H13l-2.5526,9H9.2307l-1.136-4.6876a27.1443,27.1443,0,0,1-.5879-2.9377H7.48a25.11,25.11,0,0,1-.6952,2.9377L5.5017,28Z" fill="#fff"/></svg>