<svg id="Layer_1" data-name="Layer 1" xmlns="http://www.w3.org/2000/svg" viewBox="0 0 16 16"><title>report_word_16</title><rect x="12" y="2" width="3" height="13" fill="#fff"/><rect x="12" y="10" width="2" height="1" fill="#adb1b2"/><rect x="12" y="12" width="2" height="1" fill="#adb1b2"/><rect x="12" y="8" width="2" height="1" fill="#adb1b2"/><rect x="12" y="4" width="2" height="1" fill="#adb1b2"/><rect width="12" height="16" fill="#407fb9"/><path d="M15,1H12V2h3V15H12v1h3a1,1,0,0,0,1-1V2A1,1,0,0,0,15,1Z" fill="#798288"/><rect x="12" y="6" width="2" height="1" fill="#adb1b2"/><path d="M10,4,8.5252,12H6.865L6.11,7.3121a7.26,7.26,0,0,1-.0851-1.0234h-.03a9.4328,9.4328,0,0,1-.1.9926L5.0848,12h-1.64L2,4H3.61l.7052,5.2187c.0331.2452.058.5414.075.8906h.03a7.59,7.59,0,0,1,.09-.9225L5.39,4H6.8949l.79,5.2187c.02.1306.0433.432.07.9066H7.79c.0166-.3026.0433-.6041.08-.9066L8.5349,4Z" fill="#fff"/></svg>